<svg width="1899" height="395" viewBox="0 0 1899 395" fill="none" xmlns="http://www.w3.org/2000/svg">
<g filter="url(#filter0_d_458_21502)">
<path d="M321.723 179.455C321.723 217.068 314.678 249.284 300.587 276.102C286.609 302.807 267.518 323.261 243.314 337.466C219.223 351.67 191.893 358.773 161.325 358.773C130.757 358.773 103.371 351.67 79.1662 337.466C55.0753 323.148 35.9844 302.636 21.8935 275.932C7.91619 249.114 0.927557 216.955 0.927557 179.455C0.927557 141.841 7.91619 109.682 21.8935 82.9773C35.9844 56.1591 55.0753 35.6477 79.1662 21.4432C103.371 7.23862 130.757 0.136351 161.325 0.136351C191.893 0.136351 219.223 7.23862 243.314 21.4432C267.518 35.6477 286.609 56.1591 300.587 82.9773C314.678 109.682 321.723 141.841 321.723 179.455ZM258.143 179.455C258.143 152.977 253.996 130.648 245.7 112.466C237.518 94.1705 226.155 80.3636 211.609 71.0455C197.064 61.6136 180.303 56.8977 161.325 56.8977C142.348 56.8977 125.587 61.6136 111.041 71.0455C96.4957 80.3636 85.0753 94.1705 76.7798 112.466C68.598 130.648 64.5071 152.977 64.5071 179.455C64.5071 205.932 68.598 228.318 76.7798 246.614C85.0753 264.795 96.4957 278.602 111.041 288.034C125.587 297.352 142.348 302.011 161.325 302.011C180.303 302.011 197.064 297.352 211.609 288.034C226.155 278.602 237.518 264.795 245.7 246.614C253.996 228.318 258.143 205.932 258.143 179.455ZM440.487 200.591V354H378.783V92.1818H437.76V136.67H440.828C446.851 122.011 456.453 110.364 469.635 101.727C482.93 93.0909 499.351 88.7727 518.896 88.7727C536.964 88.7727 552.703 92.6364 566.112 100.364C579.635 108.091 590.089 119.284 597.476 133.943C604.976 148.602 608.669 166.386 608.555 187.295V354H546.851V196.841C546.851 179.341 542.305 165.648 533.214 155.761C524.237 145.875 511.794 140.932 495.885 140.932C485.089 140.932 475.487 143.318 467.078 148.091C458.783 152.75 452.249 159.511 447.476 168.375C442.817 177.239 440.487 187.977 440.487 200.591ZM732.987 4.90908V354H671.283V4.90908H732.987ZM834.791 452.182C826.382 452.182 818.598 451.5 811.439 450.136C804.393 448.886 798.768 447.409 794.564 445.705L808.882 397.636C817.859 400.25 825.871 401.5 832.916 401.386C839.962 401.273 846.155 399.057 851.496 394.739C856.95 390.534 861.553 383.489 865.303 373.602L870.587 359.455L775.643 92.1818H841.098L901.439 289.909H904.166L964.678 92.1818H1030.3L925.473 385.705C920.587 399.568 914.109 411.443 906.041 421.33C897.973 431.33 888.087 438.943 876.382 444.17C864.791 449.511 850.928 452.182 834.791 452.182ZM1087.75 354H1020.25L1143.14 4.90908H1221.21L1344.28 354H1276.78L1183.54 76.5H1180.81L1087.75 354ZM1089.96 217.125H1274.05V267.92H1089.96V217.125ZM1476.72 358.602C1456.15 358.602 1437.75 353.318 1421.5 342.75C1405.25 332.182 1392.4 316.841 1382.97 296.727C1373.54 276.614 1368.83 252.182 1368.83 223.432C1368.83 194.341 1373.6 169.795 1383.14 149.795C1392.8 129.682 1405.81 114.511 1422.18 104.284C1438.54 93.9432 1456.78 88.7727 1476.89 88.7727C1492.23 88.7727 1504.85 91.3864 1514.73 96.6136C1524.62 101.727 1532.46 107.92 1538.26 115.193C1544.05 122.352 1548.54 129.114 1551.72 135.477H1554.28V4.90908H1616.15V354H1555.47V312.75H1551.72C1548.54 319.114 1543.94 325.875 1537.92 333.034C1531.89 340.08 1523.94 346.102 1514.05 351.102C1504.17 356.102 1491.72 358.602 1476.72 358.602ZM1493.94 307.977C1507.01 307.977 1518.14 304.455 1527.35 297.409C1536.55 290.25 1543.54 280.307 1548.31 267.58C1553.09 254.852 1555.47 240.023 1555.47 223.091C1555.47 206.159 1553.09 191.443 1548.31 178.943C1543.65 166.443 1536.72 156.727 1527.52 149.795C1518.43 142.864 1507.23 139.398 1493.94 139.398C1480.19 139.398 1468.71 142.977 1459.51 150.136C1450.3 157.295 1443.37 167.182 1438.71 179.795C1434.05 192.409 1431.72 206.841 1431.72 223.091C1431.72 239.455 1434.05 254.057 1438.71 266.898C1443.48 279.625 1450.47 289.682 1459.68 297.068C1469 304.341 1480.42 307.977 1493.94 307.977ZM1888.84 161.386L1832.59 167.523C1831 161.841 1828.21 156.5 1824.24 151.5C1820.37 146.5 1815.15 142.466 1808.56 139.398C1801.96 136.33 1793.9 134.795 1784.35 134.795C1771.51 134.795 1760.71 137.58 1751.96 143.148C1743.33 148.716 1739.07 155.932 1739.18 164.795C1739.07 172.409 1741.85 178.602 1747.53 183.375C1753.33 188.148 1762.87 192.068 1776.17 195.136L1820.83 204.682C1845.6 210.023 1864.01 218.489 1876.06 230.08C1888.21 241.67 1894.35 256.841 1894.46 275.591C1894.35 292.068 1889.52 306.614 1879.98 319.227C1870.54 331.727 1857.42 341.5 1840.6 348.545C1823.78 355.591 1804.46 359.114 1782.65 359.114C1750.6 359.114 1724.81 352.409 1705.26 339C1685.71 325.477 1674.07 306.67 1670.32 282.58L1730.49 276.784C1733.21 288.602 1739.01 297.523 1747.87 303.545C1756.74 309.568 1768.27 312.58 1782.48 312.58C1797.13 312.58 1808.9 309.568 1817.76 303.545C1826.74 297.523 1831.23 290.08 1831.23 281.216C1831.23 273.716 1828.33 267.523 1822.53 262.636C1816.85 257.75 1807.99 254 1795.94 251.386L1751.28 242.011C1726.17 236.784 1707.59 227.977 1695.54 215.591C1683.5 203.091 1677.53 187.295 1677.65 168.205C1677.53 152.068 1681.91 138.091 1690.77 126.273C1699.75 114.341 1712.19 105.136 1728.1 98.6591C1744.12 92.0682 1762.59 88.7727 1783.5 88.7727C1814.18 88.7727 1838.33 95.3068 1855.94 108.375C1873.67 121.443 1884.63 139.114 1888.84 161.386Z" fill="#2C1640"/>
</g>
<defs>
<filter id="filter0_d_458_21502" x="-3.07251" y="0.13623" width="1901.54" height="460.045" filterUnits="userSpaceOnUse" color-interpolation-filters="sRGB">
<feFlood flood-opacity="0" result="BackgroundImageFix"/>
<feColorMatrix in="SourceAlpha" type="matrix" values="0 0 0 0 0 0 0 0 0 0 0 0 0 0 0 0 0 0 127 0" result="hardAlpha"/>
<feOffset dy="4"/>
<feGaussianBlur stdDeviation="2"/>
<feComposite in2="hardAlpha" operator="out"/>
<feColorMatrix type="matrix" values="0 0 0 0 0 0 0 0 0 0 0 0 0 0 0 0 0 0 0.25 0"/>
<feBlend mode="normal" in2="BackgroundImageFix" result="effect1_dropShadow_458_21502"/>
<feBlend mode="normal" in="SourceGraphic" in2="effect1_dropShadow_458_21502" result="shape"/>
</filter>
</defs>
</svg>
