<svg width="14" height="14" viewBox="0 0 14 14" fill="none" xmlns="http://www.w3.org/2000/svg">
<g clipPath="url(#clip0_1_9641)">
<path d="M2.33203 8.75L2.33203 11.0833" stroke="#262626" strokeWidth="1.5" strokeLinecap="round" strokeLinejoin="round"/>
<path d="M7 5.25L7 11.0833" stroke="#262626" strokeWidth="1.5" strokeLinecap="round" strokeLinejoin="round"/>
<path d="M12.832 12.834L1.16537 12.834" stroke="#262626" strokeWidth="1.5" strokeLinecap="round" strokeLinejoin="round"/>
<path d="M11.666 7.58398L11.666 11.084" stroke="#262626" strokeWidth="1.5" strokeLinecap="round" strokeLinejoin="round"/>
<path d="M3.26607 5.13362C3.05322 4.85027 2.71435 4.66699 2.33268 4.66699C1.68835 4.66699 1.16602 5.18933 1.16602 5.83366C1.16602 6.47799 1.68835 7.00033 2.33268 7.00033C2.97701 7.00033 3.49935 6.47799 3.49935 5.83366C3.49935 5.571 3.41255 5.32861 3.26607 5.13362ZM3.26607 5.13362L6.06596 3.0337M6.06596 3.0337C6.27881 3.31705 6.61768 3.50033 6.99935 3.50033C7.45609 3.50033 7.85153 3.23786 8.04308 2.85552M6.06596 3.0337C5.91948 2.83871 5.83268 2.59632 5.83268 2.33366C5.83268 1.68933 6.35502 1.16699 6.99935 1.16699C7.64368 1.16699 8.16602 1.68933 8.16602 2.33366C8.16602 2.52125 8.12174 2.69849 8.04308 2.85552M8.04308 2.85552L10.6223 4.14513M10.6223 4.14513C10.5436 4.30216 10.4993 4.4794 10.4993 4.66699C10.4993 5.31132 11.0217 5.83366 11.666 5.83366C12.3103 5.83366 12.8327 5.31132 12.8327 4.66699C12.8327 4.02266 12.3103 3.50033 11.666 3.50033C11.2093 3.50033 10.8138 3.76279 10.6223 4.14513Z" stroke="#262626" strokeWidth="1.5"/>
</g>
<defs>
<clipPath id="clip0_1_9641">
<rect width="14" height="14" fill="white"/>
</clipPath>
</defs>
</svg>
