<svg width="14" height="14" viewBox="0 0 14 14" fill="none" xmlns="http://www.w3.org/2000/svg">
<g clipPath="url(#clip0_1_16115)">
<path d="M4.87744 0.460543C3.47862 0.945806 2.27228 1.86685 1.43561 3.08839C0.598948 4.30993 0.176053 5.76758 0.229046 7.24722C0.282039 8.72687 0.808128 10.1505 1.73004 11.3091C2.65195 12.4676 3.92108 13.3 5.35103 13.684C6.51032 13.9831 7.72492 13.9963 8.89041 13.7223C9.94622 13.4851 10.9224 12.9778 11.7232 12.2501C12.5567 11.4695 13.1618 10.4765 13.4732 9.37789C13.8118 8.18315 13.872 6.92672 13.6493 5.70507H7.13931V8.40554H10.9095C10.8341 8.83625 10.6727 9.24733 10.4347 9.61417C10.1968 9.98102 9.88731 10.2961 9.52478 10.5405C9.0644 10.8451 8.54543 11.05 8.00119 11.1421C7.45535 11.2436 6.89547 11.2436 6.34962 11.1421C5.79639 11.0277 5.27304 10.7994 4.81291 10.4716C4.07369 9.94837 3.51865 9.20499 3.22697 8.34758C2.93036 7.4741 2.93036 6.52714 3.22697 5.65367C3.43459 5.0414 3.77782 4.48394 4.23103 4.02289C4.74968 3.48558 5.4063 3.10151 6.12886 2.91281C6.85142 2.72412 7.61199 2.73809 8.32713 2.9532C8.88578 3.12469 9.39665 3.42432 9.819 3.8282C10.2441 3.40528 10.6685 2.98127 11.0921 2.55617C11.3109 2.32757 11.5493 2.10992 11.7648 1.87586C11.1201 1.27591 10.3633 0.809074 9.53791 0.502106C8.03477 -0.0436869 6.39007 -0.0583545 4.87744 0.460543Z" fill="white"/>
<path d="M4.87789 0.460586C6.3904 -0.058664 8.0351 -0.0443824 9.53836 0.501055C10.3639 0.810109 11.1203 1.27919 11.7641 1.88137C11.5454 2.11543 11.3146 2.33418 11.0915 2.56168C10.6671 2.98533 10.2431 3.40751 9.81945 3.82824C9.3971 3.42436 8.88623 3.12473 8.32758 2.95324C7.61268 2.73738 6.85213 2.7226 6.12938 2.91052C5.40663 3.09845 4.74961 3.48181 4.23039 4.01856C3.77718 4.47961 3.43395 5.03707 3.22633 5.64934L0.958984 3.89387C1.77056 2.28448 3.17574 1.05342 4.87789 0.460586Z" fill="#E33629"/>
<path d="M0.356325 5.63286C0.478192 5.02889 0.680517 4.44398 0.957888 3.8938L3.22523 5.65364C2.92862 6.52712 2.92862 7.47407 3.22523 8.34755C2.46981 8.93088 1.71403 9.51713 0.957888 10.1063C0.263521 8.72414 0.0517513 7.14935 0.356325 5.63286Z" fill="#F8BD00"/>
<path d="M7.13916 5.70386H13.6492C13.8718 6.9255 13.8116 8.18193 13.4731 9.37667C13.1616 10.4753 12.5566 11.4683 11.7231 12.2489C10.9913 11.6779 10.2563 11.1114 9.52463 10.5404C9.8874 10.2957 10.197 9.9803 10.435 9.61306C10.6729 9.24582 10.8342 8.83433 10.9093 8.40323H7.13916C7.13806 7.50417 7.13916 6.60401 7.13916 5.70386Z" fill="#587DBD"/>
<path d="M0.957031 10.1062C1.71318 9.52283 2.46896 8.93658 3.22438 8.34741C3.51663 9.20513 4.07247 9.94855 4.8125 10.4715C5.27407 10.7977 5.79855 11.0242 6.3525 11.1365C6.89834 11.238 7.45822 11.238 8.00406 11.1365C8.54831 11.0444 9.06728 10.8394 9.52766 10.5349C10.2594 11.1058 10.9944 11.6724 11.7261 12.2434C10.9253 12.9715 9.94921 13.4792 8.89328 13.7166C7.72779 13.9906 6.5132 13.9775 5.35391 13.6783C4.43702 13.4335 3.58058 13.002 2.83828 12.4107C2.0526 11.7869 1.41089 11.0008 0.957031 10.1062Z" fill="#319F43"/>
</g>
<defs>
<clipPath id="clip0_1_16115">
<rect width="14" height="14" fill="white"/>
</clipPath>
</defs>
</svg>
