<svg width="28" height="28" viewBox="0 0 28 28" fill="none" xmlns="http://www.w3.org/2000/svg">
<g filter="url(#filter0_d_1_13328)">
<path d="M1 14C1 9.33074 1 6.9961 1.94463 5.22883C2.6905 3.83341 3.83341 2.6905 5.22883 1.94463C6.9961 1 9.33074 1 14 1C18.6693 1 21.0039 1 22.7712 1.94463C24.1666 2.6905 25.3095 3.83341 26.0554 5.22883C27 6.9961 27 9.33074 27 14C27 18.6693 27 21.0039 26.0554 22.7712C25.3095 24.1666 24.1666 25.3095 22.7712 26.0554C21.0039 27 18.6693 27 14 27C9.33074 27 6.9961 27 5.22883 26.0554C3.83341 25.3095 2.6905 24.1666 1.94463 22.7712C1 21.0039 1 18.6693 1 14Z" fill="url(#paint0_linear_1_13328)"/>
<path d="M1.25 14C1.25 11.6611 1.25021 9.92253 1.36718 8.54736C1.48388 7.17529 1.71545 6.18793 2.16511 5.34668C2.88767 3.99486 3.99486 2.88767 5.34668 2.16511C6.18793 1.71545 7.17529 1.48388 8.54736 1.36718C9.92253 1.25021 11.6611 1.25 14 1.25C16.3389 1.25 18.0775 1.25021 19.4526 1.36718C20.8247 1.48388 21.8121 1.71545 22.6533 2.16511C24.0051 2.88767 25.1123 3.99486 25.8349 5.34668C26.2845 6.18793 26.5161 7.17529 26.6328 8.54736C26.7498 9.92253 26.75 11.6611 26.75 14C26.75 16.3389 26.7498 18.0775 26.6328 19.4526C26.5161 20.8247 26.2845 21.8121 25.8349 22.6533C25.1123 24.0051 24.0051 25.1123 22.6533 25.8349C21.8121 26.2845 20.8247 26.5161 19.4526 26.6328C18.0775 26.7498 16.3389 26.75 14 26.75C11.6611 26.75 9.92253 26.7498 8.54736 26.6328C7.17529 26.5161 6.18793 26.2845 5.34668 25.8349C3.99486 25.1123 2.88767 24.0051 2.16511 22.6533C1.71545 21.8121 1.48388 20.8247 1.36718 19.4526C1.25021 18.0775 1.25 16.3389 1.25 14Z" stroke="url(#paint1_linear_1_13328)" strokeWidth="0.5"/>
<path fill-rule="evenodd" clip-rule="evenodd" d="M14.0003 19.334C16.9458 19.334 19.3336 16.9462 19.3336 14.0006C19.3336 11.0551 16.9458 8.6673 14.0003 8.6673C11.1667 8.6673 8.8492 10.877 8.67714 13.6673H7.3418C7.51545 10.1403 10.4301 7.33398 14.0003 7.33398C17.6821 7.33398 20.667 10.3187 20.667 14.0006C20.667 17.6825 17.6821 20.6673 14.0003 20.6673C12.3983 20.6673 10.9283 20.1023 9.77873 19.1606C9.43486 18.879 9.11984 18.5638 8.83833 18.2198L15.0575 12.0006H12.0003V10.6673H17.3336V16.0006H16.0003V12.9435L10.7298 18.2139C11.633 18.9159 12.7678 19.334 14.0003 19.334Z" fill="white"/>
</g>
<defs>
<filter id="filter0_d_1_13328" x="0.5" y="0.5" width="27" height="27" filterUnits="userSpaceOnUse" color-interpolation-filters="sRGB">
<feFlood flood-opacity="0" result="BackgroundImageFix"/>
<feColorMatrix in="SourceAlpha" type="matrix" values="0 0 0 0 0 0 0 0 0 0 0 0 0 0 0 0 0 0 127 0" result="hardAlpha"/>
<feMorphology radius="0.5" operator="dilate" in="SourceAlpha" result="effect1_dropShadow_1_13328"/>
<feOffset/>
<feComposite in2="hardAlpha" operator="out"/>
<feColorMatrix type="matrix" values="0 0 0 0 0.490196 0 0 0 0 0.513726 0 0 0 0 0.862745 0 0 0 1 0"/>
<feBlend mode="normal" in2="BackgroundImageFix" result="effect1_dropShadow_1_13328"/>
<feBlend mode="normal" in="SourceGraphic" in2="effect1_dropShadow_1_13328" result="shape"/>
</filter>
<linearGradient id="paint0_linear_1_13328" x1="27" y1="14" x2="1" y2="14" gradientUnits="userSpaceOnUse">
<stop stop-color="#000BA7"/>
<stop offset="1" stop-color="#000441"/>
</linearGradient>
<linearGradient id="paint1_linear_1_13328" x1="27" y1="16.3214" x2="1" y2="16.3214" gradientUnits="userSpaceOnUse">
<stop stop-color="#7D84DD"/>
<stop offset="1" stop-color="#343767"/>
</linearGradient>
</defs>
</svg>
