<svg width="34" height="34" viewBox="0 0 34 34" fill="none" xmlns="http://www.w3.org/2000/svg">
<path d="M23.5166 8.245C22.5485 7.13933 22.0148 5.71965 22.015 4.25H17.6375V21.8167C17.6044 22.7675 17.2033 23.6684 16.5187 24.3291C15.8342 24.9899 14.9197 25.3589 13.9683 25.3583C11.9566 25.3583 10.285 23.715 10.285 21.675C10.285 19.2383 12.6366 17.4108 15.0591 18.1617V13.685C10.1716 13.0333 5.89331 16.83 5.89331 21.675C5.89331 26.3925 9.80331 29.75 13.9541 29.75C18.4025 29.75 22.015 26.1375 22.015 21.675V12.7642C23.7901 14.039 25.9212 14.7229 28.1066 14.7192V10.3417C28.1066 10.3417 25.4433 10.4692 23.5166 8.245Z" fill="#7A7A7A"/>
</svg>
