<svg width="70" height="70" viewBox="0 0 70 70" fill="none" xmlns="http://www.w3.org/2000/svg">
<path d="M0 24C0 12.6863 0 7.02944 3.51472 3.51472C7.02944 0 12.6863 0 24 0H46C57.3137 0 62.9706 0 66.4853 3.51472C70 7.02944 70 12.6863 70 24V46C70 57.3137 70 62.9706 66.4853 66.4853C62.9706 70 57.3137 70 46 70H24C12.6863 70 7.02944 70 3.51472 66.4853C0 62.9706 0 57.3137 0 46V24Z" fill="#E0C4F8"/>
<path d="M34.9999 29.1667C44.2047 29.1667 51.6666 26.9282 51.6666 24.1667C51.6666 21.4053 44.2047 19.1667 34.9999 19.1667C25.7952 19.1667 18.3333 21.4053 18.3333 24.1667C18.3333 26.9282 25.7952 29.1667 34.9999 29.1667Z" fill="#1C1D21" stroke="#1C1D21" stroke-width="2.5" stroke-linecap="round" stroke-linejoin="round"/>
<path d="M23.9749 27.9167C20.5166 28.8334 18.3333 30.1734 18.3333 31.6667C18.3333 34.4284 25.7949 36.6667 34.9999 36.6667C44.2049 36.6667 51.6666 34.4284 51.6666 31.6667C51.6666 30.1734 49.4841 28.8334 46.0249 27.9167" stroke="#1C1D21" stroke-width="2.5" stroke-linecap="round" stroke-linejoin="round"/>
<path d="M23.9749 35.4167C20.5166 36.3334 18.3333 37.6734 18.3333 39.1667C18.3333 41.9284 25.7949 44.1667 34.9999 44.1667C44.2049 44.1667 51.6666 41.9284 51.6666 39.1667C51.6666 37.6734 49.4841 36.3334 46.0249 35.4167" stroke="#1C1D21" stroke-width="2.5" stroke-linecap="round" stroke-linejoin="round"/>
<path d="M23.9749 42.9167C20.5166 43.8334 18.3333 45.1734 18.3333 46.6667C18.3333 49.4284 25.7949 51.6667 34.9999 51.6667C44.2049 51.6667 51.6666 49.4284 51.6666 46.6667C51.6666 45.1734 49.4841 43.8334 46.0249 42.9167" stroke="#1C1D21" stroke-width="2.5" stroke-linecap="round" stroke-linejoin="round"/>
</svg>
