<svg width="70" height="70" viewBox="0 0 70 70" fill="none" xmlns="http://www.w3.org/2000/svg">
<path d="M0 24C0 12.6863 0 7.02944 3.51472 3.51472C7.02944 0 12.6863 0 24 0H46C57.3137 0 62.9706 0 66.4853 3.51472C70 7.02944 70 12.6863 70 24V46C70 57.3137 70 62.9706 66.4853 66.4853C62.9706 70 57.3137 70 46 70H24C12.6863 70 7.02944 70 3.51472 66.4853C0 62.9706 0 57.3137 0 46V24Z" fill="#E0C4F8"/>
<path d="M49.6232 45C50.872 45 51.8653 44.2141 52.7572 43.1152C54.5829 40.8657 51.5853 39.0681 50.442 38.1877C49.2798 37.2927 47.9821 36.7857 46.6664 36.6667M44.9998 33.3333C47.3009 33.3333 49.1664 31.4679 49.1664 29.1667C49.1664 26.8655 47.3009 25 44.9998 25" stroke="#1C1D21" stroke-width="2.5" stroke-linecap="round"/>
<path d="M20.3764 45C19.1276 45 18.1343 44.2141 17.2424 43.1152C15.4167 40.8657 18.4143 39.0681 19.5576 38.1877C20.7198 37.2927 22.0175 36.7857 23.3332 36.6667M24.1665 33.3333C21.8653 33.3333 19.9998 31.4679 19.9998 29.1667C19.9998 26.8655 21.8653 25 24.1665 25" stroke="#1C1D21" stroke-width="2.5" stroke-linecap="round"/>
<path d="M28.4728 40.1855C26.7699 41.2385 22.3048 43.3886 25.0243 46.0792C26.3528 47.3935 27.8324 48.3335 29.6925 48.3335H40.3071C42.1673 48.3335 43.6469 47.3935 44.9753 46.0792C47.6949 43.3886 43.2298 41.2385 41.5268 40.1855C37.5334 37.7162 32.4663 37.7162 28.4728 40.1855Z" stroke="#1C1D21" stroke-width="2.5" stroke-linecap="round" stroke-linejoin="round"/>
<path d="M40.8332 27.5001C40.8332 30.7217 38.2215 33.3334 34.9998 33.3334C31.7782 33.3334 29.1665 30.7217 29.1665 27.5001C29.1665 24.2784 31.7782 21.6667 34.9998 21.6667C38.2215 21.6667 40.8332 24.2784 40.8332 27.5001Z" stroke="#1C1D21" stroke-width="2.5"/>
</svg>
