<svg width="70" height="70" viewBox="0 0 70 70" fill="none" xmlns="http://www.w3.org/2000/svg">
<path d="M0 24C0 12.6863 0 7.02944 3.51472 3.51472C7.02944 0 12.6863 0 24 0H46C57.3137 0 62.9706 0 66.4853 3.51472C70 7.02944 70 12.6863 70 24V46C70 57.3137 70 62.9706 66.4853 66.4853C62.9706 70 57.3137 70 46 70H24C12.6863 70 7.02944 70 3.51472 66.4853C0 62.9706 0 57.3137 0 46V24Z" fill="#E0C4F8"/>
<path d="M19 34.8333C19 27.3694 19 23.6375 21.3187 21.3187C23.6375 19 27.3694 19 34.8333 19C42.2972 19 46.0292 19 48.3479 21.3187C50.6667 23.6375 50.6667 27.3694 50.6667 34.8333C50.6667 42.2972 50.6667 46.0292 48.3479 48.3479C46.0292 50.6667 42.2972 50.6667 34.8333 50.6667C27.3694 50.6667 23.6375 50.6667 21.3187 48.3479C19 46.0292 19 42.2972 19 34.8333Z" stroke="#141B34" stroke-width="2.5"/>
<path d="M19 29.8333H50.6667" stroke="#141B34" stroke-width="2.5" stroke-linejoin="round"/>
<path d="M26.4997 24.8333H26.5146" stroke="#141B34" stroke-width="2.5" stroke-linecap="round" stroke-linejoin="round"/>
<path d="M33.1664 24.8333H33.1814" stroke="#141B34" stroke-width="2.5" stroke-linecap="round" stroke-linejoin="round"/>
</svg>
