<svg width="70" height="70" viewBox="0 0 70 70" fill="none" xmlns="http://www.w3.org/2000/svg">
<path d="M0 24C0 12.6863 0 7.02944 3.51472 3.51472C7.02944 0 12.6863 0 24 0H46C57.3137 0 62.9706 0 66.4853 3.51472C70 7.02944 70 12.6863 70 24V46C70 57.3137 70 62.9706 66.4853 66.4853C62.9706 70 57.3137 70 46 70H24C12.6863 70 7.02944 70 3.51472 66.4853C0 62.9706 0 57.3137 0 46V24Z" fill="#E0C4F8"/>
<path d="M17.4496 44.1161C16.9615 44.6043 16.9615 45.3957 17.4496 45.8839C17.9378 46.372 18.7292 46.372 19.2174 45.8839L17.4496 44.1161ZM30.6632 36.8638L29.8823 37.8398L30.6632 36.8638ZM34.1956 39.6897L33.4148 40.6658H33.4148L34.1956 39.6897ZM38.7693 39.3014L37.8351 38.4709L38.7693 39.3014ZM50.9344 27.4971C51.3931 26.9811 51.3466 26.1911 50.8306 25.7324C50.3146 25.2738 49.5246 25.3202 49.0659 25.8362L50.9344 27.4971ZM36.6134 41.0374L36.7192 42.283H36.7192L36.6134 41.0374ZM28.365 35.5692L28.4341 36.8173H28.4341L28.365 35.5692ZM45.0002 23.75C44.3098 23.75 43.7502 24.3096 43.7502 25C43.7502 25.6904 44.3098 26.25 45.0002 26.25V23.75ZM50.4168 31.6667C50.4168 32.357 50.9765 32.9167 51.6668 32.9167C52.3572 32.9167 52.9168 32.357 52.9168 31.6667H50.4168ZM51.1787 25.4882L52.0626 24.6043V24.6043L51.1787 25.4882ZM23.3335 27.0833C22.6431 27.0833 22.0835 27.643 22.0835 28.3333C22.0835 29.0237 22.6431 29.5833 23.3335 29.5833V27.0833ZM33.3335 29.5833C34.0239 29.5833 34.5835 29.0237 34.5835 28.3333C34.5835 27.643 34.0239 27.0833 33.3335 27.0833V29.5833ZM19.2174 45.8839L27.1077 37.9935L25.34 36.2258L17.4496 44.1161L19.2174 45.8839ZM29.8823 37.8398L33.4148 40.6658L34.9765 38.7136L31.4441 35.8877L29.8823 37.8398ZM39.7036 40.1318L50.9344 27.4971L49.0659 25.8362L37.8351 38.4709L39.7036 40.1318ZM33.4148 40.6658C33.9729 41.1123 34.4858 41.5259 34.9479 41.8053C35.4409 42.1034 36.0216 42.3422 36.7192 42.283L36.5076 39.7919C36.5066 39.792 36.5065 39.792 36.5071 39.792C36.5077 39.792 36.508 39.792 36.5077 39.792C36.5076 39.792 36.5005 39.7913 36.4843 39.7863C36.4483 39.7754 36.3734 39.7458 36.2415 39.666C35.9529 39.4915 35.5883 39.2031 34.9765 38.7136L33.4148 40.6658ZM37.8351 38.4709C37.3145 39.0565 37.0038 39.4023 36.7487 39.623C36.6322 39.7238 36.5634 39.7656 36.5297 39.7824C36.5145 39.7901 36.5077 39.792 36.5076 39.792C36.5073 39.7921 36.5076 39.792 36.5082 39.7919C36.5087 39.7918 36.5087 39.7918 36.5076 39.7919L36.7192 42.283C37.4167 42.2237 37.9489 41.8905 38.3845 41.5135C38.7929 41.1602 39.2287 40.6661 39.7036 40.1318L37.8351 38.4709ZM27.1077 37.9935C27.633 37.4683 27.9443 37.1604 28.1965 36.9655C28.3114 36.8767 28.3784 36.8404 28.4113 36.8258C28.4262 36.8191 28.433 36.8175 28.4335 36.8174C28.4336 36.8173 28.4331 36.8174 28.4341 36.8173L28.2959 34.3211C27.6283 34.3581 27.1046 34.6498 26.668 34.9872C26.2595 35.3028 25.8182 35.7475 25.34 36.2258L27.1077 37.9935ZM31.4441 35.8877C30.9159 35.4652 30.4283 35.0719 29.9874 34.8034C29.5162 34.5163 28.9635 34.2842 28.2959 34.3211L28.4341 36.8173C28.4352 36.8172 28.4347 36.8173 28.4348 36.8173C28.4353 36.8173 28.4423 36.8183 28.4578 36.8232C28.4921 36.8341 28.5627 36.8628 28.6867 36.9383C28.9589 37.1042 29.3023 37.3759 29.8823 37.8398L31.4441 35.8877ZM45.0002 26.25H48.3335V23.75H45.0002V26.25ZM50.4168 28.3333V31.6667H52.9168V28.3333H50.4168ZM48.3335 26.25C49.1545 26.25 49.6445 26.2527 49.9957 26.2999C50.1567 26.3215 50.2373 26.347 50.2736 26.3619C50.282 26.3654 50.2875 26.3681 50.2907 26.3698C50.2939 26.3714 50.2953 26.3724 50.2954 26.3724C50.2956 26.3725 50.2952 26.3723 50.2946 26.3718C50.294 26.3713 50.294 26.3713 50.2948 26.372L52.0626 24.6043C51.5475 24.0892 50.9213 23.9018 50.3288 23.8222C49.7723 23.7473 49.0838 23.75 48.3335 23.75V26.25ZM52.9168 28.3333C52.9168 27.583 52.9195 26.8945 52.8447 26.338C52.765 25.7455 52.5776 25.1193 52.0626 24.6043L50.2948 26.372C50.2956 26.3728 50.2955 26.3728 50.295 26.3723C50.2946 26.3717 50.2943 26.3713 50.2944 26.3714C50.2945 26.3715 50.2954 26.3729 50.2971 26.3761C50.2987 26.3793 50.3014 26.3849 50.3049 26.3933C50.3198 26.4296 50.3453 26.5102 50.367 26.6711C50.4142 27.0223 50.4168 27.5123 50.4168 28.3333H52.9168ZM23.3335 29.5833H33.3335V27.0833H23.3335V29.5833Z" fill="#1C1D21"/>
</svg>
