<svg width="70" height="70" viewBox="0 0 70 70" fill="none" xmlns="http://www.w3.org/2000/svg">
<path d="M0 24C0 12.6863 0 7.02944 3.51472 3.51472C7.02944 0 12.6863 0 24 0H46C57.3137 0 62.9706 0 66.4853 3.51472C70 7.02944 70 12.6863 70 24V46C70 57.3137 70 62.9706 66.4853 66.4853C62.9706 70 57.3137 70 46 70H24C12.6863 70 7.02944 70 3.51472 66.4853C0 62.9706 0 57.3137 0 46V24Z" fill="#E0C4F8"/>
<path d="M44.9306 28.9815C44.9306 25.4019 40.4846 22.5 35.0001 22.5C29.5156 22.5 25.0695 25.4019 25.0695 28.9815C25.0695 32.5611 27.7779 34.537 35.0001 34.537C42.2223 34.537 45.8334 36.3889 45.8334 41.0185C45.8334 45.6481 40.9832 47.5 35.0001 47.5C29.017 47.5 24.1667 44.5981 24.1667 41.0185" stroke="#1C1D21" stroke-width="2.5" stroke-linecap="round"/>
<path d="M35.8335 19.1667V22.0167M35.8335 50.8334V47.9834" stroke="#1C1D21" stroke-width="2.5" stroke-linecap="round" stroke-linejoin="round"/>
</svg>
