<svg width="70" height="70" viewBox="0 0 70 70" fill="none" xmlns="http://www.w3.org/2000/svg">
<path d="M0 24C0 12.6863 0 7.02944 3.51472 3.51472C7.02944 0 12.6863 0 24 0H46C57.3137 0 62.9706 0 66.4853 3.51472C70 7.02944 70 12.6863 70 24V46C70 57.3137 70 62.9706 66.4853 66.4853C62.9706 70 57.3137 70 46 70H24C12.6863 70 7.02944 70 3.51472 66.4853C0 62.9706 0 57.3137 0 46V24Z" fill="#E0C4F8"/>
<path d="M30.6692 47.1034L30.3538 48.3129L30.6692 47.1034ZM28.4027 44.3557L27.2115 44.7347L28.4027 44.3557ZM28.9536 45.8079L27.8846 46.4558L28.9536 45.8079ZM41.5945 44.3557L42.7857 44.7347L41.5945 44.3557ZM41.0436 45.8079L42.1126 46.4558L41.0436 45.8079ZM39.328 47.1034L39.6434 48.3129L39.328 47.1034ZM41.2392 42.7785L41.7094 41.6202L41.2392 42.7785ZM41.7837 43.5699L43.0324 43.5128L41.7837 43.5699ZM28.758 42.7785L28.2878 41.6202L28.758 42.7785ZM28.2135 43.5699L26.9648 43.5128L28.2135 43.5699ZM40.5119 47.4269C40.6418 46.7489 40.1975 46.0939 39.5195 45.964C38.8414 45.8341 38.1865 46.2785 38.0566 46.9565L40.5119 47.4269ZM39.0995 48.1559L37.8718 47.9207L37.8718 47.9207L39.0995 48.1559ZM30.8976 48.1559L32.1252 47.9207L32.1252 47.9207L30.8976 48.1559ZM31.9405 46.9565C31.8106 46.2785 31.1556 45.8341 30.4776 45.964C29.7996 46.0939 29.3552 46.7489 29.4851 47.4269L31.9405 46.9565ZM33.0176 51.5154L32.6109 52.6974L33.0176 51.5154ZM31.4269 50.1541L30.3285 50.7508L31.4269 50.1541ZM38.5701 50.1541L39.6685 50.7508V50.7508L38.5701 50.1541ZM36.9794 51.5154L37.3862 52.6974V52.6974L36.9794 51.5154ZM29.5294 43.968H40.4678V41.468H29.5294V43.968ZM37.8388 45.9417H32.1584V48.4417H37.8388V45.9417ZM32.1584 45.9417C31.3205 45.9417 31.1307 45.9319 30.9847 45.8938L30.3538 48.3129C30.8851 48.4515 31.4623 48.4417 32.1584 48.4417V45.9417ZM27.2115 44.7347C27.4339 45.4335 27.6017 45.989 27.8846 46.4558L30.0226 45.16C29.9314 45.0095 29.8567 44.8027 29.5939 43.9768L27.2115 44.7347ZM30.9847 45.8938C30.6007 45.7937 30.2518 45.5382 30.0226 45.16L27.8846 46.4558C28.4392 47.3708 29.3189 48.043 30.3538 48.3129L30.9847 45.8938ZM40.4033 43.9768C40.1406 44.8027 40.0658 45.0095 39.9746 45.16L42.1126 46.4558C42.3955 45.989 42.5633 45.4335 42.7857 44.7347L40.4033 43.9768ZM37.8388 48.4417C38.5349 48.4417 39.1121 48.4515 39.6434 48.3129L39.0125 45.8938C38.8665 45.9319 38.6767 45.9417 37.8388 45.9417V48.4417ZM39.9746 45.16C39.7454 45.5382 39.3965 45.7937 39.0125 45.8938L39.6434 48.3129C40.6783 48.043 41.558 47.3708 42.1126 46.4558L39.9746 45.16ZM40.4678 43.968C40.5737 43.968 40.6565 43.968 40.7278 43.9689C40.7992 43.9697 40.8451 43.9713 40.8763 43.9732C40.9483 43.9776 40.8798 43.9816 40.7691 43.9367L41.7094 41.6202C41.4497 41.5148 41.203 41.4886 41.0303 41.4779C40.8604 41.4675 40.6594 41.468 40.4678 41.468V43.968ZM42.7857 44.7347C42.8469 44.5423 42.9092 44.3482 42.9519 44.1818C42.9952 44.0133 43.0446 43.7795 43.0324 43.5128L40.535 43.627C40.5305 43.5274 40.5509 43.4803 40.5305 43.5598C40.5214 43.5951 40.5075 43.6441 40.4853 43.7164C40.4632 43.7885 40.4367 43.8717 40.4033 43.9768L42.7857 44.7347ZM40.7691 43.9367C40.6084 43.8715 40.54 43.7355 40.535 43.627L43.0324 43.5128C42.9951 42.6975 42.4998 41.9411 41.7094 41.6202L40.7691 43.9367ZM29.5294 41.468C29.3378 41.468 29.1368 41.4675 28.9669 41.4779C28.7942 41.4886 28.5475 41.5148 28.2878 41.6202L29.2281 43.9367C29.1174 43.9816 29.0489 43.9776 29.1209 43.9732C29.1521 43.9713 29.198 43.9697 29.2695 43.9689C29.3407 43.968 29.4235 43.968 29.5294 43.968V41.468ZM29.5939 43.9768C29.5605 43.8717 29.534 43.7885 29.5119 43.7164C29.4898 43.6441 29.4758 43.5951 29.4667 43.5598C29.4463 43.4803 29.4667 43.5274 29.4622 43.627L26.9648 43.5128C26.9526 43.7795 27.002 44.0133 27.0453 44.1818C27.0881 44.3482 27.1503 44.5423 27.2115 44.7347L29.5939 43.9768ZM28.2878 41.6202C27.4974 41.9411 27.0021 42.6975 26.9648 43.5128L29.4622 43.627C29.4572 43.7355 29.3888 43.8715 29.2281 43.9367L28.2878 41.6202ZM38.0566 46.9565L37.8718 47.9207L40.3272 48.3912L40.5119 47.4269L38.0566 46.9565ZM32.1252 47.9207L31.9405 46.9565L29.4851 47.4269L29.6699 48.3912L32.1252 47.9207ZM34.9985 50.4154C33.8722 50.4154 33.614 50.3987 33.4244 50.3335L32.6109 52.6974C33.2928 52.9321 34.0647 52.9154 34.9985 52.9154V50.4154ZM29.6699 48.3912C29.8548 49.3564 29.9866 50.1214 30.3285 50.7508L32.5253 49.5574C32.4146 49.3536 32.3443 49.0642 32.1252 47.9207L29.6699 48.3912ZM33.4244 50.3335C33.0556 50.2065 32.7308 49.9356 32.5253 49.5574L30.3285 50.7508C30.823 51.661 31.6322 52.3606 32.6109 52.6974L33.4244 50.3335ZM37.8718 47.9207C37.6527 49.0642 37.5825 49.3536 37.4718 49.5574L39.6685 50.7508C40.0105 50.1214 40.1422 49.3564 40.3272 48.3912L37.8718 47.9207ZM34.9985 52.9154C35.9323 52.9154 36.7043 52.9321 37.3862 52.6974L36.5726 50.3335C36.383 50.3987 36.1249 50.4154 34.9985 50.4154V52.9154ZM37.4718 49.5574C37.2663 49.9356 36.9415 50.2065 36.5726 50.3335L37.3862 52.6974C38.3648 52.3606 39.1741 51.661 39.6685 50.7508L37.4718 49.5574Z" fill="#1C1D21"/>
<path d="M25.1488 39.9998C24.5181 38.5822 24.1665 37.0049 24.1665 35.343C24.1665 29.1704 29.0168 24.1665 34.9998 24.1665C40.9829 24.1665 45.8332 29.1704 45.8332 35.343C45.8332 37.0049 45.4816 38.5822 44.8509 39.9998" stroke="#1C1D21" stroke-width="2.5" stroke-linecap="round"/>
<path d="M35 18.3333V19.9999" stroke="#1C1D21" stroke-width="2.5" stroke-linecap="round" stroke-linejoin="round"/>
<path d="M51.6665 35L49.9998 35" stroke="#1C1D21" stroke-width="2.5" stroke-linecap="round" stroke-linejoin="round"/>
<path d="M20 35L18.3333 35" stroke="#1C1D21" stroke-width="2.5" stroke-linecap="round" stroke-linejoin="round"/>
<path d="M46.7837 23.2148L45.6052 24.3934" stroke="#1C1D21" stroke-width="2.5" stroke-linecap="round" stroke-linejoin="round"/>
<path d="M24.3945 24.394L23.216 23.2155" stroke="#1C1D21" stroke-width="2.5" stroke-linecap="round" stroke-linejoin="round"/>
</svg>
