<svg width="70" height="70" viewBox="0 0 70 70" fill="none" xmlns="http://www.w3.org/2000/svg">
<path d="M0 24C0 12.6863 0 7.02944 3.51472 3.51472C7.02944 0 12.6863 0 24 0H46C57.3137 0 62.9706 0 66.4853 3.51472C70 7.02944 70 12.6863 70 24V46C70 57.3137 70 62.9706 66.4853 66.4853C62.9706 70 57.3137 70 46 70H24C12.6863 70 7.02944 70 3.51472 66.4853C0 62.9706 0 57.3137 0 46V24Z" fill="#E0C4F8"/>
<path d="M30.9053 39.0941L39.0936 30.9058" stroke="#1C1D21" stroke-width="2.5" stroke-linecap="round"/>
<path d="M18.3864 43.1727L17.1518 43.3683V43.3683L18.3864 43.1727ZM18.3864 41.8271L17.1518 41.6316L18.3864 41.8271ZM28.173 51.6136L28.3685 52.8482L28.3685 52.8482L28.173 51.6136ZM26.8274 51.6136L27.0229 50.379L26.8274 51.6136ZM36.6139 43.1727L37.8485 43.3683V43.3683L36.6139 43.1727ZM36.6139 41.8271L37.8485 41.6316L37.8485 41.6316L36.6139 41.8271ZM26.8274 33.3862L27.0229 34.6208V34.6208L26.8274 33.3862ZM28.173 33.3862L28.3685 32.1516L28.3685 32.1516L28.173 33.3862ZM29.0884 35.131C29.6526 35.5287 30.4325 35.3937 30.8302 34.8294C31.228 34.2651 31.093 33.4853 30.5287 33.0876L29.0884 35.131ZM36.9125 39.4714C36.5148 38.9071 35.7349 38.7721 35.1707 39.1698C34.6064 39.5676 34.4714 40.3474 34.8691 40.9117L36.9125 39.4714ZM22.91 47.0901C21.7499 45.9301 20.9521 45.1298 20.4069 44.4521C19.8765 43.7928 19.6823 43.3638 19.6211 42.9772L17.1518 43.3683C17.3092 44.3619 17.7945 45.1932 18.459 46.0192C19.1088 46.8269 20.0216 47.7372 21.1422 48.8579L22.91 47.0901ZM21.1422 36.142C20.0216 37.2626 19.1088 38.1729 18.459 38.9806C17.7945 39.8067 17.3092 40.638 17.1518 41.6316L19.6211 42.0227C19.6823 41.6361 19.8765 41.2071 20.4069 40.5477C20.9521 39.87 21.7499 39.0698 22.91 37.9097L21.1422 36.142ZM19.6211 42.9772C19.571 42.661 19.571 42.3389 19.6211 42.0227L17.1518 41.6316C17.0607 42.2069 17.0607 42.793 17.1518 43.3683L19.6211 42.9772ZM32.0903 47.0901C30.9303 48.2501 30.1301 49.048 29.4524 49.5931C28.793 50.1236 28.364 50.3178 27.9774 50.379L28.3685 52.8482C29.3621 52.6909 30.1934 52.2056 31.0195 51.541C31.8272 50.8912 32.7375 49.9785 33.8581 48.8579L32.0903 47.0901ZM21.1422 48.8579C22.2629 49.9785 23.1732 50.8912 23.9809 51.541C24.8069 52.2056 25.6382 52.6909 26.6318 52.8482L27.0229 50.379C26.6363 50.3178 26.2073 50.1236 25.5479 49.5931C24.8703 49.048 24.07 48.2501 22.91 47.0901L21.1422 48.8579ZM27.9774 50.379C27.6612 50.4291 27.3391 50.4291 27.0229 50.379L26.6318 52.8482C27.2071 52.9394 27.7932 52.9394 28.3685 52.8482L27.9774 50.379ZM33.8581 48.8579C34.9788 47.7372 35.8915 46.8269 36.5413 46.0192C37.2058 45.1932 37.6911 44.3619 37.8485 43.3683L35.3793 42.9772C35.318 43.3638 35.1238 43.7928 34.5934 44.4521C34.0482 45.1298 33.2504 45.9301 32.0903 47.0901L33.8581 48.8579ZM35.3793 42.0227C35.4293 42.3389 35.4293 42.661 35.3793 42.9772L37.8485 43.3683C37.9396 42.793 37.9396 42.2069 37.8485 41.6316L35.3793 42.0227ZM22.91 37.9097C24.07 36.7497 24.8703 35.9519 25.5479 35.4067C26.2073 34.8762 26.6363 34.682 27.0229 34.6208L26.6318 32.1516C25.6382 32.309 24.8069 32.7942 23.9809 33.4588C23.1732 34.1086 22.2629 35.0213 21.1422 36.142L22.91 37.9097ZM28.3685 32.1516C27.7932 32.0605 27.2071 32.0605 26.6318 32.1516L27.0229 34.6208C27.3391 34.5707 27.6612 34.5707 27.9774 34.6208L28.3685 32.1516ZM30.5287 33.0876C29.8574 32.6144 29.1647 32.2777 28.3685 32.1516L27.9774 34.6208C28.2894 34.6702 28.6276 34.8062 29.0884 35.131L30.5287 33.0876ZM34.8691 40.9117C35.1939 41.3725 35.3299 41.7107 35.3793 42.0227L37.8485 41.6316C37.7224 40.8354 37.3857 40.1427 36.9125 39.4714L34.8691 40.9117Z" fill="#1C1D21"/>
<path d="M33.3864 26.8271L32.1518 26.6316L33.3864 26.8271ZM33.3864 28.1727L32.1518 28.3683V28.3683L33.3864 28.1727ZM43.173 36.6136L43.3685 37.8482L43.3685 37.8482L43.173 36.6136ZM41.8274 36.6136L42.0229 35.379H42.0229L41.8274 36.6136ZM51.6139 26.8271L52.8485 26.6316V26.6316L51.6139 26.8271ZM51.6139 28.1727L52.8485 28.3683V28.3683L51.6139 28.1727ZM43.173 18.3862L43.3685 17.1516L43.3685 17.1516L43.173 18.3862ZM41.8274 18.3862L42.0229 19.6208L42.0229 19.6208L41.8274 18.3862ZM33.0878 30.5284C33.4855 31.0927 34.2654 31.2277 34.8297 30.83C35.3939 30.4323 35.5289 29.6524 35.1312 29.0881L33.0878 30.5284ZM40.912 34.8689C40.3477 34.4711 39.5678 34.6062 39.1701 35.1704C38.7724 35.7347 38.9074 36.5146 39.4716 36.9123L40.912 34.8689ZM36.1422 21.142C35.0216 22.2626 34.1088 23.1729 33.459 23.9806C32.7945 24.8067 32.3092 25.638 32.1518 26.6316L34.6211 27.0227C34.6823 26.6361 34.8765 26.2071 35.4069 25.5477C35.9521 24.87 36.7499 24.0698 37.91 22.9097L36.1422 21.142ZM34.6211 27.9772C34.571 27.661 34.571 27.3389 34.6211 27.0227L32.1518 26.6316C32.0607 27.2069 32.0607 27.793 32.1518 28.3683L34.6211 27.9772ZM47.0903 32.0901C45.9303 33.2501 45.1301 34.048 44.4524 34.5931C43.793 35.1236 43.364 35.3178 42.9774 35.379L43.3685 37.8482C44.3621 37.6909 45.1934 37.2056 46.0195 36.541C46.8272 35.8912 47.7375 34.9785 48.8581 33.8579L47.0903 32.0901ZM42.9774 35.379C42.6612 35.4291 42.3391 35.4291 42.0229 35.379L41.6318 37.8482C42.2071 37.9394 42.7932 37.9394 43.3685 37.8482L42.9774 35.379ZM47.0903 22.9097C48.2504 24.0698 49.0482 24.87 49.5934 25.5477C50.1238 26.2071 50.318 26.6361 50.3793 27.0227L52.8485 26.6316C52.6911 25.638 52.2058 24.8067 51.5413 23.9806C50.8915 23.1729 49.9788 22.2626 48.8581 21.142L47.0903 22.9097ZM48.8581 33.8579C49.9788 32.7372 50.8915 31.8269 51.5413 31.0192C52.2058 30.1932 52.6911 29.3619 52.8485 28.3683L50.3793 27.9772C50.318 28.3638 50.1238 28.7928 49.5934 29.4521C49.0482 30.1298 48.2504 30.9301 47.0903 32.0901L48.8581 33.8579ZM50.3793 27.0227C50.4293 27.3389 50.4293 27.661 50.3793 27.9772L52.8485 28.3683C52.9396 27.7929 52.9396 27.2069 52.8485 26.6316L50.3793 27.0227ZM48.8581 21.142C47.7374 20.0213 46.8272 19.1086 46.0194 18.4588C45.1934 17.7942 44.3621 17.309 43.3685 17.1516L42.9774 19.6208C43.364 19.682 43.793 19.8762 44.4524 20.4067C45.1301 20.9519 45.9303 21.7497 47.0903 22.9097L48.8581 21.142ZM37.91 22.9097C39.07 21.7497 39.8703 20.9519 40.5479 20.4067C41.2073 19.8762 41.6363 19.682 42.0229 19.6208L41.6318 17.1516C40.6382 17.309 39.8069 17.7942 38.9809 18.4588C38.1732 19.1086 37.2629 20.0213 36.1422 21.142L37.91 22.9097ZM43.3685 17.1516C42.7932 17.0605 42.2071 17.0605 41.6318 17.1516L42.0229 19.6208C42.3391 19.5707 42.6612 19.5707 42.9774 19.6208L43.3685 17.1516ZM35.1312 29.0881C34.8064 28.6273 34.6705 28.2892 34.6211 27.9772L32.1518 28.3683C32.2779 29.1644 32.6146 29.8571 33.0878 30.5284L35.1312 29.0881ZM39.4716 36.9123C40.143 37.3855 40.8356 37.7221 41.6318 37.8482L42.0229 35.379C41.7109 35.3296 41.3727 35.1937 40.912 34.8689L39.4716 36.9123Z" fill="#1C1D21"/>
</svg>
