<svg width="70" height="70" viewBox="0 0 70 70" fill="none" xmlns="http://www.w3.org/2000/svg">
<path d="M0 24C0 12.6863 0 7.02944 3.51472 3.51472C7.02944 0 12.6863 0 24 0H46C57.3137 0 62.9706 0 66.4853 3.51472C70 7.02944 70 12.6863 70 24V46C70 57.3137 70 62.9706 66.4853 66.4853C62.9706 70 57.3137 70 46 70H24C12.6863 70 7.02944 70 3.51472 66.4853C0 62.9706 0 57.3137 0 46V24Z" fill="#E0C4F8"/>
<path d="M51.6666 34.9998C51.6666 25.7951 44.2047 18.3332 34.9999 18.3332C25.7952 18.3332 18.3333 25.7951 18.3333 34.9998C18.3333 44.2046 25.7952 51.6665 34.9999 51.6665C44.2047 51.6665 51.6666 44.2046 51.6666 34.9998Z" stroke="#1C1D21" stroke-width="2.5"/>
<path d="M48.3332 24.4982C46.7753 24.6105 44.7799 25.2136 43.3963 27.0045C40.8973 30.2393 38.3982 30.5092 36.7322 29.4309C34.2331 27.8136 36.3332 25.1939 33.4001 23.7702C31.4884 22.8423 31.2218 20.3173 32.2858 18.3333" stroke="#1C1D21" stroke-width="2.5" stroke-linejoin="round"/>
<path d="M18.3333 33.3333C19.6041 34.4368 21.384 35.4469 23.4812 35.4469C27.814 35.4469 28.6805 36.2748 28.6805 39.5862C28.6805 42.8977 28.6805 42.8977 29.5471 45.3813C30.1108 46.9968 30.3078 48.6123 29.1843 49.9999" stroke="#1C1D21" stroke-width="2.5" stroke-linejoin="round"/>
<path d="M51.6666 37.4204C50.1881 36.5683 48.3333 36.2178 46.4556 37.5673C42.8627 40.1496 40.3855 38.0099 39.2698 40.1481C37.6274 43.2957 43.4928 44.285 38.3333 51.6665" stroke="#1C1D21" stroke-width="2.5" stroke-linejoin="round"/>
</svg>
