<svg width="18" height="18" viewBox="0 0 18 18" fill="none" xmlns="http://www.w3.org/2000/svg">
<path d="M4.94922 8.94224C8.7537 1.85152 13.491 1.76976 15.384 2.61521C16.2295 4.50828 16.1477 9.24555 9.05701 13.05C8.98349 12.6273 8.57454 11.5199 7.52692 10.4723C6.47931 9.42471 5.37195 9.01576 4.94922 8.94224Z" stroke="#C9CACD" stroke-width="1.5" stroke-linecap="round" stroke-linejoin="round"/>
<path d="M10.0117 12.7125C11.3906 13.3875 11.5378 14.5979 11.7288 15.75C11.7288 15.75 14.6168 13.6151 12.7695 10.6875" stroke="#C9CACD" stroke-width="1.5" stroke-linecap="round" stroke-linejoin="round"/>
<path d="M5.28747 8.04509C4.61247 6.66621 3.40211 6.51899 2.25 6.32797C2.25 6.32797 4.38488 3.43999 7.31248 5.28732" stroke="#C9CACD" stroke-width="1.5" stroke-linecap="round" stroke-linejoin="round"/>
<path d="M4.51356 11.1835C4.12969 11.5674 3.4771 12.6806 3.93775 14.0626C5.3197 14.5232 6.43294 13.8706 6.81682 13.4868" stroke="#C9CACD" stroke-width="1.5" stroke-linecap="round" stroke-linejoin="round"/>
<path d="M12.9766 6.33765C12.9766 5.61277 12.3889 5.02515 11.6641 5.02515C10.9392 5.02515 10.3516 5.61277 10.3516 6.33765C10.3516 7.06252 10.9392 7.65015 11.6641 7.65015C12.3889 7.65015 12.9766 7.06252 12.9766 6.33765Z" stroke="#C9CACD" stroke-width="1.5"/>
</svg>
