<svg width="18" height="18" viewBox="0 0 18 18" fill="none" xmlns="http://www.w3.org/2000/svg">
<path d="M4.94995 8.94224C8.75443 1.85152 13.4917 1.76976 15.3848 2.61521C16.2302 4.50828 16.1485 9.24555 9.05774 13.05C8.98422 12.6273 8.57527 11.5199 7.52765 10.4723C6.48004 9.42471 5.37268 9.01576 4.94995 8.94224Z" stroke="#1C1D21" stroke-width="1.5" stroke-linecap="round" stroke-linejoin="round"/>
<path d="M10.0125 12.7125C11.3913 13.3875 11.5385 14.5979 11.7296 15.75C11.7296 15.75 14.6175 13.6151 12.7702 10.6875" stroke="#1C1D21" stroke-width="1.5" stroke-linecap="round" stroke-linejoin="round"/>
<path d="M5.28747 8.04509C4.61247 6.66621 3.40211 6.51899 2.25 6.32797C2.25 6.32797 4.38488 3.43999 7.31248 5.28732" stroke="#1C1D21" stroke-width="1.5" stroke-linecap="round" stroke-linejoin="round"/>
<path d="M4.51356 11.1835C4.12969 11.5674 3.4771 12.6806 3.93775 14.0626C5.3197 14.5232 6.43294 13.8706 6.81682 13.4868" stroke="#1C1D21" stroke-width="1.5" stroke-linecap="round" stroke-linejoin="round"/>
<path d="M12.9756 6.33765C12.9756 5.61277 12.388 5.02515 11.6631 5.02515C10.9382 5.02515 10.3506 5.61277 10.3506 6.33765C10.3506 7.06252 10.9382 7.65015 11.6631 7.65015C12.388 7.65015 12.9756 7.06252 12.9756 6.33765Z" stroke="#1C1D21" stroke-width="1.5"/>
</svg>
