<svg width="21" height="20" viewBox="0 0 21 20" fill="none" xmlns="http://www.w3.org/2000/svg">
<path d="M6.71013 15.6843C7.08702 15.6843 7.44848 15.834 7.71498 16.1005C7.98148 16.367 8.1312 16.7284 8.1312 17.1053C8.1312 17.4822 7.98148 17.8437 7.71498 18.1102C7.44848 18.3767 7.08702 18.5264 6.71013 18.5264C6.33324 18.5264 5.97179 18.3767 5.70528 18.1102C5.43878 17.8437 5.28906 17.4822 5.28906 17.1053C5.28906 16.7284 5.43878 16.367 5.70528 16.1005C5.97179 15.834 6.33324 15.6843 6.71013 15.6843ZM15.2366 15.6843C15.6134 15.6843 15.9749 15.834 16.2414 16.1005C16.5079 16.367 16.6576 16.7284 16.6576 17.1053C16.6576 17.4822 16.5079 17.8437 16.2414 18.1102C15.9749 18.3767 15.6134 18.5264 15.2366 18.5264C14.8597 18.5264 14.4982 18.3767 14.2317 18.1102C13.9652 17.8437 13.8155 17.4822 13.8155 17.1053C13.8155 16.7284 13.9652 16.367 14.2317 16.1005C14.4982 15.834 14.8597 15.6843 15.2366 15.6843Z" stroke="#C9CACD" stroke-width="1.5"/>
<path d="M1.5 1.47357L1.74727 1.56073C2.98075 1.99368 3.5975 2.21063 3.94992 2.72696C4.30235 3.24328 4.30235 3.92823 4.30235 5.29909V7.87786C4.30235 10.6651 4.36203 11.584 5.18341 12.4499C6.00384 13.3158 7.32449 13.3158 9.96768 13.3158H10.9738M14.9907 13.3158C16.4695 13.3158 17.2095 13.3158 17.7324 12.8895C18.2544 12.4632 18.4041 11.7394 18.7025 10.2908L19.1762 7.99439C19.505 6.34595 19.6688 5.52267 19.2482 4.97604C18.8285 4.4294 17.3913 4.4294 15.795 4.4294H10.0492M4.30235 4.4294H6.2369" stroke="#C9CACD" stroke-width="1.5" stroke-linecap="round"/>
</svg>
