<svg width="21" height="20" viewBox="0 0 21 20" fill="none" xmlns="http://www.w3.org/2000/svg">
<path d="M2.17289 13.1743C2.35863 10.2634 2.90549 8.13325 3.36889 6.89592C3.60284 6.27125 4.10616 5.80607 4.75056 5.65018C8.33391 4.78327 12.6648 4.78327 16.2482 5.65018C16.8926 5.80607 17.3959 6.27125 17.6298 6.89592C18.0932 8.13325 18.6401 10.2634 18.8258 13.1743C18.937 14.9157 17.6783 15.8753 16.2851 16.5771C15.3977 17.0241 14.7153 15.7048 14.2622 14.6836C14.0147 14.1257 13.4716 13.7797 12.8561 13.7797H8.14265C7.5271 13.7797 6.984 14.1257 6.73648 14.6836C6.28343 15.7048 5.60102 17.0241 4.7136 16.5771C3.33447 15.8824 2.06088 14.9297 2.17289 13.1743Z" stroke="#C9CACD" stroke-width="1.5" stroke-linecap="round" stroke-linejoin="round"/>
<path d="M4.66602 3.74998L6.30172 3.33331M16.3327 3.74998L14.666 3.33331" stroke="#C9CACD" stroke-width="1.5" stroke-linecap="round" stroke-linejoin="round"/>
<path d="M8 10.8333L6.75 9.58331M6.75 9.58331L5.5 8.33331M6.75 9.58331L5.5 10.8333M6.75 9.58331L8 8.33331" stroke="#C9CACD" stroke-width="1.5" stroke-linecap="round"/>
<path d="M13.8221 8.33331H13.8296" stroke="#C9CACD" stroke-width="2" stroke-linecap="round" stroke-linejoin="round"/>
<path d="M15.4901 10.8333H15.4976" stroke="#C9CACD" stroke-width="2" stroke-linecap="round" stroke-linejoin="round"/>
</svg>
