<svg width="16" height="17" viewBox="0 0 16 17" fill="none" xmlns="http://www.w3.org/2000/svg">
<path d="M1.33398 12.5C1.33398 11.473 1.33398 10.9595 1.56514 10.5823C1.69448 10.3713 1.87194 10.1938 2.08301 10.0645C2.46021 9.83331 2.97369 9.83331 4.00065 9.83331C5.02761 9.83331 5.54109 9.83331 5.9183 10.0645C6.12936 10.1938 6.30682 10.3713 6.43616 10.5823C6.66732 10.9595 6.66732 11.473 6.66732 12.5C6.66732 13.5269 6.66732 14.0404 6.43616 14.4176C6.30682 14.6287 6.12936 14.8062 5.9183 14.9355C5.54109 15.1666 5.02761 15.1666 4.00065 15.1666C2.97369 15.1666 2.46021 15.1666 2.08301 14.9355C1.87194 14.8062 1.69448 14.6287 1.56514 14.4176C1.33398 14.0404 1.33398 13.5269 1.33398 12.5Z" stroke="#C9CACD" stroke-width="1.5"/>
<path d="M9.33398 12.5C9.33398 11.473 9.33398 10.9595 9.56514 10.5823C9.69448 10.3713 9.87194 10.1938 10.083 10.0645C10.4602 9.83331 10.9737 9.83331 12.0007 9.83331C13.0276 9.83331 13.5411 9.83331 13.9183 10.0645C14.1294 10.1938 14.3068 10.3713 14.4362 10.5823C14.6673 10.9595 14.6673 11.473 14.6673 12.5C14.6673 13.5269 14.6673 14.0404 14.4362 14.4176C14.3068 14.6287 14.1294 14.8062 13.9183 14.9355C13.5411 15.1666 13.0276 15.1666 12.0007 15.1666C10.9737 15.1666 10.4602 15.1666 10.083 14.9355C9.87194 14.8062 9.69448 14.6287 9.56514 14.4176C9.33398 14.0404 9.33398 13.5269 9.33398 12.5Z" stroke="#C9CACD" stroke-width="1.5"/>
<path d="M1.33398 4.49998C1.33398 3.47302 1.33398 2.95954 1.56514 2.58233C1.69448 2.37127 1.87194 2.19381 2.08301 2.06447C2.46021 1.83331 2.97369 1.83331 4.00065 1.83331C5.02761 1.83331 5.54109 1.83331 5.9183 2.06447C6.12936 2.19381 6.30682 2.37127 6.43616 2.58233C6.66732 2.95954 6.66732 3.47302 6.66732 4.49998C6.66732 5.52694 6.66732 6.04042 6.43616 6.41762C6.30682 6.62869 6.12936 6.80615 5.9183 6.93549C5.54109 7.16665 5.02761 7.16665 4.00065 7.16665C2.97369 7.16665 2.46021 7.16665 2.08301 6.93549C1.87194 6.80615 1.69448 6.62869 1.56514 6.41762C1.33398 6.04042 1.33398 5.52694 1.33398 4.49998Z" stroke="#C9CACD" stroke-width="1.5"/>
<path d="M9.33398 4.49998C9.33398 3.47302 9.33398 2.95954 9.56514 2.58233C9.69448 2.37127 9.87194 2.19381 10.083 2.06447C10.4602 1.83331 10.9737 1.83331 12.0007 1.83331C13.0276 1.83331 13.5411 1.83331 13.9183 2.06447C14.1294 2.19381 14.3068 2.37127 14.4362 2.58233C14.6673 2.95954 14.6673 3.47302 14.6673 4.49998C14.6673 5.52694 14.6673 6.04042 14.4362 6.41762C14.3068 6.62869 14.1294 6.80615 13.9183 6.93549C13.5411 7.16665 13.0276 7.16665 12.0007 7.16665C10.9737 7.16665 10.4602 7.16665 10.083 6.93549C9.87194 6.80615 9.69448 6.62869 9.56514 6.41762C9.33398 6.04042 9.33398 5.52694 9.33398 4.49998Z" stroke="#C9CACD" stroke-width="1.5"/>
</svg>
