<svg width="16" height="16" viewBox="0 0 16 16" fill="none" xmlns="http://www.w3.org/2000/svg">
<path d="M12.5313 2.66669H3.46997C3.34181 2.66658 3.21633 2.70341 3.10857 2.77278C3.0008 2.84215 2.91531 2.94111 2.86234 3.05782C2.80937 3.17452 2.79116 3.30402 2.8099 3.43081C2.82863 3.55759 2.88351 3.67629 2.96797 3.77269L6.50264 7.81135C6.60895 7.93301 6.66746 8.08913 6.66731 8.25069V11.5C6.66731 11.5518 6.67935 11.6028 6.7025 11.6491C6.72564 11.6954 6.75924 11.7356 6.80064 11.7667L8.80064 13.2667C8.85016 13.3038 8.90905 13.3264 8.9707 13.332C9.03236 13.3376 9.09434 13.3258 9.14971 13.2982C9.20508 13.2705 9.25164 13.2279 9.28419 13.1753C9.31673 13.1226 9.33397 13.0619 9.33397 13V8.25069C9.33381 8.08913 9.39233 7.93301 9.49864 7.81135L13.0333 3.77202C13.4106 3.34135 13.104 2.66669 12.5313 2.66669Z" stroke="#C9CACD" stroke-width="1.5" stroke-linecap="round"/>
</svg>
