<svg width="16" height="16" viewBox="0 0 16 16" fill="none" xmlns="http://www.w3.org/2000/svg">
<g clip-path="url(#clip0_403_40761)">
<path d="M6.36328 9.63764L9.63862 6.3623" stroke="#C9CACD" stroke-width="1.5" stroke-linecap="round"/>
<path d="M1.35516 11.2693L0.614398 11.3866H0.614398L1.35516 11.2693ZM1.35516 10.731L0.614398 10.6137L1.35516 10.731ZM5.26977 14.6456L5.3871 15.3864H5.3871L5.26977 14.6456ZM4.73153 14.6456L4.84886 13.9049H4.84886L4.73153 14.6456ZM8.64614 11.2693L9.3869 11.3866V11.3866L8.64614 11.2693ZM8.64614 10.731L9.3869 10.6137L9.3869 10.6137L8.64614 10.731ZM4.73153 7.35468L4.84886 8.09544L4.84886 8.09544L4.73153 7.35468ZM5.26977 7.35468L5.3871 6.61391L5.38709 6.61391L5.26977 7.35468ZM5.4919 8.25692C5.83047 8.49556 6.29838 8.41455 6.53702 8.07599C6.77566 7.73743 6.69465 7.26951 6.35609 7.03088L5.4919 8.25692ZM8.96994 9.64472C8.7313 9.30616 8.26338 9.22516 7.92482 9.46379C7.58626 9.70243 7.50526 10.1703 7.74389 10.5089L8.96994 9.64472ZM3.34136 12.6595C2.8734 12.1915 2.56577 11.8824 2.35815 11.6243C2.15938 11.3773 2.11081 11.2459 2.09593 11.152L0.614398 11.3866C0.686962 11.8448 0.910179 12.2175 1.18941 12.5646C1.4598 12.9007 1.83637 13.2758 2.2807 13.7201L3.34136 12.6595ZM2.28069 8.28021C1.83637 8.72453 1.4598 9.09965 1.18941 9.43574C0.910179 9.78283 0.686961 10.1556 0.614398 10.6137L2.09593 10.8484C2.11081 10.7544 2.15938 10.6231 2.35815 10.376C2.56577 10.1179 2.8734 9.80882 3.34136 9.34087L2.28069 8.28021ZM2.09593 11.152C2.08 11.0514 2.08 10.9489 2.09593 10.8484L0.614398 10.6137C0.573846 10.8698 0.573846 11.1306 0.614398 11.3866L2.09593 11.152ZM6.65995 12.6595C6.19199 13.1274 5.8829 13.435 5.62483 13.6427C5.37776 13.8414 5.24639 13.89 5.15244 13.9049L5.3871 15.3864C5.84524 15.3139 6.21798 15.0906 6.56507 14.8114C6.90117 14.541 7.27628 14.1644 7.72061 13.7201L6.65995 12.6595ZM2.2807 13.7201C2.72502 14.1644 3.10014 14.541 3.43623 14.8114C3.78332 15.0906 4.15606 15.3139 4.61421 15.3864L4.84886 13.9049C4.75491 13.89 4.62354 13.8414 4.37647 13.6427C4.1184 13.435 3.80931 13.1274 3.34136 12.6595L2.2807 13.7201ZM5.15245 13.9049C5.05188 13.9208 4.94943 13.9208 4.84886 13.9049L4.61421 15.3864C4.87024 15.427 5.13106 15.427 5.3871 15.3864L5.15245 13.9049ZM7.72061 13.7201C8.16493 13.2758 8.54151 12.9007 8.81189 12.5646C9.09112 12.2175 9.31434 11.8448 9.3869 11.3866L7.90537 11.152C7.89049 11.2459 7.84192 11.3773 7.64315 11.6243C7.43554 11.8824 7.1279 12.1915 6.65995 12.6595L7.72061 13.7201ZM7.90537 10.8484C7.9213 10.9489 7.9213 11.0514 7.90537 11.152L9.3869 11.3866C9.42746 11.1306 9.42745 10.8698 9.3869 10.6137L7.90537 10.8484ZM3.34136 9.34087C3.80931 8.87291 4.1184 8.56528 4.37647 8.35766C4.62354 8.15889 4.75491 8.11032 4.84886 8.09544L4.61421 6.61391C4.15606 6.68647 3.78332 6.90969 3.43623 7.18892C3.10014 7.45931 2.72502 7.83588 2.28069 8.28021L3.34136 9.34087ZM5.38709 6.61391C5.13106 6.57336 4.87024 6.57336 4.61421 6.61391L4.84886 8.09544C4.94943 8.07951 5.05188 8.07951 5.15245 8.09544L5.38709 6.61391ZM6.35609 7.03088C6.06651 6.82676 5.75399 6.67202 5.3871 6.61391L5.15244 8.09544C5.22882 8.10754 5.32864 8.14184 5.4919 8.25692L6.35609 7.03088ZM7.74389 10.5089C7.85897 10.6722 7.89328 10.772 7.90537 10.8484L9.3869 10.6137C9.32879 10.2468 9.17405 9.93431 8.96994 9.64472L7.74389 10.5089Z" fill="#C9CACD"/>
<path d="M7.35516 4.73104L6.6144 4.61372V4.61372L7.35516 4.73104ZM7.35516 5.26928L6.6144 5.38661L7.35516 5.26928ZM11.2698 8.64565L11.3871 9.38642H11.3871L11.2698 8.64565ZM10.7315 8.64565L10.8489 7.90488L10.8489 7.90488L10.7315 8.64565ZM14.6461 4.73104L15.3869 4.61372V4.61372L14.6461 4.73104ZM14.6461 5.26928L15.3869 5.38661V5.38661L14.6461 5.26928ZM11.2698 1.35468L11.3871 0.61391L11.3871 0.61391L11.2698 1.35468ZM10.7315 1.35468L10.8489 2.09544L10.8489 2.09544L10.7315 1.35468ZM7.03136 6.3556C7.27 6.69417 7.73792 6.77517 8.07648 6.53653C8.41504 6.29789 8.49605 5.82998 8.25741 5.49142L7.03136 6.3556ZM10.5094 7.74341C10.1708 7.50477 9.70292 7.58577 9.46428 7.92434C9.22564 8.2629 9.30665 8.73081 9.64521 8.96945L10.5094 7.74341ZM8.2807 2.28021C7.83637 2.72453 7.4598 3.09965 7.18941 3.43574C6.91018 3.78283 6.68696 4.15557 6.6144 4.61372L8.09593 4.84837C8.11081 4.75443 8.15938 4.62305 8.35815 4.37598C8.56577 4.11791 8.8734 3.80882 9.34136 3.34087L8.2807 2.28021ZM8.09593 5.15196C8.08 5.05139 8.08 4.94894 8.09593 4.84837L6.6144 4.61372C6.57385 4.86975 6.57385 5.13057 6.6144 5.38661L8.09593 5.15196ZM12.6599 6.65946C12.192 7.12741 11.8829 7.43505 11.6248 7.64267C11.3778 7.84143 11.2464 7.89001 11.1524 7.90488L11.3871 9.38642C11.8452 9.31385 12.218 9.09064 12.5651 8.8114C12.9012 8.54102 13.2763 8.16445 13.7206 7.72012L12.6599 6.65946ZM11.1524 7.90488C11.0519 7.92081 10.9494 7.92081 10.8489 7.90488L10.6142 9.38642C10.8702 9.42697 11.1311 9.42697 11.3871 9.38642L11.1524 7.90488ZM12.6599 3.34087C13.1279 3.80882 13.4355 4.11791 13.6432 4.37598C13.8419 4.62305 13.8905 4.75443 13.9054 4.84837L15.3869 4.61372C15.3143 4.15557 15.0911 3.78283 14.8119 3.43574C14.5415 3.09965 14.1649 2.72453 13.7206 2.28021L12.6599 3.34087ZM13.7206 7.72012C14.1649 7.27579 14.5415 6.90068 14.8119 6.56459C15.0911 6.21749 15.3143 5.84475 15.3869 5.38661L13.9054 5.15196C13.8905 5.2459 13.8419 5.37727 13.6432 5.62434C13.4355 5.88241 13.1279 6.19151 12.6599 6.65946L13.7206 7.72012ZM13.9054 4.84837C13.9213 4.94894 13.9213 5.05139 13.9054 5.15196L15.3869 5.38661C15.4275 5.13057 15.4275 4.86975 15.3869 4.61372L13.9054 4.84837ZM13.7206 2.28021C13.2763 1.83588 12.9012 1.45931 12.5651 1.18893C12.218 0.909691 11.8452 0.686474 11.3871 0.61391L11.1524 2.09544C11.2464 2.11032 11.3778 2.15889 11.6248 2.35766C11.8829 2.56528 12.192 2.87291 12.6599 3.34087L13.7206 2.28021ZM9.34136 3.34087C9.80931 2.87291 10.1184 2.56528 10.3765 2.35766C10.6235 2.15889 10.7549 2.11032 10.8489 2.09544L10.6142 0.61391C10.1561 0.686473 9.78332 0.909691 9.43623 1.18892C9.10014 1.45931 8.72502 1.83588 8.2807 2.28021L9.34136 3.34087ZM11.3871 0.61391C11.1311 0.573359 10.8702 0.573358 10.6142 0.61391L10.8489 2.09544C10.9494 2.07951 11.0519 2.07951 11.1524 2.09544L11.3871 0.61391ZM8.25741 5.49142C8.14233 5.32815 8.10803 5.22833 8.09593 5.15196L6.6144 5.38661C6.67251 5.7535 6.82725 6.06602 7.03136 6.3556L8.25741 5.49142ZM9.64521 8.96945C9.9348 9.17356 10.2473 9.32831 10.6142 9.38642L10.8489 7.90488C10.7725 7.89279 10.6727 7.85848 10.5094 7.74341L9.64521 8.96945Z" fill="#C9CACD"/>
</g>
<defs>
<clipPath id="clip0_403_40761">
<rect width="16" height="16" fill="white"/>
</clipPath>
</defs>
</svg>
