<svg width="16" height="18" viewBox="0 0 16 18" fill="none" xmlns="http://www.w3.org/2000/svg">
<g clip-path="url(#clip0_4209_9825)">
<path d="M13.9825 3.53461C13.9699 3.44461 13.89 3.3948 13.824 3.38932C13.3371 3.35321 12.8502 3.3174 12.3633 3.28187C12.3633 3.28187 11.3946 2.33286 11.2883 2.22782C11.1819 2.12284 10.9741 2.15477 10.8935 2.1782C10.8816 2.18165 10.6818 2.24249 10.3513 2.34341C10.0278 1.42454 9.45666 0.580145 8.45196 0.580145C8.42423 0.580145 8.39568 0.581254 8.36713 0.582857C8.08139 0.209974 7.72744 0.0479736 7.42172 0.0479736C5.0813 0.0479736 3.96317 2.93506 3.61259 4.40219C2.70316 4.68026 2.0571 4.87795 1.97458 4.90353C1.46695 5.06067 1.4509 5.07645 1.38425 5.54845C1.33408 5.9058 0.00585938 16.0418 0.00585938 16.0418L10.3557 17.9554L15.9635 16.7583C15.9635 16.7583 13.9949 3.62461 13.9825 3.53461ZM9.77931 2.51798L8.90355 2.78545C8.90386 2.72455 8.90418 2.66463 8.90418 2.5991C8.90418 2.02804 8.82384 1.56823 8.69497 1.20373C9.21265 1.26784 9.55742 1.84908 9.77931 2.51798ZM8.05278 1.31697C8.19671 1.67284 8.29029 2.18356 8.29029 2.87274C8.29029 2.908 8.28998 2.94024 8.28967 2.97285C7.72013 3.14693 7.10125 3.33593 6.48099 3.52555C6.82926 2.19922 7.48206 1.55862 8.05278 1.31697ZM7.35744 0.667433C7.45845 0.667433 7.56021 0.701275 7.6576 0.767419C6.90753 1.11571 6.10355 1.9929 5.76403 3.74463L4.33436 4.18156C4.73204 2.84543 5.67639 0.667433 7.35744 0.667433Z" fill="#95BF46"/>
<path d="M13.8253 3.3894C13.3384 3.35329 12.8515 3.31748 12.3646 3.28195C12.3646 3.28195 11.3958 2.33294 11.2895 2.2279C11.2497 2.18882 11.1961 2.16879 11.14 2.16016L10.3574 17.9553L15.9648 16.7583C15.9648 16.7583 13.9961 3.62469 13.9838 3.53469C13.9712 3.44469 13.8913 3.39488 13.8253 3.3894Z" fill="#5E8E3E"/>
<path d="M8.45149 6.44698L7.76002 8.47666C7.76002 8.47666 7.15419 8.15759 6.41156 8.15759C5.32284 8.15759 5.26806 8.83179 5.26806 9.00168C5.26806 9.92868 7.71685 10.2839 7.71685 12.4552C7.71685 14.1636 6.61883 15.2636 5.13831 15.2636C3.36168 15.2636 2.45312 14.1725 2.45312 14.1725L2.92883 12.6215C2.92883 12.6215 3.86275 13.4127 4.6508 13.4127C5.16573 13.4127 5.37519 13.0127 5.37519 12.7203C5.37519 11.5111 3.36618 11.4572 3.36618 9.47024C3.36618 7.7979 4.58258 6.17957 7.038 6.17957C7.9841 6.17957 8.45149 6.44698 8.45149 6.44698Z" fill="#1C1D21"/>
</g>
<defs>
<clipPath id="clip0_4209_9825">
<rect width="16" height="18" fill="white"/>
</clipPath>
</defs>
</svg>
