<svg width="30" height="30" viewBox="0 0 30 30" fill="none" xmlns="http://www.w3.org/2000/svg">
<path d="M0 15C0 8.42504 0 5.13755 1.81592 2.92485C2.14835 2.51978 2.51978 2.14835 2.92485 1.81592C5.13755 0 8.42504 0 15 0C21.575 0 24.8624 0 27.0751 1.81592C27.4802 2.14835 27.8516 2.51978 28.1841 2.92485C30 5.13755 30 8.42504 30 15C30 21.575 30 24.8624 28.1841 27.0751C27.8516 27.4802 27.4802 27.8516 27.0751 28.1841C24.8624 30 21.575 30 15 30C8.42504 30 5.13755 30 2.92485 28.1841C2.51978 27.8516 2.14835 27.4802 1.81592 27.0751C0 24.8624 0 21.575 0 15Z" fill="#FF7BE7"/>
<path d="M11.7867 18.2142H9.64258V12.8583H11.7859V18.215L11.7867 18.2142ZM16.0726 18.2142H13.9292V7.5H16.0726V18.2142ZM20.3576 18.2142H18.2151V10.7142H20.3576V18.2142Z" fill="#1C1D21"/>
<path fill-rule="evenodd" clip-rule="evenodd" d="M22.5 22.2619H7.5V20.5952H22.5V22.2619Z" fill="#1C1D21"/>
</svg>
