<svg width="46" height="46" viewBox="0 0 46 46" fill="none" xmlns="http://www.w3.org/2000/svg">
<path d="M0 23C0 12.6557 0 7.48352 2.97792 4.08785C3.32328 3.69405 3.69405 3.32328 4.08785 2.97792C7.48352 0 12.6557 0 23 0C33.3443 0 38.5165 0 41.9122 2.97792C42.306 3.32328 42.6767 3.69405 43.0221 4.08785C46 7.48352 46 12.6557 46 23C46 33.3443 46 38.5165 43.0221 41.9122C42.6767 42.306 42.306 42.6767 41.9122 43.0221C38.5165 46 33.3443 46 23 46C12.6557 46 7.48352 46 4.08785 43.0221C3.69405 42.6767 3.32328 42.306 2.97792 41.9122C0 38.5165 0 33.3443 0 23Z" fill="white"/>
<path d="M29.5159 14.245C28.5477 13.1393 28.0141 11.7196 28.0142 10.25H23.6367V27.8167C23.6037 28.7675 23.2026 29.6684 22.518 30.3291C21.8335 30.9899 20.919 31.3589 19.9676 31.3583C17.9559 31.3583 16.2842 29.715 16.2842 27.675C16.2842 25.2383 18.6359 23.4108 21.0584 24.1617V19.685C16.1709 19.0333 11.8926 22.83 11.8926 27.675C11.8926 32.3925 15.8026 35.75 19.9534 35.75C24.4017 35.75 28.0142 32.1375 28.0142 27.675V18.7642C29.7893 20.039 31.9205 20.7229 34.1059 20.7192V16.3417C34.1059 16.3417 31.4426 16.4692 29.5159 14.245Z" fill="#1C1D21"/>
</svg>
