<svg width="14" height="14" viewBox="0 0 14 14" fill="none" xmlns="http://www.w3.org/2000/svg">
<g clip-path="url(#clip0_4238_7720)">
<path d="M5.56641 8.43287L8.43232 5.56696" stroke="white" stroke-width="1.5" stroke-linecap="round"/>
<path d="M1.18455 9.86044L0.443782 9.97776L0.443782 9.97776L1.18455 9.86044ZM1.18455 9.38948L0.443782 9.27215V9.27215L1.18455 9.38948ZM4.60983 12.8148L4.72715 13.5555H4.72715L4.60983 12.8148ZM4.13887 12.8148L4.2562 12.074H4.2562L4.13887 12.8148ZM7.56415 9.86044L8.30492 9.97776V9.97776L7.56415 9.86044ZM7.56415 9.38948L8.30492 9.27216L8.30492 9.27215L7.56415 9.38948ZM4.13887 6.43516L4.2562 7.17593L4.2562 7.17592L4.13887 6.43516ZM4.60983 6.43516L4.72716 5.69439L4.72715 5.69439L4.60983 6.43516ZM4.75018 7.30125C5.08875 7.53989 5.55666 7.45888 5.7953 7.12032C6.03394 6.78176 5.95293 6.31384 5.61437 6.07521L4.75018 7.30125ZM7.9241 8.38494C7.68546 8.04638 7.21755 7.96537 6.87899 8.20401C6.54042 8.44265 6.45942 8.91056 6.69806 9.24912L7.9241 8.38494ZM2.98876 11.0106C2.57782 10.5996 2.31295 10.3333 2.13521 10.1124C1.96631 9.90242 1.93473 9.80255 1.92531 9.74311L0.443782 9.97776C0.51088 10.4014 0.717111 10.7426 0.96647 11.0526C1.20698 11.3516 1.54079 11.6839 1.9281 12.0712L2.98876 11.0106ZM1.9281 7.17871C1.54079 7.56602 1.20698 7.89837 0.96647 8.19732C0.717111 8.50728 0.51088 8.84851 0.443782 9.27215L1.92531 9.50681C1.93473 9.44737 1.96631 9.3475 2.13521 9.13757C2.31295 8.91663 2.57782 8.6503 2.98876 8.23937L1.9281 7.17871ZM1.92531 9.74311C1.91292 9.66483 1.91292 9.58509 1.92531 9.50681L0.443782 9.27215C0.40676 9.5059 0.40676 9.74402 0.443782 9.97776L1.92531 9.74311ZM5.75994 11.0106C5.34901 11.4215 5.08268 11.6864 4.86174 11.8641C4.65181 12.033 4.55194 12.0646 4.4925 12.074L4.72715 13.5555C5.15079 13.4884 5.49203 13.2822 5.80198 13.0328C6.10094 12.7923 6.43329 12.4585 6.8206 12.0712L5.75994 11.0106ZM1.9281 12.0712C2.31541 12.4585 2.64776 12.7923 2.94671 13.0328C3.25667 13.2822 3.5979 13.4884 4.02154 13.5555L4.2562 12.074C4.19676 12.0646 4.09689 12.033 3.88696 11.8641C3.66602 11.6864 3.39969 11.4215 2.98876 11.0106L1.9281 12.0712ZM4.4925 12.074C4.41422 12.0864 4.33448 12.0864 4.2562 12.074L4.02154 13.5555C4.25529 13.5925 4.49341 13.5925 4.72715 13.5555L4.4925 12.074ZM6.8206 12.0712C7.20791 11.6839 7.54172 11.3516 7.78223 11.0526C8.03159 10.7426 8.23782 10.4014 8.30492 9.97776L6.82338 9.74311C6.81397 9.80255 6.78238 9.90242 6.61349 10.1124C6.43575 10.3333 6.17088 10.5996 5.75994 11.0106L6.8206 12.0712ZM6.82338 9.5068C6.83578 9.58509 6.83578 9.66483 6.82338 9.74311L8.30492 9.97776C8.34194 9.74402 8.34194 9.5059 8.30492 9.27216L6.82338 9.5068ZM2.98876 8.23937C3.39969 7.82843 3.66602 7.56356 3.88696 7.38582C4.09689 7.21692 4.19676 7.18534 4.2562 7.17593L4.02154 5.69439C3.5979 5.76149 3.25667 5.96772 2.94671 6.21708C2.64776 6.45759 2.31541 6.7914 1.9281 7.17871L2.98876 8.23937ZM4.72715 5.69439C4.49341 5.65737 4.25529 5.65737 4.02154 5.69439L4.2562 7.17592C4.33448 7.16353 4.41422 7.16353 4.4925 7.17592L4.72715 5.69439ZM5.61437 6.07521C5.35309 5.89104 5.06634 5.74811 4.72716 5.69439L4.4925 7.17592C4.54117 7.18363 4.61522 7.20612 4.75018 7.30125L5.61437 6.07521ZM6.69806 9.24912C6.79319 9.38409 6.81568 9.45814 6.82338 9.50681L8.30492 9.27215C8.25119 8.93296 8.10827 8.64622 7.9241 8.38494L6.69806 9.24912Z" fill="white"/>
<path d="M6.43455 4.13948L5.69378 4.02215L6.43455 4.13948ZM6.43455 4.61044L5.69378 4.72776L6.43455 4.61044ZM9.85983 7.56476L9.97715 8.30553L9.97715 8.30553L9.85983 7.56476ZM9.38887 7.56476L9.5062 6.82399H9.50619L9.38887 7.56476ZM12.8141 4.13948L13.5549 4.02216V4.02215L12.8141 4.13948ZM12.8141 4.61044L13.5549 4.72777V4.72776L12.8141 4.61044ZM9.85983 1.18516L9.97715 0.444392L9.97715 0.444392L9.85983 1.18516ZM9.38887 1.18516L9.5062 1.92592L9.5062 1.92592L9.38887 1.18516ZM6.0746 5.61498C6.31323 5.95354 6.78115 6.03455 7.11971 5.79591C7.45827 5.55727 7.53928 5.08936 7.30064 4.7508L6.0746 5.61498ZM9.24851 6.69867C8.90995 6.46003 8.44204 6.54104 8.2034 6.8796C7.96476 7.21816 8.04577 7.68607 8.38433 7.92471L9.24851 6.69867ZM7.1781 1.92871C6.79079 2.31602 6.45698 2.64837 6.21647 2.94732C5.96711 3.25728 5.76088 3.59851 5.69378 4.02215L7.17531 4.25681C7.18473 4.19737 7.21631 4.0975 7.38521 3.88757C7.56295 3.66663 7.82782 3.4003 8.23876 2.98937L7.1781 1.92871ZM7.17531 4.49311C7.16292 4.41483 7.16292 4.33509 7.17531 4.25681L5.69378 4.02215C5.65676 4.2559 5.65676 4.49402 5.69378 4.72776L7.17531 4.49311ZM11.0099 5.76055C10.599 6.17149 10.3327 6.43636 10.1117 6.6141C9.90181 6.78299 9.80194 6.81458 9.7425 6.82399L9.97715 8.30553C10.4008 8.23843 10.742 8.0322 11.052 7.78284C11.3509 7.54233 11.6833 7.20852 12.0706 6.82121L11.0099 5.76055ZM9.7425 6.82399C9.66422 6.83639 9.58448 6.83639 9.5062 6.82399L9.27154 8.30553C9.50529 8.34255 9.74341 8.34255 9.97715 8.30553L9.7425 6.82399ZM11.0099 2.98937C11.4209 3.4003 11.6858 3.66663 11.8635 3.88757C12.0324 4.0975 12.064 4.19737 12.0734 4.25681L13.5549 4.02215C13.4878 3.59851 13.2816 3.25728 13.0322 2.94732C12.7917 2.64837 12.4579 2.31602 12.0706 1.92871L11.0099 2.98937ZM12.0706 6.82121C12.4579 6.4339 12.7917 6.10155 13.0322 5.80259C13.2816 5.49264 13.4878 5.15141 13.5549 4.72777L12.0734 4.49311C12.064 4.55255 12.0324 4.65242 11.8635 4.86235C11.6858 5.08329 11.4209 5.34962 11.0099 5.76055L12.0706 6.82121ZM12.0734 4.2568C12.0858 4.33509 12.0858 4.41483 12.0734 4.49311L13.5549 4.72776C13.5919 4.49402 13.5919 4.2559 13.5549 4.02216L12.0734 4.2568ZM12.0706 1.92871C11.6833 1.5414 11.3509 1.20759 11.052 0.96708C10.742 0.717722 10.4008 0.511491 9.97715 0.444392L9.7425 1.92592C9.80194 1.93534 9.90181 1.96692 10.1117 2.13582C10.3327 2.31356 10.599 2.57843 11.0099 2.98937L12.0706 1.92871ZM8.23876 2.98937C8.64969 2.57843 8.91602 2.31356 9.13696 2.13582C9.34689 1.96692 9.44676 1.93534 9.5062 1.92592L9.27154 0.444392C8.8479 0.51149 8.50667 0.717721 8.19671 0.96708C7.89776 1.20759 7.56541 1.5414 7.1781 1.92871L8.23876 2.98937ZM9.97715 0.444392C9.74341 0.407371 9.50529 0.40737 9.27154 0.444392L9.5062 1.92592C9.58447 1.91353 9.66422 1.91353 9.7425 1.92593L9.97715 0.444392ZM7.30064 4.7508C7.20551 4.61583 7.18302 4.54178 7.17531 4.49311L5.69378 4.72776C5.7475 5.06695 5.89043 5.3537 6.0746 5.61498L7.30064 4.7508ZM8.38433 7.92471C8.64561 8.10888 8.93235 8.2518 9.27154 8.30553L9.50619 6.82399C9.45753 6.81629 9.38348 6.7938 9.24851 6.69867L8.38433 7.92471Z" fill="white"/>
</g>
<defs>
<clipPath id="clip0_4238_7720">
<rect width="14" height="14" fill="white"/>
</clipPath>
</defs>
</svg>
