<svg width="14" height="14" viewBox="0 0 14 14" fill="none" xmlns="http://www.w3.org/2000/svg">
<path d="M10.1946 5.25645C10.199 5.25643 10.2033 5.25642 10.2077 5.25642C11.6574 5.25642 12.8327 6.43383 12.8327 7.88624C12.8327 9.23988 11.8118 10.3546 10.4993 10.5M10.1946 5.25645C10.2033 5.1602 10.2077 5.06273 10.2077 4.96422C10.2077 3.18905 8.77126 1.75 6.99935 1.75C5.32124 1.75 3.94404 3.04072 3.80293 4.68528M10.1946 5.25645C10.135 5.91943 9.87438 6.52435 9.47434 7.00963M3.80293 4.68528C2.32334 4.82634 1.16602 6.07479 1.16602 7.59403C1.16602 9.00768 2.16804 10.1869 3.49935 10.4576M3.80293 4.68528C3.895 4.67651 3.98832 4.67202 4.08268 4.67202C4.73941 4.67202 5.34545 4.88947 5.83297 5.25642" stroke="#C9CACD" stroke-width="1.5" stroke-linecap="round" stroke-linejoin="round"/>
<path d="M6.99935 12.25L6.99935 7.58333M6.99935 12.25C6.59088 12.25 5.82774 11.0867 5.54102 10.7917M6.99935 12.25C7.40781 12.25 8.17096 11.0867 8.45768 10.7917" stroke="#C9CACD" stroke-width="1.5" stroke-linecap="round" stroke-linejoin="round"/>
</svg>
