<svg width="14" height="14" viewBox="0 0 14 14" fill="none" xmlns="http://www.w3.org/2000/svg">
<g clip-path="url(#clip0_4209_9845)">
<path d="M2.04297 6.41663V8.16663C2.04297 10.3664 2.04297 11.4665 2.72664 12.1496C3.4103 12.8327 4.50989 12.8333 6.70964 12.8333H7.29297C9.49272 12.8333 10.5929 12.8333 11.276 12.1496C11.9591 11.466 11.9596 10.3664 11.9596 8.16663V6.41663" stroke="#C9CACD" stroke-width="1.5"/>
<path d="M5.54143 1.16663H8.45809L8.83843 4.96821C8.86348 5.22474 8.83458 5.48367 8.75358 5.72837C8.67258 5.97306 8.54128 6.19809 8.3681 6.389C8.19493 6.57991 7.98373 6.73247 7.74807 6.83688C7.51241 6.94128 7.25751 6.99522 6.99976 6.99522C6.74201 6.99522 6.48711 6.94128 6.25145 6.83688C6.01579 6.73247 5.80459 6.57991 5.63142 6.389C5.45825 6.19809 5.32694 5.97306 5.24594 5.72837C5.16494 5.48367 5.13604 5.22474 5.16109 4.96821L5.54143 1.16663Z" stroke="#C9CACD" stroke-width="1.5"/>
<path d="M1.94284 3.12138C2.04667 2.60221 2.09859 2.34263 2.20417 2.13204C2.31419 1.91273 2.46909 1.71901 2.65882 1.56344C2.84856 1.40787 3.06889 1.29394 3.30551 1.22904C3.53301 1.16663 3.79784 1.16663 4.32751 1.16663H5.54201L5.11909 5.39288C5.09677 5.63474 5.02532 5.86951 4.90912 6.08281C4.79292 6.2961 4.63441 6.48344 4.44329 6.63335C4.25217 6.78325 4.03247 6.89258 3.79764 6.95463C3.5628 7.01668 3.31777 7.03015 3.07755 6.99421C2.83733 6.95828 2.60697 6.87369 2.40057 6.74564C2.19418 6.61758 2.01609 6.44875 1.87721 6.24947C1.73833 6.0502 1.64158 5.82468 1.59288 5.58671C1.54418 5.34875 1.54457 5.10335 1.59401 4.86554L1.94284 3.12138ZM12.0578 3.12138C11.954 2.60221 11.9021 2.34263 11.7965 2.13204C11.6865 1.91273 11.5316 1.71901 11.3419 1.56344C11.1521 1.40787 10.9318 1.29394 10.6952 1.22904C10.4677 1.16663 10.2028 1.16663 9.67317 1.16663H8.45867L8.88159 5.39288C8.90391 5.63474 8.97535 5.86951 9.09156 6.08281C9.20776 6.2961 9.36627 6.48344 9.55739 6.63335C9.7485 6.78325 9.9682 6.89258 10.203 6.95463C10.4379 7.01668 10.6829 7.03015 10.9231 6.99421C11.1633 6.95828 11.3937 6.87369 11.6001 6.74564C11.8065 6.61758 11.9846 6.44875 12.1235 6.24947C12.2624 6.0502 12.3591 5.82468 12.4078 5.58671C12.4565 5.34875 12.4561 5.10335 12.4067 4.86554L12.0578 3.12138Z" stroke="#C9CACD" stroke-width="1.5"/>
<path d="M5.54297 12.5416V10.7916C5.54297 10.2462 5.54297 9.97375 5.66022 9.77075C5.73701 9.63775 5.84746 9.5273 5.98047 9.4505C6.18347 9.33325 6.45589 9.33325 7.0013 9.33325C7.54672 9.33325 7.81914 9.33325 8.02214 9.4505C8.15514 9.5273 8.26559 9.63775 8.34239 9.77075C8.45964 9.97375 8.45964 10.2462 8.45964 10.7916V12.5416" stroke="#C9CACD" stroke-width="1.5" stroke-linecap="round"/>
</g>
<defs>
<clipPath id="clip0_4209_9845">
<rect width="14" height="14" fill="white"/>
</clipPath>
</defs>
</svg>
