<svg width="20" height="20" viewBox="0 0 20 20" fill="none" xmlns="http://www.w3.org/2000/svg">
<path d="M9.25019 2.5C6.20881 2.50548 4.61619 2.58014 3.59838 3.59795C2.5 4.69633 2.5 6.46415 2.5 9.99978C2.5 13.5354 2.5 15.3032 3.59838 16.4016C4.69676 17.5 6.46458 17.5 10.0002 17.5C13.5359 17.5 15.3037 17.5 16.4021 16.4016C17.4199 15.3838 17.4945 13.7912 17.5 10.7498" stroke="#C9CACD" stroke-width="1.5" stroke-linecap="round" stroke-linejoin="round"/>
<path d="M17.6468 3.44902C17.9408 3.15724 17.9426 2.68237 17.6508 2.38836C17.359 2.09436 16.8842 2.09254 16.5902 2.38432L17.6468 3.44902ZM11.9717 6.96765C11.6777 7.25942 11.6759 7.73429 11.9676 8.0283C12.2594 8.32231 12.7343 8.32412 13.0283 8.03235L11.9717 6.96765ZM16.6904 2.68922L16.5596 3.42773L16.6904 2.68922ZM13.3333 1.75C12.9191 1.75004 12.5833 2.08585 12.5833 2.50007C12.5834 2.91428 12.9192 3.25004 13.3334 3.25L13.3333 1.75ZM16.75 6.66667C16.75 7.08088 17.0858 7.41667 17.5 7.41667C17.9142 7.41667 18.25 7.08088 18.25 6.66667H16.75ZM17.3108 3.30979L18.0493 3.17913V3.17913L17.3108 3.30979ZM16.5902 2.38432L11.9717 6.96765L13.0283 8.03235L17.6468 3.44902L16.5902 2.38432ZM16.8212 1.95071C16.2273 1.84553 15.3383 1.79752 14.6359 1.774C14.2766 1.76197 13.9519 1.75598 13.717 1.75299C13.5995 1.75149 13.5041 1.75075 13.4379 1.75037C13.4048 1.75019 13.379 1.75009 13.3613 1.75005C13.3524 1.75002 13.3456 1.75001 13.3409 1.75001C13.3385 1.75 13.3367 1.75 13.3354 1.75C13.3348 1.75 13.3343 1.75 13.3339 1.75C13.3337 1.75 13.3336 1.75 13.3335 1.75C13.3334 1.75 13.3334 1.75 13.3334 1.75C13.3333 1.75 13.3333 1.75 13.3333 2.5C13.3334 3.25 13.3334 3.25 13.3334 3.25C13.3334 3.25 13.3334 3.25 13.3334 3.25C13.3334 3.25 13.3335 3.25 13.3336 3.25C13.3338 3.25 13.3341 3.25 13.3346 3.25C13.3355 3.25 13.337 3.25 13.339 3.25C13.343 3.25001 13.3492 3.25002 13.3573 3.25004C13.3736 3.25008 13.398 3.25017 13.4295 3.25035C13.4926 3.25071 13.5843 3.25142 13.6979 3.25287C13.9254 3.25576 14.2394 3.26156 14.5857 3.27316C15.2944 3.29689 16.084 3.34349 16.5596 3.42773L16.8212 1.95071ZM17.5 6.66667C18.25 6.66667 18.25 6.66663 18.25 6.66658C18.25 6.66655 18.25 6.6665 18.25 6.66644C18.25 6.66633 18.25 6.66619 18.25 6.66601C18.25 6.66565 18.25 6.66515 18.25 6.66451C18.25 6.66325 18.25 6.66143 18.25 6.65908C18.25 6.65438 18.25 6.64754 18.25 6.63868C18.2499 6.62096 18.2498 6.59511 18.2496 6.562C18.2492 6.49581 18.2485 6.4005 18.247 6.28296C18.244 6.04812 18.238 5.72341 18.2259 5.36417C18.2024 4.66182 18.1544 3.77295 18.0493 3.17913L16.5723 3.44045C16.6564 3.91615 16.703 4.70572 16.7268 5.41443C16.7384 5.76072 16.7442 6.07469 16.7471 6.30215C16.7486 6.41576 16.7493 6.50751 16.7496 6.57058C16.7498 6.60211 16.7499 6.62645 16.75 6.64275C16.75 6.6509 16.75 6.65704 16.75 6.66107C16.75 6.66308 16.75 6.66456 16.75 6.6655C16.75 6.66596 16.75 6.6663 16.75 6.66649C16.75 6.66659 16.75 6.66665 16.75 6.66668C16.75 6.6667 16.75 6.66669 16.75 6.6667C16.75 6.66669 16.75 6.66667 17.5 6.66667ZM16.5596 3.42773C16.5696 3.42949 16.5739 3.43168 16.5742 3.43184C16.5745 3.432 16.5729 3.43118 16.5708 3.42909C16.5687 3.427 16.5679 3.42546 16.5681 3.42579C16.5683 3.42614 16.5705 3.43046 16.5723 3.44045L18.0493 3.17913C17.9368 2.54299 17.4576 2.06341 16.8212 1.95071L16.5596 3.42773Z" fill="#C9CACD"/>
</svg>
