<svg width="16" height="16" viewBox="0 0 16 16" fill="none" xmlns="http://www.w3.org/2000/svg">
<g clip-path="url(#clip0_403_46559)">
<path d="M12 1.33325V2.66659M4 1.33325V2.66659" stroke="#C9CACD" stroke-width="1.5" stroke-linecap="round" stroke-linejoin="round"/>
<path d="M7.36602 14.6667C4.67901 14.6667 3.33551 14.6667 2.50076 13.7642C1.66602 12.8618 1.66602 11.4094 1.66602 8.5045V8.16216C1.66602 5.25729 1.66602 3.80486 2.50076 2.90243C3.33551 2 4.67901 2 7.36602 2H8.63268C11.3197 2 12.6632 2 13.4979 2.90243C14.317 3.7879 14.3324 5.20292 14.3327 8" stroke="#C9CACD" stroke-width="1.5" stroke-linecap="round" stroke-linejoin="round"/>
<path d="M2 5.33325H14" stroke="#C9CACD" stroke-width="1.5" stroke-linecap="round" stroke-linejoin="round"/>
<path d="M8.66602 11.9999H13.9993M11.3327 9.33325L11.3327 14.6666" stroke="#C9CACD" stroke-width="1.5" stroke-linecap="round" stroke-linejoin="round"/>
</g>
<defs>
<clipPath id="clip0_403_46559">
<rect width="16" height="16" fill="white"/>
</clipPath>
</defs>
</svg>
