<svg width="16" height="16" viewBox="0 0 16 16" fill="none" xmlns="http://www.w3.org/2000/svg">
<path fill-rule="evenodd" clip-rule="evenodd" d="M4.338 12.274V1.90997H5.338V12.273L7 10.749L7.676 11.486L4.838 14.089L2 11.486L2.676 10.749L4.338 12.274ZM10.628 1.99997H12.372L13.353 5.27097L13.373 5.32197C13.4745 5.5855 13.5712 5.85088 13.663 6.11797C13.743 6.34997 13.824 6.60497 13.886 6.83797C13.944 7.05397 14 7.30297 14 7.49997H13C13 7.44697 12.978 7.31297 12.92 7.09597C12.8592 6.87558 12.7915 6.65714 12.717 6.44097C12.6589 6.2715 12.5986 6.10282 12.536 5.93497H10.464C10.411 6.07697 10.347 6.25397 10.283 6.44097C10.207 6.66297 10.133 6.89397 10.08 7.09597C10.022 7.31297 10 7.44697 10 7.49997H9C9 7.30297 9.056 7.05397 9.114 6.83697C9.176 6.60497 9.257 6.34997 9.337 6.11797C9.42855 5.8508 9.52523 5.58542 9.627 5.32197L9.647 5.27197L10.628 1.99997ZM10.792 4.93497H12.208L11.628 2.99997H11.372L10.792 4.93497ZM9 8.99997H14V10.25L10.333 13H14V14H9V12.75L12.667 9.99997H9V8.99997Z" fill="#C9CACD"/>
</svg>
