<svg width="21" height="20" viewBox="0 0 21 20" fill="none" xmlns="http://www.w3.org/2000/svg">
<path d="M17.9993 6.25002L14.666 7.91669M14.666 7.91669L14.2493 8.12502L10.4993 10M14.666 7.91669V10.8334M14.666 7.91669L6.74935 3.75002M10.4993 10L2.99935 6.25002M10.4993 10V17.9167M13.481 2.81835L15.1477 3.69335C16.9402 4.63419 17.8368 5.10419 18.3352 5.95002C18.8327 6.79502 18.8327 7.84752 18.8327 9.95169V10.0492C18.8327 12.1525 18.8327 13.205 18.3352 14.05C17.8368 14.8959 16.9402 15.3667 15.1477 16.3075L13.481 17.1817C12.0177 17.9492 11.286 18.3334 10.4993 18.3334C9.71268 18.3334 8.98102 17.95 7.51768 17.1817L5.85102 16.3067C4.05852 15.3659 3.16185 14.8959 2.66352 14.05C2.16602 13.205 2.16602 12.1525 2.16602 10.05V9.95252C2.16602 7.84835 2.16602 6.79585 2.66352 5.95085C3.16185 5.10502 4.05852 4.63419 5.85102 3.69419L7.51768 2.81919C8.98102 2.05085 9.71268 1.66669 10.4993 1.66669C11.286 1.66669 12.0177 2.05002 13.481 2.81835Z" stroke="#C9CACD" stroke-width="1.5" stroke-linecap="round"/>
</svg>
