<svg width="30" height="30" viewBox="0 0 30 30" fill="none" xmlns="http://www.w3.org/2000/svg">
<path d="M0 15C0 8.42504 0 5.13755 1.81592 2.92485C2.14835 2.51978 2.51978 2.14835 2.92485 1.81592C5.13755 0 8.42504 0 15 0C21.575 0 24.8624 0 27.0751 1.81592C27.4802 2.14835 27.8516 2.51978 28.1841 2.92485C30 5.13755 30 8.42504 30 15C30 21.575 30 24.8624 28.1841 27.0751C27.8516 27.4802 27.4802 27.8516 27.0751 28.1841C24.8624 30 21.575 30 15 30C8.42504 30 5.13755 30 2.92485 28.1841C2.51978 27.8516 2.14835 27.4802 1.81592 27.0751C0 24.8624 0 21.575 0 15Z" fill="#FF8934"/>
<g clip-path="url(#clip0_407_52385)">
<path d="M13.9688 12.4722C13.9688 10.9688 12.5836 9.75 10.875 9.75C9.16637 9.75 7.78125 10.9688 7.78125 12.4722C7.78125 13.9757 8.625 14.8056 10.875 14.8056C13.125 14.8056 14.25 15.5833 14.25 17.5278C14.25 19.4722 12.739 20.25 10.875 20.25C9.01104 20.25 7.5 19.0312 7.5 17.5278" stroke="#1C1D21" stroke-width="1.5" stroke-linecap="round"/>
<path d="M10.875 8.25L10.875 9.75M10.875 21.75L10.875 20.25" stroke="#1C1D21" stroke-width="1.5" stroke-linecap="round" stroke-linejoin="round"/>
<path d="M22.5 15H16.875M22.5 15C22.5 15.5252 21.0043 16.5064 20.625 16.875M22.5 15C22.5 14.4748 21.0043 13.4936 20.625 13.125" stroke="#1C1D21" stroke-width="1.5" stroke-linecap="round" stroke-linejoin="round"/>
</g>
<defs>
<clipPath id="clip0_407_52385">
<rect width="18" height="18" fill="white" transform="translate(6 6)"/>
</clipPath>
</defs>
</svg>
