<svg width="16" height="16" viewBox="0 0 16 16" fill="none" xmlns="http://www.w3.org/2000/svg">
<g clip-path="url(#clip0_403_46567)">
<circle cx="8.00065" cy="7.99992" r="6.66667" stroke="#C9CACD" stroke-width="1.5"/>
<path d="M8.75 4.6665C8.75 4.25229 8.41421 3.9165 8 3.9165C7.58579 3.9165 7.25 4.25229 7.25 4.6665H8.75ZM9.53033 8.46951C9.23744 8.17661 8.76256 8.17661 8.46967 8.46951C8.17678 8.7624 8.17678 9.23727 8.46967 9.53017L9.53033 8.46951ZM9.46967 10.5302C9.76256 10.8231 10.2374 10.8231 10.5303 10.5302C10.8232 10.2373 10.8232 9.7624 10.5303 9.46951L9.46967 10.5302ZM7.25 4.6665V6.99984H8.75V4.6665H7.25ZM8.46967 9.53017L9.46967 10.5302L10.5303 9.46951L9.53033 8.46951L8.46967 9.53017ZM8.25 7.99984C8.25 8.13791 8.13807 8.24984 8 8.24984V9.74984C8.9665 9.74984 9.75 8.96634 9.75 7.99984H8.25ZM8 8.24984C7.86193 8.24984 7.75 8.13791 7.75 7.99984H6.25C6.25 8.96634 7.0335 9.74984 8 9.74984V8.24984ZM7.75 7.99984C7.75 7.86177 7.86193 7.74984 8 7.74984V6.24984C7.0335 6.24984 6.25 7.03334 6.25 7.99984H7.75ZM8 7.74984C8.13807 7.74984 8.25 7.86177 8.25 7.99984H9.75C9.75 7.03334 8.9665 6.24984 8 6.24984V7.74984Z" fill="#C9CACD"/>
</g>
<defs>
<clipPath id="clip0_403_46567">
<rect width="16" height="16" fill="white"/>
</clipPath>
</defs>
</svg>
