<svg width="30" height="30" viewBox="0 0 30 30" fill="none" xmlns="http://www.w3.org/2000/svg">
<path d="M0 15C0 8.42504 0 5.13755 1.81592 2.92485C2.14835 2.51978 2.51978 2.14835 2.92485 1.81592C5.13755 0 8.42504 0 15 0C21.575 0 24.8624 0 27.0751 1.81592C27.4802 2.14835 27.8516 2.51978 28.1841 2.92485C30 5.13755 30 8.42504 30 15C30 21.575 30 24.8624 28.1841 27.0751C27.8516 27.4802 27.4802 27.8516 27.0751 28.1841C24.8624 30 21.575 30 15 30C8.42504 30 5.13755 30 2.92485 28.1841C2.51978 27.8516 2.14835 27.4802 1.81592 27.0751C0 24.8624 0 21.575 0 15Z" fill="#3AAF8A"/>
<path d="M9.75 12.75V21.75H6.75V12.75H9.75ZM12.75 21.75C12.3522 21.75 11.9706 21.592 11.6893 21.3107C11.408 21.0294 11.25 20.6478 11.25 20.25V12.75C11.25 12.3375 11.415 11.9625 11.6925 11.6925L16.6275 6.75L17.4225 7.545C17.625 7.7475 17.7525 8.025 17.7525 8.3325L17.73 8.5725L17.0175 12H21.75C22.1478 12 22.5294 12.158 22.8107 12.4393C23.092 12.7206 23.25 13.1022 23.25 13.5V15C23.25 15.195 23.2125 15.375 23.145 15.5475L20.88 20.835C20.655 21.375 20.1225 21.75 19.5 21.75H12.75ZM12.75 20.25H19.5225L21.75 15V13.5H15.1575L16.005 9.51L12.75 12.7725V20.25Z" fill="#1C1D21"/>
</svg>
