<svg width="14" height="14" viewBox="0 0 14 14" fill="none" xmlns="http://www.w3.org/2000/svg">
<path d="M10.8587 11.6666H11.1447C11.8154 11.6666 12.3489 11.361 12.8279 10.9337C14.0449 9.84813 11.1843 8.74996 10.2077 8.74996M9.04102 2.95674C9.17347 2.93047 9.31102 2.91663 9.45213 2.91663C10.5137 2.91663 11.3743 3.70013 11.3743 4.66663C11.3743 5.63312 10.5137 6.41663 9.45213 6.41663C9.31102 6.41663 9.17347 6.40278 9.04102 6.37651" stroke="white" stroke-width="1.5" stroke-linecap="round"/>
<path d="M2.6141 9.39815C1.92636 9.76671 0.123163 10.5193 1.22143 11.461C1.75793 11.921 2.35545 12.25 3.10667 12.25H7.39333C8.14455 12.25 8.74207 11.921 9.27857 11.461C10.3768 10.5193 8.57364 9.76671 7.8859 9.39815C6.27317 8.53389 4.22683 8.53389 2.6141 9.39815Z" stroke="white" stroke-width="1.5"/>
<path d="M7.58333 4.37496C7.58333 5.66362 6.53866 6.70829 5.25 6.70829C3.96134 6.70829 2.91667 5.66362 2.91667 4.37496C2.91667 3.08629 3.96134 2.04163 5.25 2.04163C6.53866 2.04163 7.58333 3.08629 7.58333 4.37496Z" stroke="white" stroke-width="1.5"/>
</svg>
