<svg width="16" height="16" viewBox="0 0 16 16" fill="none" xmlns="http://www.w3.org/2000/svg">
<g clip-path="url(#clip0_403_41993)">
<path d="M9.33398 1.33301H6.66732C4.48116 1.33301 3.38809 1.33301 2.61325 1.87555C2.32659 2.07628 2.07725 2.32561 1.87653 2.61228C1.33398 3.38711 1.33398 4.48019 1.33398 6.66634C1.33398 8.85249 1.33398 9.94557 1.87653 10.7204C2.07725 11.0071 2.32659 11.2564 2.61325 11.4571C3.38809 11.9997 4.48116 11.9997 6.66732 11.9997H9.33398C11.5201 11.9997 12.6132 11.9997 13.388 11.4571C13.6747 11.2564 13.924 11.0071 14.1248 10.7204C14.6673 9.94557 14.6673 8.85249 14.6673 6.66634C14.6673 4.48019 14.6673 3.38711 14.1248 2.61228C13.924 2.32561 13.6747 2.07628 13.388 1.87555C12.6132 1.33301 11.5201 1.33301 9.33398 1.33301Z" stroke="white" stroke-width="1.5" stroke-linecap="round"/>
<path d="M7.33398 10H8.66732" stroke="white" stroke-width="1.5" stroke-linecap="round" stroke-linejoin="round"/>
<path d="M9.66732 14.6667L9.45698 14.3874C8.98283 13.7579 8.86528 12.7963 9.16516 12M6.33398 14.6667L6.54432 14.3874C7.01847 13.7579 7.13602 12.7963 6.83614 12" stroke="white" stroke-width="1.5" stroke-linecap="round"/>
<path d="M4.66797 14.666H11.3346" stroke="white" stroke-width="1.5" stroke-linecap="round"/>
</g>
<defs>
<clipPath id="clip0_403_41993">
<rect width="16" height="16" fill="white"/>
</clipPath>
</defs>
</svg>
