<svg width="16" height="16" viewBox="0 0 16 16" fill="none" xmlns="http://www.w3.org/2000/svg">
<g clip-path="url(#clip0_403_41984)">
<path d="M11.3346 7.99935C11.3346 9.8403 9.84225 11.3327 8.0013 11.3327C6.16035 11.3327 4.66797 9.8403 4.66797 7.99935C4.66797 6.1584 6.16035 4.66602 8.0013 4.66602C9.84225 4.66602 11.3346 6.1584 11.3346 7.99935Z" stroke="white" stroke-width="1.5"/>
<path d="M8.00065 1.33301C7.74911 1.55523 7.39695 2.13301 8.00065 2.66634M8.00065 13.333C8.25219 13.5552 8.60435 14.133 8.00065 14.6663M13.0007 3.00148C12.6463 2.97955 11.9509 3.14829 12.0035 3.99866M3.66449 11.6663C3.68642 12.0207 3.51768 12.7161 2.66732 12.6635M3.33579 2.99967C3.31384 3.35435 3.48275 4.05054 4.33398 3.99787M12.0007 11.668C12.355 11.6473 13.0505 11.8069 12.9978 12.6109M14.6673 7.99967C14.4451 7.74813 13.8673 7.39598 13.334 7.99967M2.66732 7.66634C2.4451 7.91788 1.86732 8.27004 1.33398 7.66634" stroke="white" stroke-width="1.5" stroke-linecap="round"/>
</g>
<defs>
<clipPath id="clip0_403_41984">
<rect width="16" height="16" fill="white"/>
</clipPath>
</defs>
</svg>
