<svg width="16" height="16" viewBox="0 0 16 16" fill="none" xmlns="http://www.w3.org/2000/svg">
<g clip-path="url(#clip0_301_41583)">
<path d="M14.6666 7.71114C14.6666 11.2332 11.6815 14.089 7.99998 14.089C7.5671 14.0895 7.13547 14.0495 6.71026 13.9696C6.4042 13.9122 6.25117 13.8834 6.14433 13.8997C6.0375 13.916 5.8861 13.9966 5.5833 14.1576C4.72674 14.6131 3.72795 14.774 2.76739 14.5953C3.13247 14.1463 3.38181 13.6075 3.49183 13.0298C3.5585 12.6766 3.39331 12.3333 3.14591 12.0821C2.0222 10.941 1.33331 9.40339 1.33331 7.71114C1.33331 4.18904 4.3185 1.33333 7.99998 1.33333C11.6815 1.33333 14.6666 4.18904 14.6666 7.71114Z" stroke="#1C1D21" stroke-width="1.5" stroke-linejoin="round"/>
<path d="M7.99699 8H8.00297M10.6607 8H10.6666M5.33331 8H5.33929" stroke="#1C1D21" stroke-width="2" stroke-linecap="round" stroke-linejoin="round"/>
</g>
<defs>
<clipPath id="clip0_301_41583">
<rect width="16" height="16" fill="white"/>
</clipPath>
</defs>
</svg>
