<svg width="14" height="14" viewBox="0 0 14 14" fill="none" xmlns="http://www.w3.org/2000/svg">
<path d="M10.5 9.38C10.0567 9.38 9.66 9.55501 9.35667 9.82917L5.1975 7.40834C5.22667 7.27417 5.25 7.14001 5.25 7C5.25 6.86 5.22667 6.72584 5.1975 6.59167L9.31 4.19417C9.625 4.48584 10.0392 4.66667 10.5 4.66667C11.4683 4.66667 12.25 3.885 12.25 2.91667C12.25 1.94834 11.4683 1.16667 10.5 1.16667C9.53167 1.16667 8.75 1.94834 8.75 2.91667C8.75 3.05667 8.77333 3.19084 8.8025 3.325L4.69 5.72251C4.375 5.43084 3.96083 5.25 3.5 5.25C2.53167 5.25 1.75 6.03167 1.75 7C1.75 7.96834 2.53167 8.75 3.5 8.75C3.96083 8.75 4.375 8.56917 4.69 8.2775L8.84333 10.7042C8.81417 10.8267 8.79667 10.955 8.79667 11.0833C8.79667 12.0225 9.56083 12.7867 10.5 12.7867C11.4392 12.7867 12.2033 12.0225 12.2033 11.0833C12.2033 10.1442 11.4392 9.38 10.5 9.38Z" fill="#1C1D21"/>
</svg>
