<svg width="14" height="14" viewBox="0 0 14 14" fill="none" xmlns="http://www.w3.org/2000/svg">
<path d="M10.5 9.37999C10.0567 9.37999 9.66 9.55499 9.35667 9.82916L5.1975 7.40832C5.22667 7.27416 5.25 7.13999 5.25 6.99999C5.25 6.85999 5.22667 6.72582 5.1975 6.59166L9.31 4.19416C9.625 4.48582 10.0392 4.66666 10.5 4.66666C11.4683 4.66666 12.25 3.88499 12.25 2.91666C12.25 1.94832 11.4683 1.16666 10.5 1.16666C9.53167 1.16666 8.75 1.94832 8.75 2.91666C8.75 3.05666 8.77333 3.19082 8.8025 3.32499L4.69 5.72249C4.375 5.43082 3.96083 5.24999 3.5 5.24999C2.53167 5.24999 1.75 6.03166 1.75 6.99999C1.75 7.96832 2.53167 8.74999 3.5 8.74999C3.96083 8.74999 4.375 8.56916 4.69 8.27749L8.84333 10.7042C8.81417 10.8267 8.79667 10.955 8.79667 11.0833C8.79667 12.0225 9.56083 12.7867 10.5 12.7867C11.4392 12.7867 12.2033 12.0225 12.2033 11.0833C12.2033 10.1442 11.4392 9.37999 10.5 9.37999Z" fill="white"/>
</svg>
