<svg width="18" height="18" viewBox="0 0 18 18" fill="none" xmlns="http://www.w3.org/2000/svg">
<g clip-path="url(#clip0_404_52194)">
<ellipse cx="11.625" cy="8.25" rx="4.875" ry="1.5" stroke="white" stroke-width="1.5"/>
<path d="M16.5 11.625C16.5 12.4534 14.3174 13.125 11.625 13.125C8.93261 13.125 6.75 12.4534 6.75 11.625" stroke="white" stroke-width="1.5"/>
<path d="M16.5 8.25V14.85C16.5 15.7613 14.3174 16.5 11.625 16.5C8.93261 16.5 6.75 15.7613 6.75 14.85V8.25" stroke="white" stroke-width="1.5"/>
<ellipse cx="6.375" cy="3" rx="4.875" ry="1.5" stroke="white" stroke-width="1.5"/>
<path d="M4.5 8.25C3.08114 8.07733 1.77744 7.63091 1.5 6.75M4.5 12C3.08114 11.8273 1.77744 11.3809 1.5 10.5" stroke="white" stroke-width="1.5" stroke-linecap="round"/>
<path d="M4.5 15.75C3.08114 15.5773 1.77744 15.1309 1.5 14.25L1.5 3" stroke="white" stroke-width="1.5" stroke-linecap="round"/>
<path d="M11.25 4.5V3" stroke="white" stroke-width="1.5" stroke-linecap="round"/>
</g>
<defs>
<clipPath id="clip0_404_52194">
<rect width="18" height="18" fill="white"/>
</clipPath>
</defs>
</svg>
