<svg width="14" height="14" viewBox="0 0 14 14" fill="none" xmlns="http://www.w3.org/2000/svg">
<g clip-path="url(#clip0_403_37283)">
<path d="M6.70768 8.17378C5.51382 8.11821 4.3063 8.40403 3.25293 9.03125C2.42765 9.52266 0.263812 10.5261 1.58173 11.7817C2.22553 12.395 2.94255 12.8337 3.84402 12.8337H6.99935" stroke="white" stroke-width="1.5" stroke-linecap="round" stroke-linejoin="round"/>
<path d="M9.04102 3.79199C9.04102 5.24174 7.86576 6.41699 6.41602 6.41699C4.96627 6.41699 3.79102 5.24174 3.79102 3.79199C3.79102 2.34224 4.96627 1.16699 6.41602 1.16699C7.86576 1.16699 9.04102 2.34224 9.04102 3.79199Z" stroke="white" stroke-width="1.5"/>
<path d="M10.4993 12.084V12.834M10.4993 12.084C9.82456 12.084 9.23005 11.7525 8.88137 11.2492M10.4993 12.084C11.1741 12.084 11.7686 11.7525 12.1173 11.2492M10.4993 8.33398C11.1742 8.33398 11.7687 8.66549 12.1174 9.16883M10.4993 8.33398C9.82451 8.33398 9.22996 8.66549 8.88129 9.16883M10.4993 8.33398V7.58398M12.8327 8.70898L12.1174 9.16883M8.16626 11.709L8.88137 11.2492M8.16602 8.70898L8.88129 9.16883M12.8324 11.709L12.1173 11.2492M12.1174 9.16883C12.3236 9.46647 12.4438 9.82419 12.4438 10.209C12.4438 10.5938 12.3236 10.9516 12.1173 11.2492M8.88129 9.16883C8.67511 9.46647 8.5549 9.82419 8.5549 10.209C8.5549 10.5938 8.67514 10.9516 8.88137 11.2492" stroke="white" stroke-width="1.5" stroke-linecap="round"/>
</g>
<defs>
<clipPath id="clip0_403_37283">
<rect width="14" height="14" fill="white"/>
</clipPath>
</defs>
</svg>
