<svg width="14" height="14" viewBox="0 0 14 14" fill="none" xmlns="http://www.w3.org/2000/svg">
<g clip-path="url(#clip0_377_6082)">
<path d="M12.6645 5.47581C12.7401 5.77209 12.7893 6.07923 12.8097 6.39454C12.841 6.8792 12.841 7.38112 12.8097 7.86578C12.6498 10.3424 10.7061 12.3152 8.26602 12.4775C7.43356 12.5329 6.56442 12.5328 5.73365 12.4775C5.44757 12.4585 5.13574 12.3902 4.86717 12.2795C4.56837 12.1563 4.41894 12.0947 4.34301 12.1041C4.26708 12.1134 4.15691 12.1947 3.93657 12.3573C3.54807 12.644 3.05864 12.85 2.33284 12.8323C1.96582 12.8233 1.78231 12.8189 1.70016 12.6787C1.61801 12.5385 1.72033 12.3445 1.92496 11.9564C2.20877 11.4181 2.38859 10.8019 2.11612 10.3082C1.64684 9.60299 1.24823 8.7678 1.18998 7.86578C1.15868 7.38112 1.15868 6.8792 1.18998 6.39454C1.34991 3.91789 3.29356 1.94512 5.73365 1.78279C5.95895 1.7678 6.18706 1.75687 6.4165 1.75" stroke="#1C1D21" stroke-width="1.5" stroke-linecap="round" stroke-linejoin="round"/>
<path d="M6.99722 7.29163H7.00245M9.32794 7.29163H9.33317M4.6665 7.29163H4.67174" stroke="#1C1D21" stroke-width="2" stroke-linecap="round" stroke-linejoin="round"/>
<path d="M12.8332 2.62496L8.1665 2.62496M12.8332 2.62496C12.8332 2.21649 11.6698 1.45335 11.3748 1.16663M12.8332 2.62496C12.8332 3.03343 11.6698 3.79657 11.3748 4.08329" stroke="#1C1D21" stroke-width="1.5" stroke-linecap="round" stroke-linejoin="round"/>
</g>
<defs>
<clipPath id="clip0_377_6082">
<rect width="14" height="14" fill="white"/>
</clipPath>
</defs>
</svg>
