<svg width="18" height="18" viewBox="0 0 18 18" fill="none" xmlns="http://www.w3.org/2000/svg">
<path d="M9.75 11.25V5.24999M9.75 11.25L13.878 13.6087C13.992 13.6739 14.1212 13.7079 14.2525 13.7075C14.3839 13.707 14.5128 13.6721 14.6264 13.6062C14.74 13.5403 14.8343 13.4457 14.8999 13.3319C14.9654 13.2181 15 13.0891 15 12.9577V3.54224C15 3.4109 14.9654 3.28188 14.8999 3.16807C14.8343 3.05427 14.74 2.95968 14.6264 2.89377C14.5128 2.82785 14.3839 2.79293 14.2525 2.79248C14.1212 2.79204 13.992 2.82609 13.878 2.89124L9.75 5.24999M9.75 11.25H7.5M9.75 5.24999H5.25C4.45435 5.24999 3.69129 5.56606 3.12868 6.12867C2.56607 6.69128 2.25 7.45434 2.25 8.24999C2.25 9.04564 2.56607 9.8087 3.12868 10.3713C3.69129 10.9339 4.45435 11.25 5.25 11.25M7.5 11.25V14.625C7.5 14.9234 7.38147 15.2095 7.1705 15.4205C6.95952 15.6315 6.67337 15.75 6.375 15.75C6.07663 15.75 5.79048 15.6315 5.5795 15.4205C5.36853 15.2095 5.25 14.9234 5.25 14.625V11.25M7.5 11.25H5.25" stroke="white" stroke-width="1.5" stroke-linecap="round" stroke-linejoin="round"/>
</svg>
