<svg width="14" height="14" viewBox="0 0 14 14" fill="none" xmlns="http://www.w3.org/2000/svg">
<path d="M12.2493 7.12833C12.2493 3.92583 9.76435 1.75 6.99935 1.75C4.26352 1.75 1.74935 3.87917 1.74935 7.16333C1.39935 7.36167 1.16602 7.735 1.16602 8.16667V9.33333C1.16602 9.975 1.69102 10.5 2.33268 10.5C2.65352 10.5 2.91602 10.2375 2.91602 9.91667V7.11083C2.91602 4.87667 4.63685 2.9225 6.87102 2.85833C7.4178 2.8417 7.96237 2.935 8.47243 3.1327C8.9825 3.3304 9.4477 3.62847 9.84045 4.00926C10.2332 4.39004 10.5455 4.84579 10.7589 5.3495C10.9723 5.85321 11.0824 6.39463 11.0827 6.94167V11.0833H6.99935C6.67852 11.0833 6.41602 11.3458 6.41602 11.6667C6.41602 11.9875 6.67852 12.25 6.99935 12.25H11.0827C11.7243 12.25 12.2493 11.725 12.2493 11.0833V10.3717C12.5935 10.1908 12.8327 9.835 12.8327 9.415V8.07333C12.8327 7.665 12.5935 7.30917 12.2493 7.12833Z" fill="white"/>
<path d="M5.24935 8.16667C5.57152 8.16667 5.83268 7.9055 5.83268 7.58333C5.83268 7.26117 5.57152 7 5.24935 7C4.92718 7 4.66602 7.26117 4.66602 7.58333C4.66602 7.9055 4.92718 8.16667 5.24935 8.16667Z" fill="white"/>
<path d="M8.74935 8.16667C9.07152 8.16667 9.33268 7.9055 9.33268 7.58333C9.33268 7.26117 9.07152 7 8.74935 7C8.42718 7 8.16602 7.26117 8.16602 7.58333C8.16602 7.9055 8.42718 8.16667 8.74935 8.16667Z" fill="white"/>
<path d="M10.5008 6.43417C10.3617 5.61408 9.93691 4.86965 9.30168 4.33264C8.66646 3.79563 7.86172 3.50068 7.02992 3.5C5.26242 3.5 3.36076 4.96417 3.51242 7.2625C4.23189 6.96836 4.86734 6.50065 5.36203 5.90112C5.85671 5.30159 6.19525 4.5889 6.34742 3.82667C7.11159 5.36083 8.68076 6.41667 10.5008 6.43417Z" fill="white"/>
</svg>
