<svg width="14" height="14" viewBox="0 0 14 14" fill="none" xmlns="http://www.w3.org/2000/svg">
<g clip-path="url(#clip0_377_6076)">
<path d="M6.70817 8.17347C5.51431 8.1179 4.30679 8.40373 3.25342 9.03094C2.42814 9.52235 0.2643 10.5258 1.58222 11.7813C2.22602 12.3947 2.94304 12.8334 3.84451 12.8334H6.99984" stroke="#1C1D21" stroke-width="1.5" stroke-linecap="round" stroke-linejoin="round"/>
<path d="M9.0415 3.79169C9.0415 5.24143 7.86625 6.41669 6.4165 6.41669C4.96676 6.41669 3.7915 5.24143 3.7915 3.79169C3.7915 2.34194 4.96676 1.16669 6.4165 1.16669C7.86625 1.16669 9.0415 2.34194 9.0415 3.79169Z" stroke="#1C1D21" stroke-width="1.5"/>
<path d="M10.4998 12.0834V12.8334M10.4998 12.0834C9.82505 12.0834 9.23054 11.7519 8.88185 11.2486M10.4998 12.0834C11.1746 12.0834 11.7691 11.7519 12.1178 11.2486M10.4998 8.33337C11.1747 8.33337 11.7692 8.66488 12.1179 9.16822M10.4998 8.33337C9.825 8.33337 9.23045 8.66488 8.88178 9.16822M10.4998 8.33337V7.58337M12.8332 8.70837L12.1179 9.16822M8.16675 11.7084L8.88185 11.2486M8.1665 8.70837L8.88178 9.16822M12.8329 11.7084L12.1178 11.2486M12.1179 9.16822C12.3241 9.46585 12.4443 9.82358 12.4443 10.2084C12.4443 10.5932 12.324 10.951 12.1178 11.2486M8.88178 9.16822C8.6756 9.46585 8.55539 9.82358 8.55539 10.2084C8.55539 10.5932 8.67563 10.951 8.88185 11.2486" stroke="#1C1D21" stroke-width="1.5" stroke-linecap="round"/>
</g>
<defs>
<clipPath id="clip0_377_6076">
<rect width="14" height="14" fill="white"/>
</clipPath>
</defs>
</svg>
