<svg width="14" height="14" viewBox="0 0 14 14" fill="none" xmlns="http://www.w3.org/2000/svg">
<path d="M12.2498 7.12833C12.2498 3.92583 9.76484 1.75 6.99984 1.75C4.264 1.75 1.74984 3.87917 1.74984 7.16333C1.39984 7.36167 1.1665 7.735 1.1665 8.16667V9.33333C1.1665 9.975 1.6915 10.5 2.33317 10.5C2.654 10.5 2.9165 10.2375 2.9165 9.91667V7.11083C2.9165 4.87667 4.63734 2.9225 6.8715 2.85833C7.41829 2.8417 7.96285 2.935 8.47292 3.1327C8.98299 3.3304 9.44818 3.62847 9.84094 4.00926C10.2337 4.39004 10.546 4.84579 10.7594 5.3495C10.9728 5.85321 11.0829 6.39463 11.0832 6.94167V11.0833H6.99984C6.679 11.0833 6.4165 11.3458 6.4165 11.6667C6.4165 11.9875 6.679 12.25 6.99984 12.25H11.0832C11.7248 12.25 12.2498 11.725 12.2498 11.0833V10.3717C12.594 10.1908 12.8332 9.835 12.8332 9.415V8.07333C12.8332 7.665 12.594 7.30917 12.2498 7.12833Z" fill="#1C1D21"/>
<path d="M5.24984 8.16667C5.572 8.16667 5.83317 7.9055 5.83317 7.58333C5.83317 7.26117 5.572 7 5.24984 7C4.92767 7 4.6665 7.26117 4.6665 7.58333C4.6665 7.9055 4.92767 8.16667 5.24984 8.16667Z" fill="#1C1D21"/>
<path d="M8.74984 8.16667C9.072 8.16667 9.33317 7.9055 9.33317 7.58333C9.33317 7.26117 9.072 7 8.74984 7C8.42767 7 8.1665 7.26117 8.1665 7.58333C8.1665 7.9055 8.42767 8.16667 8.74984 8.16667Z" fill="#1C1D21"/>
<path d="M10.4998 6.43417C10.3607 5.61408 9.93593 4.86965 9.30071 4.33264C8.66548 3.79563 7.86074 3.50068 7.02895 3.5C5.26145 3.5 3.35978 4.96417 3.51145 7.2625C4.23092 6.96836 4.86636 6.50065 5.36105 5.90112C5.85574 5.30159 6.19428 4.5889 6.34645 3.82667C7.11061 5.36083 8.67978 6.41667 10.4998 6.43417Z" fill="#1C1D21"/>
</svg>
