<svg width="14" height="14" viewBox="0 0 14 14" fill="none" xmlns="http://www.w3.org/2000/svg">
<g clip-path="url(#clip0_403_37289)">
<path d="M12.664 5.47581C12.7396 5.77209 12.7888 6.07923 12.8092 6.39454C12.8405 6.8792 12.8405 7.38112 12.8092 7.86578C12.6493 10.3424 10.7056 12.3152 8.26554 12.4775C7.43307 12.5329 6.56393 12.5328 5.73316 12.4775C5.44708 12.4585 5.13525 12.3902 4.86669 12.2795C4.56788 12.1563 4.41845 12.0947 4.34252 12.1041C4.26659 12.1134 4.15642 12.1947 3.93608 12.3573C3.54758 12.644 3.05815 12.85 2.33235 12.8323C1.96533 12.8233 1.78183 12.8189 1.69967 12.6787C1.61752 12.5385 1.71984 12.3445 1.92447 11.9564C2.20828 11.4181 2.3881 10.8019 2.11563 10.3082C1.64635 9.60299 1.24774 8.7678 1.18949 7.86578C1.15819 7.38112 1.15819 6.8792 1.18949 6.39454C1.34942 3.91789 3.29307 1.94512 5.73316 1.78279C5.95846 1.7678 6.18657 1.75687 6.41602 1.75" stroke="white" stroke-width="1.5" stroke-linecap="round" stroke-linejoin="round"/>
<path d="M6.99673 7.29199H7.00197M9.32745 7.29199H9.33268M4.66602 7.29199H4.67125" stroke="white" stroke-width="2" stroke-linecap="round" stroke-linejoin="round"/>
<path d="M12.8327 2.62533L8.16602 2.62533M12.8327 2.62533C12.8327 2.21686 11.6693 1.45372 11.3743 1.16699M12.8327 2.62533C12.8327 3.03379 11.6693 3.79693 11.3743 4.08366" stroke="white" stroke-width="1.5" stroke-linecap="round" stroke-linejoin="round"/>
</g>
<defs>
<clipPath id="clip0_403_37289">
<rect width="14" height="14" fill="white"/>
</clipPath>
</defs>
</svg>
