<svg width="16" height="16" viewBox="0 0 16 16" fill="none" xmlns="http://www.w3.org/2000/svg">
<g clip-path="url(#clip0_301_42378)">
<path d="M11.3333 1.99996H14C14.1768 1.99996 14.3464 2.0702 14.4714 2.19522C14.5964 2.32025 14.6666 2.48981 14.6666 2.66663V13.3333C14.6666 13.5101 14.5964 13.6797 14.4714 13.8047C14.3464 13.9297 14.1768 14 14 14H1.99998C1.82317 14 1.6536 13.9297 1.52858 13.8047C1.40355 13.6797 1.33331 13.5101 1.33331 13.3333V2.66663C1.33331 2.48981 1.40355 2.32025 1.52858 2.19522C1.6536 2.0702 1.82317 1.99996 1.99998 1.99996H4.66665V0.666626H5.99998V1.99996H9.99998V0.666626H11.3333V1.99996ZM9.99998 3.33329H5.99998V4.66663H4.66665V3.33329H2.66665V5.99996H13.3333V3.33329H11.3333V4.66663H9.99998V3.33329ZM13.3333 7.33329H2.66665V12.6666H13.3333V7.33329ZM3.99998 9.33329H5.33331V10.6666H3.99998V9.33329ZM6.66665 9.33329H12V10.6666H6.66665V9.33329Z" fill="#1C1D21"/>
</g>
<defs>
<clipPath id="clip0_301_42378">
<rect width="16" height="16" fill="white"/>
</clipPath>
</defs>
</svg>
