<svg width="24" height="24" viewBox="0 0 24 24" fill="none" xmlns="http://www.w3.org/2000/svg">
<rect width="24" height="24" rx="6" fill="#1C1D21"/>
<path d="M15.45 7.365C14.9374 6.77965 14.6549 6.02805 14.655 5.25H12.3375V14.55C12.32 15.0534 12.1076 15.5303 11.7452 15.8801C11.3828 16.2299 10.8987 16.4253 10.395 16.425C9.32999 16.425 8.445 15.555 8.445 14.475C8.445 13.185 9.69 12.2175 10.9725 12.615V10.245C8.385 9.9 6.12 11.91 6.12 14.475C6.12 16.9725 8.19 18.75 10.3875 18.75C12.7425 18.75 14.655 16.8375 14.655 14.475V9.7575C15.5947 10.4324 16.723 10.7945 17.88 10.7925V8.475C17.88 8.475 16.47 8.5425 15.45 7.365Z" fill="white"/>
</svg>
