<svg width="16" height="16" viewBox="0 0 16 16" fill="none" xmlns="http://www.w3.org/2000/svg">
<path d="M3.33268 5.99996V14H0.666016V5.99996H3.33268ZM5.99935 14C5.64573 14 5.30659 13.8595 5.05654 13.6094C4.80649 13.3594 4.66602 13.0202 4.66602 12.6666V5.99996C4.66602 5.63329 4.81268 5.29996 5.05935 5.05996L9.44602 0.666626L10.1527 1.37329C10.3327 1.55329 10.446 1.79996 10.446 2.07329L10.426 2.28663L9.79268 5.33329H13.9993C14.353 5.33329 14.6921 5.47377 14.9422 5.72382C15.1922 5.97387 15.3327 6.313 15.3327 6.66663V7.99996C15.3327 8.17329 15.2993 8.33329 15.2393 8.48663L13.226 13.1866C13.026 13.6666 12.5527 14 11.9993 14H5.99935ZM5.99935 12.6666H12.0193L13.9993 7.99996V6.66663H8.13935L8.89268 3.11996L5.99935 6.01996V12.6666Z" fill="white"/>
</svg>
