<svg width="16" height="16" viewBox="0 0 16 16" fill="none" xmlns="http://www.w3.org/2000/svg">
<path d="M2.66602 11.9872V6.47167C2.66602 4.04942 2.66602 2.8383 3.44706 2.08581C4.22811 1.33331 5.48519 1.33331 7.99935 1.33331C10.5135 1.33331 11.7706 1.33331 12.5516 2.08581C13.3327 2.8383 13.3327 4.04942 13.3327 6.47167V11.9872C13.3327 13.5244 13.3327 14.293 12.8175 14.5682C11.8197 15.1009 9.94815 13.3234 9.05935 12.7883C8.54388 12.4779 8.28614 12.3227 7.99935 12.3227C7.71255 12.3227 7.45482 12.4779 6.93935 12.7883C6.05055 13.3234 4.17899 15.1009 3.18125 14.5682C2.66602 14.293 2.66602 13.5244 2.66602 11.9872Z" stroke="white" stroke-width="1.5" stroke-linecap="round" stroke-linejoin="round"/>
</svg>
