<svg width="16" height="16" viewBox="0 0 16 16" fill="none" xmlns="http://www.w3.org/2000/svg">
<g clip-path="url(#clip0_403_38981)">
<path d="M11.334 1.99996H14.0007C14.1775 1.99996 14.347 2.0702 14.4721 2.19522C14.5971 2.32025 14.6673 2.48981 14.6673 2.66663V13.3333C14.6673 13.5101 14.5971 13.6797 14.4721 13.8047C14.347 13.9297 14.1775 14 14.0007 14H2.00065C1.82384 14 1.65427 13.9297 1.52925 13.8047C1.40422 13.6797 1.33398 13.5101 1.33398 13.3333V2.66663C1.33398 2.48981 1.40422 2.32025 1.52925 2.19522C1.65427 2.0702 1.82384 1.99996 2.00065 1.99996H4.66732V0.666626H6.00065V1.99996H10.0007V0.666626H11.334V1.99996ZM10.0007 3.33329H6.00065V4.66663H4.66732V3.33329H2.66732V5.99996H13.334V3.33329H11.334V4.66663H10.0007V3.33329ZM13.334 7.33329H2.66732V12.6666H13.334V7.33329ZM4.00065 9.33329H5.33398V10.6666H4.00065V9.33329ZM6.66732 9.33329H12.0007V10.6666H6.66732V9.33329Z" fill="white"/>
</g>
<defs>
<clipPath id="clip0_403_38981">
<rect width="16" height="16" fill="white"/>
</clipPath>
</defs>
</svg>
