<svg width="16" height="16" viewBox="0 0 16 16" fill="none" xmlns="http://www.w3.org/2000/svg">
<path d="M2.66669 11.9873V6.47173C2.66669 4.04948 2.66669 2.83836 3.44774 2.08587C4.22878 1.33337 5.48586 1.33337 8.00002 1.33337C10.5142 1.33337 11.7713 1.33337 12.5523 2.08587C13.3334 2.83836 13.3334 4.04948 13.3334 6.47173V11.9873C13.3334 13.5245 13.3334 14.2931 12.8181 14.5682C11.8204 15.101 9.94882 13.3235 9.06002 12.7883C8.54455 12.4779 8.28682 12.3227 8.00002 12.3227C7.71322 12.3227 7.45549 12.4779 6.94002 12.7883C6.05122 13.3235 4.17967 15.101 3.18192 14.5682C2.66669 14.2931 2.66669 13.5245 2.66669 11.9873Z" stroke="#1C1D21" stroke-width="1.5" stroke-linecap="round" stroke-linejoin="round"/>
</svg>
