<svg width="24" height="24" viewBox="0 0 24 24" fill="none" xmlns="http://www.w3.org/2000/svg">
<rect width="24" height="24" rx="6" fill="white"/>
<path d="M15.4491 7.365C14.9366 6.77965 14.6541 6.02805 14.6541 5.25H12.3366V14.55C12.3191 15.0534 12.1068 15.5303 11.7444 15.8801C11.382 16.2299 10.8978 16.4253 10.3941 16.425C9.32914 16.425 8.44414 15.555 8.44414 14.475C8.44414 13.185 9.68914 12.2175 10.9716 12.615V10.245C8.38414 9.9 6.11914 11.91 6.11914 14.475C6.11914 16.9725 8.18914 18.75 10.3866 18.75C12.7416 18.75 14.6541 16.8375 14.6541 14.475V9.7575C15.5939 10.4324 16.7222 10.7945 17.8791 10.7925V8.475C17.8791 8.475 16.4691 8.5425 15.4491 7.365Z" fill="#1C1D21"/>
</svg>
