<svg width="16" height="16" viewBox="0 0 16 16" fill="none" xmlns="http://www.w3.org/2000/svg">
<path d="M3.33335 5.99996V14H0.666687V5.99996H3.33335ZM6.00002 14C5.6464 14 5.30726 13.8595 5.05721 13.6094C4.80716 13.3594 4.66669 13.0202 4.66669 12.6666V5.99996C4.66669 5.63329 4.81335 5.29996 5.06002 5.05996L9.44669 0.666626L10.1534 1.37329C10.3334 1.55329 10.4467 1.79996 10.4467 2.07329L10.4267 2.28663L9.79335 5.33329H14C14.3536 5.33329 14.6928 5.47377 14.9428 5.72382C15.1929 5.97387 15.3334 6.313 15.3334 6.66663V7.99996C15.3334 8.17329 15.3 8.33329 15.24 8.48663L13.2267 13.1866C13.0267 13.6666 12.5534 14 12 14H6.00002ZM6.00002 12.6666H12.02L14 7.99996V6.66663H8.14002L8.89335 3.11996L6.00002 6.01996V12.6666Z" fill="#1C1D21"/>
</svg>
