<svg width="16" height="16" viewBox="0 0 16 16" fill="none" xmlns="http://www.w3.org/2000/svg">
<g clip-path="url(#clip0_306_49847)">
<path d="M2.33325 12C2.33325 11.0572 2.33325 10.5858 2.62615 10.2929C2.91904 10 3.39044 10 4.33325 10H4.66659C5.29512 10 5.60939 10 5.80466 10.1953C5.99992 10.3905 5.99992 10.7048 5.99992 11.3333V14.6667H2.33325V12Z" stroke="#7A7A7A" stroke-width="1.5" stroke-linecap="round" stroke-linejoin="round"/>
<path d="M10 12.6666C10 12.038 10 11.7238 10.1953 11.5285C10.3905 11.3333 10.7048 11.3333 11.3333 11.3333H11.6667C12.6095 11.3333 13.0809 11.3333 13.3738 11.6261C13.6667 11.919 13.6667 12.3904 13.6667 13.3333V14.6666H10V12.6666Z" stroke="#7A7A7A" stroke-width="1.5" stroke-linecap="round" stroke-linejoin="round"/>
<path d="M1.33325 14.6665H14.6666" stroke="#7A7A7A" stroke-width="1.5" stroke-linecap="round" stroke-linejoin="round"/>
<path d="M6 10.6665C6 9.72369 6 9.25229 6.29289 8.9594C6.58579 8.6665 7.05719 8.6665 8 8.6665C8.94281 8.6665 9.41421 8.6665 9.70711 8.9594C10 9.25229 10 9.72369 10 10.6665V14.6665H6V10.6665Z" stroke="#7A7A7A" stroke-width="1.5" stroke-linecap="round" stroke-linejoin="round"/>
<path d="M8.46062 1.71837L8.9299 2.66469C8.9939 2.79642 9.16454 2.92277 9.30853 2.94697L10.1591 3.08945C10.703 3.18086 10.831 3.57874 10.4391 3.97125L9.77781 4.63798C9.66582 4.75089 9.60449 4.96865 9.63916 5.12458L9.82847 5.94992C9.97779 6.6032 9.63383 6.85591 9.06056 6.51448L8.26331 6.03864C8.11933 5.95261 7.88202 5.95261 7.73537 6.03864L6.93812 6.51448C6.36752 6.85591 6.02089 6.60051 6.17021 5.94992L6.35952 5.12458C6.39418 4.96865 6.33286 4.75089 6.22087 4.63798L5.55961 3.97125C5.17032 3.57874 5.29564 3.18086 5.83958 3.08945L6.69015 2.94697C6.83147 2.92277 7.00212 2.79642 7.06611 2.66469L7.53539 1.71837C7.79136 1.20488 8.20732 1.20488 8.46062 1.71837Z" stroke="#7A7A7A" stroke-width="1.5" stroke-linecap="round" stroke-linejoin="round"/>
</g>
<defs>
<clipPath id="clip0_306_49847">
<rect width="16" height="16" fill="white"/>
</clipPath>
</defs>
</svg>
