<svg width="14" height="14" viewBox="0 0 14 14" fill="none" xmlns="http://www.w3.org/2000/svg">
<path d="M10.8595 11.6666H11.1454C11.8162 11.6666 12.3497 11.361 12.8287 10.9337C14.0456 9.84813 11.185 8.74996 10.2084 8.74996M9.04175 2.95674C9.1742 2.93047 9.31175 2.91663 9.45286 2.91663C10.5145 2.91663 11.3751 3.70013 11.3751 4.66663C11.3751 5.63312 10.5145 6.41663 9.45286 6.41663C9.31175 6.41663 9.1742 6.40278 9.04175 6.37651" stroke="#1C1D21" stroke-width="1.5" stroke-linecap="round"/>
<path d="M2.6141 9.39815C1.92636 9.76671 0.123163 10.5193 1.22143 11.461C1.75793 11.921 2.35545 12.25 3.10667 12.25H7.39333C8.14455 12.25 8.74207 11.921 9.27857 11.461C10.3768 10.5193 8.57364 9.76671 7.8859 9.39815C6.27317 8.53389 4.22683 8.53389 2.6141 9.39815Z" stroke="#1C1D21" stroke-width="1.5"/>
<path d="M7.58333 4.37496C7.58333 5.66362 6.53866 6.70829 5.25 6.70829C3.96134 6.70829 2.91667 5.66362 2.91667 4.37496C2.91667 3.08629 3.96134 2.04163 5.25 2.04163C6.53866 2.04163 7.58333 3.08629 7.58333 4.37496Z" stroke="#1C1D21" stroke-width="1.5"/>
</svg>
