<svg width="21" height="20" viewBox="0 0 21 20" fill="none" xmlns="http://www.w3.org/2000/svg">
<path d="M2.17353 13.1743C2.35928 10.2634 2.90613 8.13325 3.36953 6.89592C3.60348 6.27125 4.1068 5.80607 4.7512 5.65018C8.33455 4.78327 12.6655 4.78327 16.2488 5.65018C16.8932 5.80607 17.3965 6.27125 17.6305 6.89592C18.0939 8.13325 18.6407 10.2634 18.8265 13.1743C18.9376 14.9157 17.679 15.8753 16.2858 16.5771C15.3984 17.0241 14.7159 15.7048 14.2629 14.6836C14.0154 14.1257 13.4723 13.7797 12.8567 13.7797H8.14329C7.52775 13.7797 6.98464 14.1257 6.73713 14.6836C6.28407 15.7048 5.60166 17.0241 4.71425 16.5771C3.33511 15.8824 2.06153 14.9297 2.17353 13.1743Z" stroke="#7A7A7A" stroke-width="1.5" stroke-linecap="round" stroke-linejoin="round"/>
<path d="M4.66666 3.74998L6.30236 3.33331M16.3333 3.74998L14.6667 3.33331" stroke="#7A7A7A" stroke-width="1.5" stroke-linecap="round" stroke-linejoin="round"/>
<path d="M8 10.8333L6.75 9.58331M6.75 9.58331L5.5 8.33331M6.75 9.58331L5.5 10.8333M6.75 9.58331L8 8.33331" stroke="#7A7A7A" stroke-width="1.5" stroke-linecap="round"/>
<path d="M13.8234 8.33331H13.8309" stroke="#7A7A7A" stroke-width="2" stroke-linecap="round" stroke-linejoin="round"/>
<path d="M15.4901 10.8333H15.4976" stroke="#7A7A7A" stroke-width="2" stroke-linecap="round" stroke-linejoin="round"/>
</svg>
