<svg width="14" height="14" viewBox="0 0 14 14" fill="none" xmlns="http://www.w3.org/2000/svg">
<path d="M10.1952 5.25645C10.1996 5.25643 10.2039 5.25642 10.2083 5.25642C11.658 5.25642 12.8333 6.43383 12.8333 7.88624C12.8333 9.23988 11.8124 10.3546 10.5 10.5M10.1952 5.25645C10.2039 5.1602 10.2083 5.06273 10.2083 4.96422C10.2083 3.18905 8.77187 1.75 6.99996 1.75C5.32185 1.75 3.94465 3.04072 3.80354 4.68528M10.1952 5.25645C10.1356 5.91943 9.87499 6.52435 9.47495 7.00963M3.80354 4.68528C2.32395 4.82634 1.16663 6.07479 1.16663 7.59403C1.16663 9.00768 2.16865 10.1869 3.49996 10.4576M3.80354 4.68528C3.89561 4.67651 3.98893 4.67202 4.08329 4.67202C4.74002 4.67202 5.34606 4.88947 5.83358 5.25642" stroke="#7A7A7A" stroke-width="1.5" stroke-linecap="round" stroke-linejoin="round"/>
<path d="M6.99996 12.25L6.99996 7.58333M6.99996 12.25C6.59149 12.25 5.82835 11.0867 5.54163 10.7917M6.99996 12.25C7.40843 12.25 8.17157 11.0867 8.45829 10.7917" stroke="#7A7A7A" stroke-width="1.5" stroke-linecap="round" stroke-linejoin="round"/>
</svg>
