<svg width="14" height="14" viewBox="0 0 14 14" fill="none" xmlns="http://www.w3.org/2000/svg">
<g clip-path="url(#clip0_301_42350)">
<path d="M2.04163 6.41669V8.16669C2.04163 10.3664 2.04163 11.4666 2.72529 12.1497C3.40896 12.8328 4.50854 12.8334 6.70829 12.8334H7.29163C9.49138 12.8334 10.5915 12.8334 11.2746 12.1497C11.9577 11.466 11.9583 10.3664 11.9583 8.16669V6.41669" stroke="#6D6D6D" stroke-width="1.5"/>
<path d="M5.54161 1.16669H8.45828L8.83861 4.96827C8.86367 5.2248 8.83477 5.48373 8.75377 5.72843C8.67277 5.97312 8.54146 6.19815 8.36829 6.38906C8.19512 6.57997 7.98391 6.73254 7.74825 6.83694C7.51259 6.94134 7.25769 6.99528 6.99994 6.99528C6.74219 6.99528 6.48729 6.94134 6.25164 6.83694C6.01598 6.73254 5.80477 6.57997 5.6316 6.38906C5.45843 6.19815 5.32712 5.97312 5.24612 5.72843C5.16512 5.48373 5.13622 5.2248 5.16128 4.96827L5.54161 1.16669Z" stroke="#6D6D6D" stroke-width="1.5"/>
<path d="M1.94247 3.12144C2.04631 2.60227 2.09822 2.34269 2.20381 2.1321C2.31382 1.91279 2.46872 1.71907 2.65846 1.5635C2.84819 1.40793 3.06852 1.294 3.30514 1.2291C3.53264 1.16669 3.79747 1.16669 4.32714 1.16669H5.54164L5.11872 5.39294C5.0964 5.6348 5.02496 5.86957 4.90875 6.08287C4.79255 6.29616 4.63404 6.4835 4.44293 6.63341C4.25181 6.78331 4.03211 6.89264 3.79727 6.95469C3.56244 7.01674 3.31741 7.03021 3.07719 6.99427C2.83696 6.95834 2.6066 6.87375 2.40021 6.7457C2.19381 6.61764 2.01572 6.44881 1.87684 6.24953C1.73796 6.05026 1.64121 5.82474 1.59251 5.58678C1.54382 5.34881 1.5442 5.10341 1.59364 4.8656L1.94247 3.12144ZM12.0575 3.12144C11.9536 2.60227 11.9017 2.34269 11.7961 2.1321C11.6861 1.91279 11.5312 1.71907 11.3415 1.5635C11.1518 1.40793 10.9314 1.294 10.6948 1.2291C10.4673 1.16669 10.2025 1.16669 9.67281 1.16669H8.45831L8.88122 5.39294C8.90354 5.6348 8.97499 5.86957 9.09119 6.08287C9.20739 6.29616 9.3659 6.4835 9.55702 6.63341C9.74814 6.78331 9.96784 6.89264 10.2027 6.95469C10.4375 7.01674 10.6825 7.03021 10.9228 6.99427C11.163 6.95834 11.3933 6.87375 11.5997 6.7457C11.8061 6.61764 11.9842 6.44881 12.1231 6.24953C12.262 6.05026 12.3587 5.82474 12.4074 5.58678C12.4561 5.34881 12.4557 5.10341 12.4063 4.8656L12.0575 3.12144Z" stroke="#6D6D6D" stroke-width="1.5"/>
<path d="M5.54163 12.5417V10.7917C5.54163 10.2463 5.54163 9.97387 5.65888 9.77087C5.73567 9.63787 5.84612 9.52742 5.97913 9.45062C6.18213 9.33337 6.45454 9.33337 6.99996 9.33337C7.54538 9.33337 7.81779 9.33337 8.02079 9.45062C8.1538 9.52742 8.26425 9.63787 8.34104 9.77087C8.45829 9.97387 8.45829 10.2463 8.45829 10.7917V12.5417" stroke="#6D6D6D" stroke-width="1.5" stroke-linecap="round"/>
</g>
<defs>
<clipPath id="clip0_301_42350">
<rect width="14" height="14" fill="white"/>
</clipPath>
</defs>
</svg>
