<svg width="26" height="26" viewBox="0 0 26 26" fill="none" xmlns="http://www.w3.org/2000/svg">
<path d="M0 12C0 6.34315 0 3.51472 1.75736 1.75736C3.51472 0 6.34315 0 12 0H14C19.6569 0 22.4853 0 24.2426 1.75736C26 3.51472 26 6.34315 26 12V14C26 19.6569 26 22.4853 24.2426 24.2426C22.4853 26 19.6569 26 14 26H12C6.34315 26 3.51472 26 1.75736 24.2426C0 22.4853 0 19.6569 0 14V12Z" fill="#FF9A2E"/>
<path d="M7.5291 13.02C7.8871 11.228 8.06644 10.3333 8.65777 9.756C8.76706 9.64963 8.88527 9.55283 9.0111 9.46667C9.6931 9 10.6064 9 12.4331 9H13.5684C15.3944 9 16.3071 9 16.9884 9.46667C17.1151 9.55378 17.2329 9.65044 17.3418 9.75667C17.9331 10.3333 18.1131 11.2287 18.4711 13.02C18.9851 15.5907 19.2424 16.876 18.6504 17.7867C18.5433 17.9524 18.4189 18.1042 18.2771 18.242C17.4998 19 16.1898 19 13.5684 19H12.4331C9.8111 19 8.50044 19 7.7231 18.2413C7.58247 18.1038 7.45748 17.9511 7.35044 17.786C6.75844 16.8753 7.01577 15.59 7.53044 13.0193L7.5291 13.02Z" stroke="#FAFCFF" stroke-width="1.5"/>
<path d="M14.9997 11.6666C15.3679 11.6666 15.6663 11.3681 15.6663 10.9999C15.6663 10.6317 15.3679 10.3333 14.9997 10.3333C14.6315 10.3333 14.333 10.6317 14.333 10.9999C14.333 11.3681 14.6315 11.6666 14.9997 11.6666Z" fill="#FAFCFF"/>
<path d="M10.9997 11.6666C11.3679 11.6666 11.6663 11.3681 11.6663 10.9999C11.6663 10.6317 11.3679 10.3333 10.9997 10.3333C10.6315 10.3333 10.333 10.6317 10.333 10.9999C10.333 11.3681 10.6315 11.6666 10.9997 11.6666Z" fill="#FAFCFF"/>
<path d="M11 8.99992V8.33325C11 7.80282 11.2107 7.29411 11.5858 6.91904C11.9609 6.54397 12.4696 6.33325 13 6.33325C13.5304 6.33325 14.0391 6.54397 14.4142 6.91904C14.7893 7.29411 15 7.80282 15 8.33325V8.99992" stroke="#FAFCFF" stroke-width="1.5" stroke-linecap="round"/>
</svg>
