<svg width="84" height="84" viewBox="0 0 84 84" fill="none" xmlns="http://www.w3.org/2000/svg">
<path d="M0 20C0 10.5719 0 5.85786 2.92893 2.92893C5.85786 0 10.5719 0 20 0H64C73.4281 0 78.1421 0 81.0711 2.92893C84 5.85786 84 10.5719 84 20V64C84 73.4281 84 78.1421 81.0711 81.0711C78.1421 84 73.4281 84 64 84H20C10.5719 84 5.85786 84 2.92893 81.0711C0 78.1421 0 73.4281 0 64V20Z" fill="#E85F75"/>
<path d="M51.3334 39.667V37.3337H46.6667V32.667H44.3334V37.3337H39.6667V32.667H37.3334V37.3337H32.6667V39.667H37.3334V44.3337H32.6667V46.667H37.3334V51.3337H39.6667V46.667H44.3334V51.3337H46.6667V46.667H51.3334V44.3337H46.6667V39.667H51.3334ZM44.3334 44.3337H39.6667V39.667H44.3334V44.3337Z" fill="white"/>
</svg>
