<svg width="16" height="16" viewBox="0 0 16 16" fill="none" xmlns="http://www.w3.org/2000/svg">
<path d="M12.5307 2.66669H3.46933C3.34117 2.66658 3.21569 2.70341 3.10792 2.77278C3.00016 2.84215 2.91467 2.94111 2.8617 3.05782C2.80873 3.17452 2.79052 3.30402 2.80926 3.43081C2.82799 3.55759 2.88287 3.67629 2.96733 3.77269L6.502 7.81135C6.60831 7.93301 6.66682 8.08913 6.66667 8.25069V11.5C6.66667 11.5518 6.67871 11.6028 6.70186 11.6491C6.725 11.6954 6.7586 11.7356 6.8 11.7667L8.8 13.2667C8.84952 13.3038 8.90841 13.3264 8.97006 13.332C9.03172 13.3376 9.0937 13.3258 9.14907 13.2982C9.20444 13.2705 9.251 13.2279 9.28355 13.1753C9.31609 13.1226 9.33333 13.0619 9.33333 13V8.25069C9.33317 8.08913 9.39169 7.93301 9.498 7.81135L13.0327 3.77202C13.41 3.34135 13.1033 2.66669 12.5307 2.66669Z" stroke="#7A7A7A" stroke-width="1.5" stroke-linecap="round"/>
</svg>
