<svg width="16" height="18" viewBox="0 0 16 18" fill="none" xmlns="http://www.w3.org/2000/svg">
<g clip-path="url(#clip0_4208_9531)">
<path d="M13.983 3.53461C13.9704 3.44461 13.8905 3.3948 13.8245 3.38932C13.3376 3.35321 12.8507 3.3174 12.3638 3.28187C12.3638 3.28187 11.3951 2.33286 11.2887 2.22782C11.1824 2.12284 10.9746 2.15477 10.8939 2.1782C10.8821 2.18165 10.6823 2.24249 10.3518 2.34341C10.0282 1.42454 9.45714 0.580145 8.45245 0.580145C8.42472 0.580145 8.39617 0.581254 8.36762 0.582857C8.08188 0.209974 7.72793 0.0479736 7.42221 0.0479736C5.08179 0.0479736 3.96365 2.93506 3.61308 4.40219C2.70365 4.68026 2.05759 4.87795 1.97507 4.90353C1.46744 5.06067 1.45139 5.07645 1.38473 5.54845C1.33457 5.9058 0.00634766 16.0418 0.00634766 16.0418L10.3561 17.9554L15.964 16.7583C15.964 16.7583 13.9954 3.62461 13.983 3.53461ZM9.7798 2.51798L8.90404 2.78545C8.90435 2.72455 8.90467 2.66463 8.90467 2.5991C8.90467 2.02804 8.82433 1.56823 8.69546 1.20373C9.21314 1.26784 9.55791 1.84908 9.7798 2.51798ZM8.05327 1.31697C8.1972 1.67284 8.29078 2.18356 8.29078 2.87274C8.29078 2.908 8.29047 2.94024 8.29016 2.97285C7.72062 3.14693 7.10174 3.33593 6.48148 3.52555C6.82975 2.19922 7.48255 1.55862 8.05327 1.31697ZM7.35793 0.667433C7.45894 0.667433 7.5607 0.701275 7.65809 0.767419C6.90802 1.11571 6.10404 1.9929 5.76452 3.74463L4.33485 4.18156C4.73253 2.84543 5.67688 0.667433 7.35793 0.667433Z" fill="#95BF46"/>
<path d="M13.8245 3.3894C13.3377 3.35329 12.8508 3.31748 12.3638 3.28195C12.3638 3.28195 11.3951 2.33294 11.2888 2.2279C11.249 2.18882 11.1953 2.16879 11.1392 2.16016L10.3567 17.9553L15.9641 16.7583C15.9641 16.7583 13.9954 3.62469 13.983 3.53469C13.9705 3.44469 13.8906 3.39488 13.8245 3.3894Z" fill="#5E8E3E"/>
<path d="M8.45247 6.44698L7.761 8.47666C7.761 8.47666 7.15517 8.15759 6.41253 8.15759C5.32382 8.15759 5.26903 8.83179 5.26903 9.00168C5.26903 9.92868 7.71783 10.2839 7.71783 12.4552C7.71783 14.1636 6.61981 15.2636 5.13928 15.2636C3.36266 15.2636 2.4541 14.1725 2.4541 14.1725L2.92981 12.6215C2.92981 12.6215 3.86372 13.4127 4.65177 13.4127C5.16671 13.4127 5.37617 13.0127 5.37617 12.7203C5.37617 11.5111 3.36715 11.4572 3.36715 9.47024C3.36715 7.7979 4.58356 6.17957 7.03898 6.17957C7.98507 6.17957 8.45247 6.44698 8.45247 6.44698Z" fill="white"/>
</g>
<defs>
<clipPath id="clip0_4208_9531">
<rect width="16" height="18" fill="white"/>
</clipPath>
</defs>
</svg>
