<svg width="14" height="14" viewBox="0 0 14 14" fill="none" xmlns="http://www.w3.org/2000/svg">
<g clip-path="url(#clip0_4240_1151)">
<path d="M5.56689 8.43287L8.43281 5.56696" stroke="#1C1D21" stroke-width="1.5" stroke-linecap="round"/>
<path d="M1.18528 9.86044L0.444514 9.97776L0.444514 9.97776L1.18528 9.86044ZM1.18528 9.38948L0.444514 9.27215V9.27215L1.18528 9.38948ZM4.61056 12.8148L4.72789 13.5555H4.72789L4.61056 12.8148ZM4.1396 12.8148L4.25693 12.074H4.25693L4.1396 12.8148ZM7.56488 9.86044L8.30565 9.97776V9.97776L7.56488 9.86044ZM7.56488 9.38948L8.30565 9.27216L8.30565 9.27215L7.56488 9.38948ZM4.1396 6.43516L4.25693 7.17593L4.25693 7.17592L4.1396 6.43516ZM4.61056 6.43516L4.72789 5.69439L4.72788 5.69439L4.61056 6.43516ZM4.75092 7.30125C5.08948 7.53989 5.55739 7.45888 5.79603 7.12032C6.03467 6.78176 5.95367 6.31384 5.6151 6.07521L4.75092 7.30125ZM7.92483 8.38494C7.6862 8.04638 7.21828 7.96537 6.87972 8.20401C6.54116 8.44265 6.46015 8.91056 6.69879 9.24912L7.92483 8.38494ZM2.98949 11.0106C2.57855 10.5996 2.31368 10.3333 2.13594 10.1124C1.96705 9.90242 1.93546 9.80255 1.92605 9.74311L0.444514 9.97776C0.511613 10.4014 0.717843 10.7426 0.967202 11.0526C1.20771 11.3516 1.54152 11.6839 1.92883 12.0712L2.98949 11.0106ZM1.92883 7.17871C1.54152 7.56602 1.20771 7.89837 0.967202 8.19732C0.717843 8.50728 0.511612 8.84851 0.444514 9.27215L1.92605 9.50681C1.93546 9.44737 1.96705 9.3475 2.13594 9.13757C2.31368 8.91663 2.57855 8.6503 2.98949 8.23937L1.92883 7.17871ZM1.92605 9.74311C1.91365 9.66483 1.91365 9.58509 1.92605 9.50681L0.444514 9.27215C0.407493 9.5059 0.407493 9.74402 0.444514 9.97776L1.92605 9.74311ZM5.76067 11.0106C5.34974 11.4215 5.08341 11.6864 4.86247 11.8641C4.65254 12.033 4.55267 12.0646 4.49323 12.074L4.72789 13.5555C5.15153 13.4884 5.49276 13.2822 5.80272 13.0328C6.10167 12.7923 6.43403 12.4585 6.82133 12.0712L5.76067 11.0106ZM1.92883 12.0712C2.31614 12.4585 2.64849 12.7923 2.94745 13.0328C3.2574 13.2822 3.59864 13.4884 4.02228 13.5555L4.25693 12.074C4.19749 12.0646 4.09762 12.033 3.88769 11.8641C3.66675 11.6864 3.40042 11.4215 2.98949 11.0106L1.92883 12.0712ZM4.49324 12.074C4.41496 12.0864 4.33521 12.0864 4.25693 12.074L4.02228 13.5555C4.25602 13.5925 4.49414 13.5925 4.72789 13.5555L4.49324 12.074ZM6.82133 12.0712C7.20864 11.6839 7.54245 11.3516 7.78296 11.0526C8.03232 10.7426 8.23855 10.4014 8.30565 9.97776L6.82412 9.74311C6.8147 9.80255 6.78312 9.90242 6.61422 10.1124C6.43648 10.3333 6.17161 10.5996 5.76067 11.0106L6.82133 12.0712ZM6.82412 9.5068C6.83651 9.58509 6.83651 9.66483 6.82412 9.74311L8.30565 9.97776C8.34267 9.74402 8.34267 9.5059 8.30565 9.27216L6.82412 9.5068ZM2.98949 8.23937C3.40042 7.82843 3.66675 7.56356 3.88769 7.38582C4.09762 7.21692 4.19749 7.18534 4.25693 7.17593L4.02228 5.69439C3.59864 5.76149 3.2574 5.96772 2.94745 6.21708C2.64849 6.45759 2.31614 6.7914 1.92883 7.17871L2.98949 8.23937ZM4.72788 5.69439C4.49414 5.65737 4.25602 5.65737 4.02228 5.69439L4.25693 7.17592C4.33521 7.16353 4.41495 7.16353 4.49324 7.17592L4.72788 5.69439ZM5.6151 6.07521C5.35382 5.89104 5.06708 5.74811 4.72789 5.69439L4.49323 7.17592C4.5419 7.18363 4.61595 7.20612 4.75092 7.30125L5.6151 6.07521ZM6.69879 9.24912C6.79392 9.38409 6.81641 9.45814 6.82412 9.50681L8.30565 9.27215C8.25193 8.93296 8.109 8.64622 7.92483 8.38494L6.69879 9.24912Z" fill="#1C1D21"/>
<path d="M6.43528 4.13948L5.69451 4.02215L6.43528 4.13948ZM6.43528 4.61044L5.69451 4.72776L6.43528 4.61044ZM9.86056 7.56476L9.97789 8.30553L9.97789 8.30553L9.86056 7.56476ZM9.3896 7.56476L9.50693 6.82399H9.50693L9.3896 7.56476ZM12.8149 4.13948L13.5556 4.02216V4.02215L12.8149 4.13948ZM12.8149 4.61044L13.5556 4.72777V4.72776L12.8149 4.61044ZM9.86056 1.18516L9.97789 0.444392L9.97788 0.444392L9.86056 1.18516ZM9.3896 1.18516L9.50693 1.92592L9.50693 1.92592L9.3896 1.18516ZM6.07533 5.61498C6.31397 5.95354 6.78188 6.03455 7.12044 5.79591C7.45901 5.55727 7.54001 5.08936 7.30137 4.7508L6.07533 5.61498ZM9.24925 6.69867C8.91068 6.46003 8.44277 6.54104 8.20413 6.8796C7.96549 7.21816 8.0465 7.68607 8.38506 7.92471L9.24925 6.69867ZM7.17883 1.92871C6.79152 2.31602 6.45771 2.64837 6.2172 2.94732C5.96784 3.25728 5.76161 3.59851 5.69451 4.02215L7.17605 4.25681C7.18546 4.19737 7.21705 4.0975 7.38594 3.88757C7.56368 3.66663 7.82855 3.4003 8.23949 2.98937L7.17883 1.92871ZM7.17605 4.49311C7.16365 4.41483 7.16365 4.33509 7.17605 4.25681L5.69451 4.02215C5.65749 4.2559 5.65749 4.49402 5.69451 4.72776L7.17605 4.49311ZM11.0107 5.76055C10.5997 6.17149 10.3334 6.43636 10.1125 6.6141C9.90254 6.78299 9.80267 6.81458 9.74323 6.82399L9.97789 8.30553C10.4015 8.23843 10.7428 8.0322 11.0527 7.78284C11.3517 7.54233 11.684 7.20852 12.0713 6.82121L11.0107 5.76055ZM9.74324 6.82399C9.66496 6.83639 9.58521 6.83639 9.50693 6.82399L9.27228 8.30553C9.50602 8.34255 9.74414 8.34255 9.97789 8.30553L9.74324 6.82399ZM11.0107 2.98937C11.4216 3.4003 11.6865 3.66663 11.8642 3.88757C12.0331 4.0975 12.0647 4.19737 12.0741 4.25681L13.5556 4.02215C13.4885 3.59851 13.2823 3.25728 13.033 2.94732C12.7925 2.64837 12.4586 2.31602 12.0713 1.92871L11.0107 2.98937ZM12.0713 6.82121C12.4586 6.4339 12.7925 6.10155 13.033 5.80259C13.2823 5.49264 13.4886 5.15141 13.5556 4.72777L12.0741 4.49311C12.0647 4.55255 12.0331 4.65242 11.8642 4.86235C11.6865 5.08329 11.4216 5.34962 11.0107 5.76055L12.0713 6.82121ZM12.0741 4.2568C12.0865 4.33509 12.0865 4.41483 12.0741 4.49311L13.5556 4.72776C13.5927 4.49402 13.5927 4.2559 13.5556 4.02216L12.0741 4.2568ZM12.0713 1.92871C11.684 1.5414 11.3517 1.20759 11.0527 0.96708C10.7428 0.717722 10.4015 0.511491 9.97789 0.444392L9.74323 1.92592C9.80267 1.93534 9.90254 1.96692 10.1125 2.13582C10.3334 2.31356 10.5997 2.57843 11.0107 2.98937L12.0713 1.92871ZM8.23949 2.98937C8.65042 2.57843 8.91675 2.31356 9.13769 2.13582C9.34762 1.96692 9.44749 1.93534 9.50693 1.92592L9.27228 0.444392C8.84864 0.51149 8.5074 0.717721 8.19745 0.96708C7.89849 1.20759 7.56614 1.5414 7.17883 1.92871L8.23949 2.98937ZM9.97788 0.444392C9.74414 0.407371 9.50602 0.40737 9.27228 0.444392L9.50693 1.92592C9.58521 1.91353 9.66495 1.91353 9.74324 1.92593L9.97788 0.444392ZM7.30137 4.7508C7.20624 4.61583 7.18376 4.54178 7.17605 4.49311L5.69451 4.72776C5.74824 5.06695 5.89116 5.3537 6.07533 5.61498L7.30137 4.7508ZM8.38506 7.92471C8.64634 8.10888 8.93309 8.2518 9.27228 8.30553L9.50693 6.82399C9.45826 6.81629 9.38421 6.7938 9.24925 6.69867L8.38506 7.92471Z" fill="#1C1D21"/>
</g>
<defs>
<clipPath id="clip0_4240_1151">
<rect width="14" height="14" fill="white"/>
</clipPath>
</defs>
</svg>
