<svg width="14" height="14" viewBox="0 0 14 14" fill="none" xmlns="http://www.w3.org/2000/svg">
<path d="M12.25 3.79169C12.25 4.75819 11.4665 5.54169 10.5 5.54169C9.5335 5.54169 8.75 4.75819 8.75 3.79169C8.75 2.82519 9.5335 2.04169 10.5 2.04169C11.4665 2.04169 12.25 2.82519 12.25 3.79169Z" stroke="#7A7A7A" stroke-width="1.5"/>
<path d="M5.25 7C5.25 7.9665 4.4665 8.75 3.5 8.75C2.5335 8.75 1.75 7.9665 1.75 7C1.75 6.0335 2.5335 5.25 3.5 5.25C4.4665 5.25 5.25 6.0335 5.25 7Z" stroke="#7A7A7A" stroke-width="1.5"/>
<path d="M12.25 10.2084C12.25 11.1749 11.4665 11.9584 10.5 11.9584C9.5335 11.9584 8.75 11.1749 8.75 10.2084C8.75 9.24188 9.5335 8.45837 10.5 8.45837C11.4665 8.45837 12.25 9.24188 12.25 10.2084Z" stroke="#7A7A7A" stroke-width="1.5"/>
<path d="M5.09155 6.27075L8.88322 4.52106M5.09155 7.72939L8.88322 9.47908" stroke="#7A7A7A" stroke-width="1.5"/>
</svg>
