<svg width="21" height="20" viewBox="0 0 21 20" fill="none" xmlns="http://www.w3.org/2000/svg">
<path d="M6.71068 15.6843C7.08757 15.6843 7.44903 15.834 7.71553 16.1005C7.98203 16.367 8.13175 16.7284 8.13175 17.1053C8.13175 17.4822 7.98203 17.8437 7.71553 18.1102C7.44903 18.3767 7.08757 18.5264 6.71068 18.5264C6.33379 18.5264 5.97234 18.3767 5.70583 18.1102C5.43933 17.8437 5.28961 17.4822 5.28961 17.1053C5.28961 16.7284 5.43933 16.367 5.70583 16.1005C5.97234 15.834 6.33379 15.6843 6.71068 15.6843ZM15.2371 15.6843C15.614 15.6843 15.9754 15.834 16.2419 16.1005C16.5085 16.367 16.6582 16.7284 16.6582 17.1053C16.6582 17.4822 16.5085 17.8437 16.2419 18.1102C15.9754 18.3767 15.614 18.5264 15.2371 18.5264C14.8602 18.5264 14.4988 18.3767 14.2323 18.1102C13.9658 17.8437 13.816 17.4822 13.816 17.1053C13.816 16.7284 13.9658 16.367 14.2323 16.1005C14.4988 15.834 14.8602 15.6843 15.2371 15.6843Z" stroke="#7A7A7A" stroke-width="1.5"/>
<path d="M1.5 1.47357L1.74727 1.56073C2.98075 1.99368 3.5975 2.21063 3.94992 2.72696C4.30235 3.24328 4.30235 3.92823 4.30235 5.29909V7.87786C4.30235 10.6651 4.36203 11.584 5.18341 12.4499C6.00384 13.3158 7.32449 13.3158 9.96768 13.3158H10.9738M14.9907 13.3158C16.4695 13.3158 17.2095 13.3158 17.7324 12.8895C18.2544 12.4632 18.4041 11.7394 18.7025 10.2908L19.1762 7.99439C19.505 6.34595 19.6688 5.52267 19.2482 4.97604C18.8285 4.4294 17.3913 4.4294 15.795 4.4294H10.0492M4.30235 4.4294H6.2369" stroke="#7A7A7A" stroke-width="1.5" stroke-linecap="round"/>
</svg>
