<svg width="16" height="17" viewBox="0 0 16 17" fill="none" xmlns="http://www.w3.org/2000/svg">
<path d="M1.3335 12.5C1.3335 11.473 1.3335 10.9595 1.56465 10.5823C1.69399 10.3713 1.87145 10.1938 2.08252 10.0645C2.45972 9.83331 2.9732 9.83331 4.00016 9.83331C5.02712 9.83331 5.5406 9.83331 5.91781 10.0645C6.12887 10.1938 6.30633 10.3713 6.43568 10.5823C6.66683 10.9595 6.66683 11.473 6.66683 12.5C6.66683 13.5269 6.66683 14.0404 6.43568 14.4176C6.30633 14.6287 6.12887 14.8062 5.91781 14.9355C5.5406 15.1666 5.02712 15.1666 4.00016 15.1666C2.9732 15.1666 2.45972 15.1666 2.08252 14.9355C1.87145 14.8062 1.69399 14.6287 1.56465 14.4176C1.3335 14.0404 1.3335 13.5269 1.3335 12.5Z" stroke="#7A7A7A" stroke-width="1.5"/>
<path d="M9.3335 12.5C9.3335 11.473 9.3335 10.9595 9.56465 10.5823C9.69399 10.3713 9.87145 10.1938 10.0825 10.0645C10.4597 9.83331 10.9732 9.83331 12.0002 9.83331C13.0271 9.83331 13.5406 9.83331 13.9178 10.0645C14.1289 10.1938 14.3063 10.3713 14.4357 10.5823C14.6668 10.9595 14.6668 11.473 14.6668 12.5C14.6668 13.5269 14.6668 14.0404 14.4357 14.4176C14.3063 14.6287 14.1289 14.8062 13.9178 14.9355C13.5406 15.1666 13.0271 15.1666 12.0002 15.1666C10.9732 15.1666 10.4597 15.1666 10.0825 14.9355C9.87145 14.8062 9.69399 14.6287 9.56465 14.4176C9.3335 14.0404 9.3335 13.5269 9.3335 12.5Z" stroke="#7A7A7A" stroke-width="1.5"/>
<path d="M1.3335 4.49998C1.3335 3.47302 1.3335 2.95954 1.56465 2.58233C1.69399 2.37127 1.87145 2.19381 2.08252 2.06447C2.45972 1.83331 2.9732 1.83331 4.00016 1.83331C5.02712 1.83331 5.5406 1.83331 5.91781 2.06447C6.12887 2.19381 6.30633 2.37127 6.43568 2.58233C6.66683 2.95954 6.66683 3.47302 6.66683 4.49998C6.66683 5.52694 6.66683 6.04042 6.43568 6.41762C6.30633 6.62869 6.12887 6.80615 5.91781 6.93549C5.5406 7.16665 5.02712 7.16665 4.00016 7.16665C2.9732 7.16665 2.45972 7.16665 2.08252 6.93549C1.87145 6.80615 1.69399 6.62869 1.56465 6.41762C1.3335 6.04042 1.3335 5.52694 1.3335 4.49998Z" stroke="#7A7A7A" stroke-width="1.5"/>
<path d="M9.3335 4.49998C9.3335 3.47302 9.3335 2.95954 9.56465 2.58233C9.69399 2.37127 9.87145 2.19381 10.0825 2.06447C10.4597 1.83331 10.9732 1.83331 12.0002 1.83331C13.0271 1.83331 13.5406 1.83331 13.9178 2.06447C14.1289 2.19381 14.3063 2.37127 14.4357 2.58233C14.6668 2.95954 14.6668 3.47302 14.6668 4.49998C14.6668 5.52694 14.6668 6.04042 14.4357 6.41762C14.3063 6.62869 14.1289 6.80615 13.9178 6.93549C13.5406 7.16665 13.0271 7.16665 12.0002 7.16665C10.9732 7.16665 10.4597 7.16665 10.0825 6.93549C9.87145 6.80615 9.69399 6.62869 9.56465 6.41762C9.3335 6.04042 9.3335 5.52694 9.3335 4.49998Z" stroke="#7A7A7A" stroke-width="1.5"/>
</svg>
