<svg width="30" height="30" viewBox="0 0 30 30" fill="none" xmlns="http://www.w3.org/2000/svg">
<path d="M0 15C0 8.42504 0 5.13755 1.81592 2.92485C2.14835 2.51978 2.51978 2.14835 2.92485 1.81592C5.13755 0 8.42504 0 15 0C21.575 0 24.8624 0 27.0751 1.81592C27.4802 2.14835 27.8516 2.51978 28.1841 2.92485C30 5.13755 30 8.42504 30 15C30 21.575 30 24.8624 28.1841 27.0751C27.8516 27.4802 27.4802 27.8516 27.0751 28.1841C24.8624 30 21.575 30 15 30C8.42504 30 5.13755 30 2.92485 28.1841C2.51978 27.8516 2.14835 27.4802 1.81592 27.0751C0 24.8624 0 21.575 0 15Z" fill="#6A99FF"/>
<path d="M8.81117 18.119H11.1091L10.4235 21.5242C10.4084 21.6037 10.4009 21.6844 10.401 21.7653C10.401 22.1343 10.6568 22.3377 11.011 22.3377C11.3726 22.3377 11.6362 22.1417 11.7117 21.7727L12.4497 18.119H16.0131L15.3278 21.5242C15.3053 21.5994 15.2979 21.6901 15.2979 21.7653C15.2979 22.1343 15.5541 22.3377 15.9157 22.3377C16.2773 22.3377 16.5409 22.1417 16.6164 21.7727L17.3464 18.119H20.0358C20.4501 18.119 20.7365 17.8178 20.7365 17.4109C20.7365 17.0795 20.5105 16.8082 20.1714 16.8082H17.6173L18.4167 12.8305H21.0534C21.4681 12.8305 21.7541 12.5293 21.7541 12.1224C21.7541 11.791 21.5282 11.5197 21.1891 11.5197H18.6803L19.2981 8.48385C19.3055 8.43853 19.3206 8.34049 19.3206 8.24278C19.3206 7.87345 19.057 7.6626 18.6954 7.6626C18.2737 7.6626 18.0853 7.89595 18.0098 8.25017L17.347 11.5197H13.7833L14.4011 8.48385C14.4085 8.43853 14.4236 8.34049 14.4236 8.24278C14.4236 7.87345 14.1523 7.6626 13.7985 7.6626C13.369 7.6626 13.173 7.89595 13.1051 8.25017L12.4423 11.5197H9.97152C9.55688 11.5197 9.27081 11.836 9.27081 12.2503C9.27081 12.5895 9.49677 12.8305 9.83588 12.8305H12.1788L11.38 16.8082H8.94681C8.53217 16.8082 8.24609 17.1245 8.24609 17.5388C8.24609 17.8779 8.47206 18.119 8.81117 18.119ZM12.7133 16.8082L13.5198 12.8305H17.0828L16.2767 16.8082H12.7133Z" fill="#FAFCFF"/>
</svg>
