<svg width="30" height="30" viewBox="0 0 30 30" fill="none" xmlns="http://www.w3.org/2000/svg">
<path d="M0 15C0 8.42504 0 5.13755 1.81592 2.92485C2.14835 2.51978 2.51978 2.14835 2.92485 1.81592C5.13755 0 8.42504 0 15 0C21.575 0 24.8624 0 27.0751 1.81592C27.4802 2.14835 27.8516 2.51978 28.1841 2.92485C30 5.13755 30 8.42504 30 15C30 21.575 30 24.8624 28.1841 27.0751C27.8516 27.4802 27.4802 27.8516 27.0751 28.1841C24.8624 30 21.575 30 15 30C8.42504 30 5.13755 30 2.92485 28.1841C2.51978 27.8516 2.14835 27.4802 1.81592 27.0751C0 24.8624 0 21.575 0 15Z" fill="#31951D"/>
<g clip-path="url(#clip0_4292_2186)">
<ellipse cx="17.625" cy="14.25" rx="4.875" ry="1.5" stroke="#FAFCFF" stroke-width="1.5"/>
<path d="M22.5 17.625C22.5 18.4534 20.3174 19.125 17.625 19.125C14.9326 19.125 12.75 18.4534 12.75 17.625" stroke="#FAFCFF" stroke-width="1.5"/>
<path d="M22.5 14.25V20.85C22.5 21.7613 20.3174 22.5 17.625 22.5C14.9326 22.5 12.75 21.7613 12.75 20.85V14.25" stroke="#FAFCFF" stroke-width="1.5"/>
<ellipse cx="12.375" cy="9" rx="4.875" ry="1.5" stroke="#FAFCFF" stroke-width="1.5"/>
<path d="M10.5 14.25C9.08114 14.0773 7.77744 13.6309 7.5 12.75M10.5 18C9.08114 17.8273 7.77744 17.3809 7.5 16.5" stroke="#FAFCFF" stroke-width="1.5" stroke-linecap="round"/>
<path d="M10.5 21.75C9.08114 21.5773 7.77744 21.1309 7.5 20.25L7.5 9" stroke="#FAFCFF" stroke-width="1.5" stroke-linecap="round"/>
<path d="M17.25 10.5V9" stroke="#FAFCFF" stroke-width="1.5" stroke-linecap="round"/>
</g>
<defs>
<clipPath id="clip0_4292_2186">
<rect width="18" height="18" fill="white" transform="translate(6 6)"/>
</clipPath>
</defs>
</svg>
