<svg width="21" height="20" viewBox="0 0 21 20" fill="none" xmlns="http://www.w3.org/2000/svg">
<path d="M18 6.25002L14.6667 7.91669M14.6667 7.91669L14.25 8.12502L10.5 10M14.6667 7.91669V10.8334M14.6667 7.91669L6.75002 3.75002M10.5 10L3.00002 6.25002M10.5 10V17.9167M13.4817 2.81835L15.1484 3.69335C16.9409 4.63419 17.8375 5.10419 18.3359 5.95002C18.8334 6.79502 18.8334 7.84752 18.8334 9.95169V10.0492C18.8334 12.1525 18.8334 13.205 18.3359 14.05C17.8375 14.8959 16.9409 15.3667 15.1484 16.3075L13.4817 17.1817C12.0184 17.9492 11.2867 18.3334 10.5 18.3334C9.71335 18.3334 8.98169 17.95 7.51835 17.1817L5.85169 16.3067C4.05919 15.3659 3.16252 14.8959 2.66419 14.05C2.16669 13.205 2.16669 12.1525 2.16669 10.05V9.95252C2.16669 7.84835 2.16669 6.79585 2.66419 5.95085C3.16252 5.10502 4.05919 4.63419 5.85169 3.69419L7.51835 2.81919C8.98169 2.05085 9.71335 1.66669 10.5 1.66669C11.2867 1.66669 12.0184 2.05002 13.4817 2.81835Z" stroke="#7A7A7A" stroke-width="1.5" stroke-linecap="round"/>
</svg>
