<svg width="26" height="26" viewBox="0 0 26 26" fill="none" xmlns="http://www.w3.org/2000/svg">
<path d="M0 12C0 6.34315 0 3.51472 1.75736 1.75736C3.51472 0 6.34315 0 12 0H14C19.6569 0 22.4853 0 24.2426 1.75736C26 3.51472 26 6.34315 26 12V14C26 19.6569 26 22.4853 24.2426 24.2426C22.4853 26 19.6569 26 14 26H12C6.34315 26 3.51472 26 1.75736 24.2426C0 22.4853 0 19.6569 0 14V12Z" fill="#EC1C24"/>
<path d="M9.33301 9.99992C9.33301 10.1767 9.40325 10.3463 9.52827 10.4713C9.65329 10.5963 9.82286 10.6666 9.99967 10.6666C10.1765 10.6666 10.3461 10.5963 10.4711 10.4713C10.5961 10.3463 10.6663 10.1767 10.6663 9.99992C10.6663 9.82311 10.5961 9.65354 10.4711 9.52851C10.3461 9.40349 10.1765 9.33325 9.99967 9.33325C9.82286 9.33325 9.65329 9.40349 9.52827 9.52851C9.40325 9.65354 9.33301 9.82311 9.33301 9.99992Z" stroke="#FAFCFF" stroke-width="1.5" stroke-linecap="round" stroke-linejoin="round"/>
<path d="M7 9V12.448C7.00008 12.8016 7.1406 13.1407 7.39067 13.3907L12.5307 18.5307C12.832 18.8319 13.2406 19.0012 13.6667 19.0012C14.0927 19.0012 14.5014 18.8319 14.8027 18.5307L18.5307 14.8027C18.8319 14.5014 19.0012 14.0927 19.0012 13.6667C19.0012 13.2406 18.8319 12.832 18.5307 12.5307L13.3907 7.39067C13.1407 7.1406 12.8016 7.00008 12.448 7H9C8.46957 7 7.96086 7.21071 7.58579 7.58579C7.21071 7.96086 7 8.46957 7 9Z" stroke="#FAFCFF" stroke-width="1.5" stroke-linecap="round" stroke-linejoin="round"/>
</svg>
