<svg width="17" height="16" viewBox="0 0 17 16" fill="none" xmlns="http://www.w3.org/2000/svg">
<path d="M1.83331 12C1.83331 10.973 1.83331 10.4595 2.06447 10.0823C2.19381 9.87127 2.37127 9.69381 2.58233 9.56447C2.95954 9.33331 3.47302 9.33331 4.49998 9.33331C5.52694 9.33331 6.04042 9.33331 6.41762 9.56447C6.62869 9.69381 6.80615 9.87127 6.93549 10.0823C7.16665 10.4595 7.16665 10.973 7.16665 12C7.16665 13.0269 7.16665 13.5404 6.93549 13.9176C6.80615 14.1287 6.62869 14.3062 6.41762 14.4355C6.04042 14.6666 5.52694 14.6666 4.49998 14.6666C3.47302 14.6666 2.95954 14.6666 2.58233 14.4355C2.37127 14.3062 2.19381 14.1287 2.06447 13.9176C1.83331 13.5404 1.83331 13.0269 1.83331 12Z" stroke="#7B2CBF" stroke-width="1.5"/>
<path d="M9.83331 12C9.83331 10.973 9.83331 10.4595 10.0645 10.0823C10.1938 9.87127 10.3713 9.69381 10.5823 9.56447C10.9595 9.33331 11.473 9.33331 12.5 9.33331C13.5269 9.33331 14.0404 9.33331 14.4176 9.56447C14.6287 9.69381 14.8062 9.87127 14.9355 10.0823C15.1666 10.4595 15.1666 10.973 15.1666 12C15.1666 13.0269 15.1666 13.5404 14.9355 13.9176C14.8062 14.1287 14.6287 14.3062 14.4176 14.4355C14.0404 14.6666 13.5269 14.6666 12.5 14.6666C11.473 14.6666 10.9595 14.6666 10.5823 14.4355C10.3713 14.3062 10.1938 14.1287 10.0645 13.9176C9.83331 13.5404 9.83331 13.0269 9.83331 12Z" stroke="#7B2CBF" stroke-width="1.5"/>
<path d="M1.83331 3.99998C1.83331 2.97302 1.83331 2.45954 2.06447 2.08233C2.19381 1.87127 2.37127 1.69381 2.58233 1.56447C2.95954 1.33331 3.47302 1.33331 4.49998 1.33331C5.52694 1.33331 6.04042 1.33331 6.41762 1.56447C6.62869 1.69381 6.80615 1.87127 6.93549 2.08233C7.16665 2.45954 7.16665 2.97302 7.16665 3.99998C7.16665 5.02694 7.16665 5.54042 6.93549 5.91762C6.80615 6.12869 6.62869 6.30615 6.41762 6.43549C6.04042 6.66665 5.52694 6.66665 4.49998 6.66665C3.47302 6.66665 2.95954 6.66665 2.58233 6.43549C2.37127 6.30615 2.19381 6.12869 2.06447 5.91762C1.83331 5.54042 1.83331 5.02694 1.83331 3.99998Z" stroke="#7B2CBF" stroke-width="1.5"/>
<path d="M9.83331 3.99998C9.83331 2.97302 9.83331 2.45954 10.0645 2.08233C10.1938 1.87127 10.3713 1.69381 10.5823 1.56447C10.9595 1.33331 11.473 1.33331 12.5 1.33331C13.5269 1.33331 14.0404 1.33331 14.4176 1.56447C14.6287 1.69381 14.8062 1.87127 14.9355 2.08233C15.1666 2.45954 15.1666 2.97302 15.1666 3.99998C15.1666 5.02694 15.1666 5.54042 14.9355 5.91762C14.8062 6.12869 14.6287 6.30615 14.4176 6.43549C14.0404 6.66665 13.5269 6.66665 12.5 6.66665C11.473 6.66665 10.9595 6.66665 10.5823 6.43549C10.3713 6.30615 10.1938 6.12869 10.0645 5.91762C9.83331 5.54042 9.83331 5.02694 9.83331 3.99998Z" stroke="#7B2CBF" stroke-width="1.5"/>
</svg>
