<svg width="16" height="16" viewBox="0 0 16 16" fill="none" xmlns="http://www.w3.org/2000/svg">
<g clip-path="url(#clip0_184_14368)">
<path d="M12 1.33325V2.66659M4 1.33325V2.66659" stroke="#7A7A7A" stroke-width="1.5" stroke-linecap="round" stroke-linejoin="round"/>
<path d="M7.3665 14.6667C4.6795 14.6667 3.336 14.6667 2.50125 13.7642C1.6665 12.8618 1.6665 11.4094 1.6665 8.5045V8.16216C1.6665 5.25729 1.6665 3.80486 2.50125 2.90243C3.336 2 4.6795 2 7.3665 2H8.63317C11.3202 2 12.6637 2 13.4984 2.90243C14.3175 3.7879 14.3329 5.20292 14.3332 8" stroke="#7A7A7A" stroke-width="1.5" stroke-linecap="round" stroke-linejoin="round"/>
<path d="M2 5.33325H14" stroke="#7A7A7A" stroke-width="1.5" stroke-linecap="round" stroke-linejoin="round"/>
<path d="M8.6665 11.9999H13.9998M11.3332 9.33325L11.3332 14.6666" stroke="#7A7A7A" stroke-width="1.5" stroke-linecap="round" stroke-linejoin="round"/>
</g>
<defs>
<clipPath id="clip0_184_14368">
<rect width="16" height="16" fill="white"/>
</clipPath>
</defs>
</svg>
