<svg width="90" height="26" viewBox="0 0 90 26" fill="none" xmlns="http://www.w3.org/2000/svg">
<g clip-path="url(#clip0_468_23720)">
<path d="M1.30566 10.9144C1.30566 4.21224 5.78919 1.29059 10.7905 1.29059C16.9117 1.29059 20.0448 5.32967 20.0448 11.0298C20.0448 17.732 15.6192 20.6536 10.5889 20.6536C4.46767 20.6536 1.30566 16.6145 1.30566 10.9144ZM15.8485 11.0575C15.8485 7.10503 14.1528 4.61278 10.7905 4.61278C7.42812 4.61278 5.50196 7.07617 5.50196 10.8855C5.50196 14.6948 7.19761 17.3302 10.5889 17.3302C13.9802 17.3302 15.8485 14.8668 15.8485 11.0575Z" fill="#FE2C55"/>
<path d="M34.8567 10.8001V19.0322C34.8567 19.707 34.3087 20.2531 33.6317 20.2531H32.1726C31.4955 20.2531 30.9476 19.707 30.9476 19.0322V11.9464C30.9476 10.3996 30.5457 9.8559 29.194 9.8559C28.418 9.8559 27.5563 10.1422 26.493 10.7725V19.0322C26.493 19.707 25.9451 20.2531 25.2681 20.2531H23.809C23.1319 20.2531 22.584 19.707 22.584 19.0322V8.43417C22.584 7.87485 23.01 7.40816 23.5676 7.35524L25.2331 7.19646C25.9077 7.13271 26.4918 7.66075 26.4918 8.33674C27.7844 7.53446 29.2218 6.93304 30.8607 6.93304C33.505 6.93304 34.8554 8.279 34.8554 10.8001H34.8567Z" fill="#FE2C55"/>
<path d="M39.0178 0.419769L39.9978 0.325949C40.8583 0.244157 41.6017 0.917738 41.6017 1.77896V19.2115C41.6017 19.7864 41.1346 20.2519 40.5578 20.2519H38.7378C38.1609 20.2519 37.6938 19.7864 37.6938 19.2115V1.87278C37.6938 1.11981 38.2671 0.490736 39.019 0.419769H39.0178Z" fill="#FE2C55"/>
<path d="M50.1806 17.6779L50.2747 18.6546C50.3568 19.5122 49.6809 20.2531 48.8168 20.2531H39.6904C39.1135 20.2531 38.6465 19.7876 38.6465 19.2127V17.3988C38.6465 16.8239 39.1135 16.3584 39.6904 16.3584H48.7226C49.4782 16.3584 50.1093 16.9297 50.1806 17.6791V17.6779Z" fill="#FE2C55"/>
<path d="M56.4366 7.36247C56.6659 7.36247 56.8336 7.57898 56.7757 7.8003L56.7057 8.06372L52.9536 19.7648C51.5451 24.1479 49.6769 25.981 46.142 25.981C45.5047 25.981 44.923 25.9088 44.4186 25.8029C43.7934 25.6718 43.4265 25.0235 43.6413 24.4233L43.9189 23.6487C44.0903 23.1724 44.5791 22.8837 45.0787 22.9679C45.3346 23.0112 45.5904 23.0304 45.8523 23.0304C47.0302 23.0304 48.1804 22.7442 49.129 20.2519H48.8128C48.3807 20.2519 47.9921 19.9849 47.8388 19.5819L43.4494 7.82916L43.4313 7.78466C43.3517 7.58138 43.5013 7.36127 43.721 7.36127H46.6983C47.0857 7.36127 47.4285 7.60785 47.5504 7.97471L49.6455 14.2655C49.9038 15.0389 50.1053 15.87 50.2779 16.5857C50.4505 15.87 50.6798 15.01 50.8814 14.3232L52.688 7.8869C52.7749 7.57657 53.0586 7.36247 53.382 7.36247H56.433H56.4366Z" fill="#FE2C55"/>
<path d="M26.3159 9.64784C26.3171 9.59492 26.3183 9.5432 26.3183 9.49027C26.3183 9.43735 26.3183 9.38442 26.3159 9.3327V9.64784Z" fill="#FE2C55"/>
<path d="M19.8108 9.33152C19.8904 8.64351 20.4854 8.10825 21.2071 8.10825C21.9288 8.10825 22.5226 8.64351 22.6035 9.33152H26.5656C26.48 6.49406 24.1145 4.21832 21.2071 4.21832C18.2998 4.21832 15.9343 6.49286 15.8486 9.33152H19.8108Z" fill="#FE2C55"/>
<path d="M31.1967 18.4838C31.1955 18.5367 31.1943 18.5884 31.1943 18.6413C31.1943 18.6943 31.1943 18.7472 31.1967 18.7989V18.4838Z" fill="#FE2C55"/>
<path d="M37.6836 18.8013C37.6039 19.4893 37.0113 20.0246 36.292 20.0246C35.5727 20.0246 34.9802 19.4893 34.9005 18.8013H30.9492C31.0349 21.6388 33.3943 23.9145 36.2932 23.9145C39.1921 23.9145 41.5516 21.64 41.6373 18.8013H37.686H37.6836Z" fill="#FE2C55"/>
<path d="M0 10.9384C0 4.23629 4.48353 1.31464 9.48359 1.31464C15.6048 1.31464 18.7379 5.35372 18.7379 11.0539C18.7379 17.756 14.3123 20.6777 9.28205 20.6777C3.1608 20.6777 0 16.6386 0 10.9384ZM14.5428 11.0816C14.5428 7.12908 12.8471 4.63683 9.4848 4.63683C6.12246 4.63683 4.19629 7.10021 4.19629 10.9096C4.19629 14.7189 5.89194 17.3543 9.28325 17.3543C12.6746 17.3543 14.5428 14.8909 14.5428 11.0816Z" fill="#25F5EF"/>
<path d="M33.55 10.8242V19.0563C33.55 19.7311 33.0021 20.2772 32.325 20.2772H30.8659C30.1889 20.2772 29.641 19.7311 29.641 19.0563V11.9705C29.641 10.4236 29.2391 9.87995 27.8874 9.87995C27.1114 9.87995 26.2497 10.1662 25.1864 10.7965V19.0563C25.1864 19.7311 24.6385 20.2772 23.9614 20.2772H22.5023C21.8253 20.2772 21.2773 19.7311 21.2773 19.0563V8.45821C21.2773 7.8989 21.7034 7.43221 22.2609 7.37928L23.9264 7.22051C24.6011 7.15676 25.1852 7.6848 25.1852 8.36079C26.4778 7.5585 27.9151 6.95709 29.5541 6.95709C32.1983 6.95709 33.5488 8.30305 33.5488 10.8242H33.55Z" fill="#25F5EF"/>
<path d="M37.7121 0.443817L38.6921 0.349997C39.5526 0.268205 40.296 0.941786 40.296 1.80301V19.2355C40.296 19.8105 39.829 20.276 39.2521 20.276H37.4321C36.8552 20.276 36.3882 19.8105 36.3882 19.2355V1.89683C36.3882 1.14386 36.9614 0.514784 37.7133 0.443817H37.7121Z" fill="#25F5EF"/>
<path d="M48.8734 17.7019L48.9676 18.6786C49.0496 19.5362 48.3738 20.2772 47.5097 20.2772H38.3833C37.8064 20.2772 37.3394 19.8117 37.3394 19.2367V17.4229C37.3394 16.8479 37.8064 16.3824 38.3833 16.3824H47.4155C48.171 16.3824 48.8022 16.9538 48.8734 17.7031V17.7019Z" fill="#25F5EF"/>
<path d="M55.1309 7.38652C55.3602 7.38652 55.528 7.60303 55.4701 7.82435L55.4001 8.08776L51.6479 19.7888C50.2395 24.1719 48.3712 26.005 44.8363 26.005C44.1991 26.005 43.6174 25.9328 43.1129 25.827C42.4877 25.6959 42.1209 25.0476 42.3357 24.4474L42.6133 23.6727C42.7846 23.1964 43.2734 22.9077 43.7731 22.9919C44.0289 23.0352 44.2848 23.0545 44.5467 23.0545C45.7246 23.0545 46.8747 22.7682 47.8233 20.276H47.5071C47.0751 20.276 46.6864 20.0089 46.5332 19.606L42.1438 7.85321L42.1257 7.80871C42.046 7.60543 42.1957 7.38531 42.4153 7.38531H45.3927C45.7801 7.38531 46.1228 7.63189 46.2447 7.99875L48.3399 14.2895C48.5981 15.0629 48.7997 15.8941 48.9723 16.6098C49.1448 15.8941 49.3741 15.0341 49.5757 14.3473L51.3824 7.91095C51.4693 7.60062 51.7529 7.38652 52.0763 7.38652H55.1273H55.1309Z" fill="#25F5EF"/>
<path d="M25.0103 9.36397C25.0115 9.31104 25.0127 9.25932 25.0127 9.2064C25.0127 9.15347 25.0127 9.10055 25.0103 9.04883V9.36397Z" fill="#25F5EF"/>
<path d="M18.5051 9.04765C18.5848 8.35963 19.1798 7.82438 19.9015 7.82438C20.6232 7.82438 21.217 8.35963 21.2978 9.04765H25.26C25.1743 6.21019 22.8088 3.93445 19.9015 3.93445C16.9941 3.93445 14.6287 6.20899 14.543 9.04765H18.5051Z" fill="#25F5EF"/>
<path d="M29.8906 18.1999C29.8894 18.2528 29.8882 18.3045 29.8882 18.3575C29.8882 18.4104 29.8882 18.4633 29.8906 18.515V18.1999Z" fill="#25F5EF"/>
<path d="M36.3774 18.5175C36.2978 19.2055 35.7052 19.7407 34.9859 19.7407C34.2666 19.7407 33.674 19.2055 33.5944 18.5175H29.6431C29.7288 21.3549 32.0882 23.6307 34.9871 23.6307C37.886 23.6307 40.2454 21.3561 40.3311 18.5175H36.3798H36.3774Z" fill="#25F5EF"/>
<path d="M82.6938 16.3055C80.0278 15.2722 78.0522 14.2631 78.0522 11.434C78.0522 8.28505 81.1623 7.00525 84.0262 7.00525C85.3526 7.00525 86.8624 7.32881 88.3106 8.02043C89.0685 8.38248 89.328 9.3291 88.8646 10.0267C88.4361 10.6715 87.5937 10.9036 86.8962 10.5632C85.9476 10.1001 85.0822 9.85955 84.0021 9.85955C82.3487 9.85955 81.6076 10.4742 81.6076 11.3114C81.6076 12.1485 82.1507 12.6152 84.5947 13.5005M84.5947 13.5005L85.1377 13.6978C87.5575 14.583 90.0014 15.5188 90.0014 18.7664C90.0014 22.0141 87.1629 23.6379 83.6074 23.6379C81.4664 23.6379 79.7623 23.158 78.3901 22.4074C77.7819 22.0754 77.5851 21.2984 77.9617 20.7174L78.2779 20.2291C78.611 19.7143 79.2808 19.5399 79.8287 19.8177C81.1514 20.4901 82.3414 20.7343 83.3854 20.7343C85.2126 20.7343 86.3965 20.1689 86.3965 18.9625C86.3965 17.904 85.7545 17.4866 83.2611 16.5268L82.6938 16.3055" fill="#938AF4"/>
<path opacity="0.3" d="M82.6128 16.3055L84.5933 17.0356L86.3106 14.144L84.5933 13.5017L82.6128 16.3055Z" fill="url(#paint0_linear_468_23720)"/>
<path d="M82.6927 16.3058C80.0263 15.2726 78.0518 14.264 78.0518 11.4342C78.0518 8.28527 81.1619 7.0058 84.0259 7.0058C85.3911 7.0058 86.9497 7.3485 88.4353 8.08109C89.124 8.42071 89.3557 9.28669 88.9315 9.92386L88.7297 10.2276C88.3704 10.7673 87.6611 10.952 87.0836 10.6565C86.0592 10.1321 85.1533 9.85922 84.0023 9.85922C82.3479 9.85922 81.6077 10.4738 81.6077 11.3111C81.6077 12.1483 82.1512 12.6152 84.5942 13.5006" fill="#762CB6"/>
<path opacity="0.3" d="M82.6934 16.3055C80.0274 15.2722 78.0518 14.2631 78.0518 11.434C78.0518 8.28505 81.1619 7.00525 84.0258 7.00525C85.3907 7.00525 86.95 7.34805 88.4357 8.08057C89.1248 8.41977 89.3565 9.2858 88.9317 9.9233L88.729 10.2276C88.3693 10.7677 87.6609 10.9529 87.0828 10.657C86.0581 10.1326 85.1518 9.85955 84.0016 9.85955C82.3482 9.85955 81.6072 10.4742 81.6072 11.3114C81.6072 12.1485 82.1503 12.6152 84.5942 13.5005" fill="url(#paint1_linear_468_23720)"/>
<path d="M71.1455 7.00579H67.15C66.3923 7.00579 65.8816 7.77942 66.1823 8.47303L66.6291 9.50317C66.7958 9.88794 67.1757 10.1362 67.5968 10.1362H71.1445C74.4924 10.1362 76.2951 11.4198 76.2951 15.3208C76.2951 19.582 74.3122 20.5054 70.3723 20.5054H67.7039C67.1222 20.5054 66.6497 20.9753 66.6497 21.5561V22.5862C66.6497 23.1659 67.1212 23.6369 67.7039 23.6369H71.0158C75.8832 23.6369 80.2617 21.0954 80.2617 15.3208C80.2617 8.90396 76.4505 7.00476 71.1445 7.00476L71.1455 7.00579Z" fill="#762CB6"/>
<path d="M61.4117 9.81817H61.4611C61.7082 10.8052 62.0057 12.0395 62.3032 13.0266L63.2812 16.5911L64.0163 19.3244L64.9027 22.6232C65.0633 23.2214 65.6069 23.6369 66.2277 23.6369H67.3745C68.299 23.6369 68.9579 22.7442 68.6851 21.8649L64.4199 8.15598C64.2068 7.47161 63.5716 7.00476 62.8519 7.00476H61.4106" fill="#762CB6"/>
<path d="M61.5312 9.56245L61.4648 9.83188C61.2174 10.8194 60.9048 12.0391 60.6079 13.0266L59.6291 16.5917L58.8941 19.3258L58.0071 22.6251C57.8466 23.2229 57.3035 23.6379 56.6819 23.6379H55.5354C54.611 23.6379 53.952 22.7454 54.2248 21.8661L58.52 8.06253C58.7155 7.43345 59.2984 7.00525 59.9586 7.00525H62.0767" fill="#938AF4"/>
<path d="M62.7863 7.00525H62.0779L61.501 9.70198H64.8995L64.4385 8.2189C64.214 7.4972 63.5442 7.00525 62.7863 7.00525Z" fill="#34A853"/>
<path opacity="0.3" d="M62.7863 7.00525H62.0779L61.501 9.70198H64.8995L64.4385 8.2189C64.214 7.4972 63.5442 7.00525 62.7863 7.00525Z" fill="url(#paint2_linear_468_23720)"/>
<path d="M74.8441 15.8785C74.8888 15.8785 74.9769 15.8688 75.0095 15.834C75.0324 15.8087 75.0541 15.7906 74.9974 15.7906C74.9527 15.7906 74.8646 15.8003 74.832 15.8352C74.8091 15.8604 74.7874 15.8785 74.8441 15.8785Z" fill="#1D1D1B"/>
<path d="M79.0285 22.6973C78.6423 22.5469 78.2778 22.3761 77.935 22.1885C77.3268 21.8565 77.1301 21.0795 77.5066 20.4985L77.8228 20.0102C78.1559 19.4954 78.8257 19.321 79.3736 19.5988C79.5933 19.7107 79.8105 19.8105 80.0229 19.8995" fill="#938AF4"/>
<path d="M0.652832 10.5956C0.652832 3.8923 5.13636 0.970642 10.1376 0.970642C16.2589 0.970642 19.3919 5.00972 19.3919 10.7099C19.3919 17.412 14.9663 20.3337 9.93609 20.3337C3.81483 20.3337 0.652832 16.2946 0.652832 10.5944V10.5956ZM15.1956 10.7388C15.1956 6.78629 13.5 4.29404 10.1376 4.29404C6.77529 4.29404 4.84912 6.75742 4.84912 10.5668C4.84912 14.3761 6.54478 17.0115 9.93609 17.0115C13.3274 17.0115 15.1956 14.5481 15.1956 10.7388Z" fill="white"/>
<path d="M34.2038 10.4802V18.7123C34.2038 19.3871 33.6559 19.9332 32.9789 19.9332H31.5197C30.8427 19.9332 30.2948 19.3871 30.2948 18.7123V11.6265C30.2948 10.0796 29.8929 9.53596 28.5412 9.53596C27.7652 9.53596 26.9035 9.82223 25.8402 10.4525V18.7123C25.8402 19.3871 25.2923 19.9332 24.6152 19.9332H23.1561C22.4791 19.9332 21.9312 19.3871 21.9312 18.7123V8.11422C21.9312 7.55491 22.3572 7.08821 22.9148 7.03529L24.5802 6.87652C25.2549 6.81277 25.839 7.34081 25.839 8.01679C27.1316 7.21451 28.5689 6.6131 30.2079 6.6131C32.8521 6.6131 34.2026 7.95906 34.2026 10.4802H34.2038Z" fill="white"/>
<path d="M38.365 0.099823L39.3449 0.00600288C40.2054 -0.0757891 40.9489 0.597792 40.9489 1.45901V18.8915C40.9489 19.4665 40.4818 19.932 39.9049 19.932H38.085C37.5081 19.932 37.041 19.4665 37.041 18.8915V1.55283C37.041 0.799866 37.6143 0.17079 38.3662 0.099823H38.365Z" fill="white"/>
<path d="M49.5277 17.3579L49.6219 18.3346C49.7039 19.1923 49.0281 19.9332 48.164 19.9332H39.0376C38.4607 19.9332 37.9937 19.4677 37.9937 18.8928V17.0789C37.9937 16.5039 38.4607 16.0385 39.0376 16.0385H48.0698C48.8253 16.0385 49.4565 16.6098 49.5277 17.3592V17.3579Z" fill="white"/>
<path d="M55.7838 7.04374C56.0131 7.04374 56.1808 7.26025 56.1229 7.48157L56.0529 7.74499L52.3007 19.446C50.8923 23.8291 49.0241 25.6622 45.4891 25.6622C44.8519 25.6622 44.2702 25.5901 43.7657 25.4842C43.1406 25.3531 42.7737 24.7048 42.9885 24.1046L43.2661 23.33C43.4375 22.8536 43.9262 22.565 44.4259 22.6492C44.6817 22.6925 44.9376 22.7117 45.1995 22.7117C46.3774 22.7117 47.5275 22.4254 48.4762 19.9332H48.1599C47.7279 19.9332 47.3393 19.6662 47.186 19.2632L42.7966 7.51044L42.7785 7.46594C42.6989 7.26266 42.8485 7.04254 43.0682 7.04254H46.0455C46.4329 7.04254 46.7757 7.28912 46.8976 7.65598L48.9927 13.9467C49.251 14.7202 49.4525 15.5513 49.6251 16.267C49.7977 15.5513 50.027 14.6913 50.2285 14.0045L52.0352 7.56817C52.1221 7.25785 52.4057 7.04374 52.7292 7.04374H55.7801H55.7838Z" fill="white"/>
<path d="M25.6631 9.32912C25.6643 9.27619 25.6655 9.22447 25.6655 9.17155C25.6655 9.11862 25.6655 9.0657 25.6631 9.01398V9.32912Z" fill="white"/>
<path d="M19.158 9.01158C19.2376 8.32356 19.8326 7.78831 20.5543 7.78831C21.276 7.78831 21.8698 8.32356 21.9507 9.01158H25.9128C25.8271 6.17412 23.4617 3.89838 20.5543 3.89838C17.647 3.89838 15.2815 6.17291 15.1958 9.01158H19.158Z" fill="white"/>
<path d="M30.5434 18.165C30.5422 18.218 30.541 18.2697 30.541 18.3226C30.541 18.3755 30.541 18.4285 30.5434 18.4802V18.165Z" fill="white"/>
<path d="M37.0302 18.4814C36.9506 19.1694 36.358 19.7047 35.6387 19.7047C34.9194 19.7047 34.3268 19.1694 34.2472 18.4814H30.2959C30.3816 21.3188 32.741 23.5946 35.6399 23.5946C38.5388 23.5946 40.8983 21.32 40.9839 18.4814H37.0327H37.0302Z" fill="white"/>
</g>
<defs>
<linearGradient id="paint0_linear_468_23720" x1="85.4876" y1="15.8965" x2="84.0531" y2="14.9515" gradientUnits="userSpaceOnUse">
<stop stop-color="white" stop-opacity="0"/>
<stop offset="0.34" stop-color="#E5E5E5" stop-opacity="0.11"/>
<stop offset="0.68" stop-color="#9A9899" stop-opacity="0.46"/>
<stop offset="1" stop-color="#231F20"/>
</linearGradient>
<linearGradient id="paint1_linear_468_23720" x1="88.49" y1="11.6566" x2="79.0788" y2="11.6566" gradientUnits="userSpaceOnUse">
<stop stop-color="white" stop-opacity="0"/>
<stop offset="0.34" stop-color="#E5E5E5" stop-opacity="0.11"/>
<stop offset="0.68" stop-color="#9A9899" stop-opacity="0.46"/>
<stop offset="1" stop-color="#231F20"/>
</linearGradient>
<linearGradient id="paint2_linear_468_23720" x1="65.0625" y1="8.99712" x2="61.9051" y2="8.27202" gradientUnits="userSpaceOnUse">
<stop stop-color="white" stop-opacity="0"/>
<stop offset="0.34" stop-color="#E5E5E5" stop-opacity="0.11"/>
<stop offset="0.68" stop-color="#9A9899" stop-opacity="0.46"/>
<stop offset="1" stop-color="#231F20"/>
</linearGradient>
<clipPath id="clip0_468_23720">
<rect width="90" height="26.005" fill="white"/>
</clipPath>
</defs>
</svg>
