<svg width="90" height="26" viewBox="0 0 90 26" fill="none" xmlns="http://www.w3.org/2000/svg">
<g clip-path="url(#clip0_4006_12809)">
<path d="M1.30591 10.9144C1.30591 4.21224 5.78944 1.29059 10.7907 1.29059C16.912 1.29059 20.045 5.32967 20.045 11.0298C20.045 17.732 15.6194 20.6536 10.5892 20.6536C4.46791 20.6536 1.30591 16.6145 1.30591 10.9144ZM15.8487 11.0575C15.8487 7.10503 14.1531 4.61278 10.7907 4.61278C7.42837 4.61278 5.5022 7.07617 5.5022 10.8855C5.5022 14.6948 7.19785 17.3302 10.5892 17.3302C13.9805 17.3302 15.8487 14.8668 15.8487 11.0575Z" fill="#FE2C55"/>
<path d="M34.8569 10.8001V19.0322C34.8569 19.707 34.309 20.2531 33.6319 20.2531H32.1728C31.4958 20.2531 30.9478 19.707 30.9478 19.0322V11.9464C30.9478 10.3996 30.546 9.8559 29.1943 9.8559C28.4182 9.8559 27.5565 10.1422 26.4933 10.7725V19.0322C26.4933 19.707 25.9454 20.2531 25.2683 20.2531H23.8092C23.1321 20.2531 22.5842 19.707 22.5842 19.0322V8.43417C22.5842 7.87485 23.0103 7.40816 23.5678 7.35524L25.2333 7.19646C25.908 7.13271 26.4921 7.66075 26.4921 8.33674C27.7846 7.53446 29.222 6.93304 30.861 6.93304C33.5052 6.93304 34.8557 8.279 34.8557 10.8001H34.8569Z" fill="#FE2C55"/>
<path d="M39.0183 0.419769L39.9983 0.325949C40.8588 0.244157 41.6022 0.917738 41.6022 1.77896V19.2115C41.6022 19.7864 41.1351 20.2519 40.5582 20.2519H38.7383C38.1614 20.2519 37.6943 19.7864 37.6943 19.2115V1.87278C37.6943 1.11981 38.2676 0.490736 39.0195 0.419769H39.0183Z" fill="#FE2C55"/>
<path d="M50.1806 17.6779L50.2747 18.6546C50.3568 19.5122 49.6809 20.2531 48.8168 20.2531H39.6904C39.1135 20.2531 38.6465 19.7876 38.6465 19.2127V17.3988C38.6465 16.8239 39.1135 16.3584 39.6904 16.3584H48.7226C49.4782 16.3584 50.1093 16.9297 50.1806 17.6791V17.6779Z" fill="#FE2C55"/>
<path d="M56.4371 7.36247C56.6664 7.36247 56.8341 7.57898 56.7762 7.8003L56.7062 8.06372L52.954 19.7648C51.5456 24.1479 49.6774 25.981 46.1425 25.981C45.5052 25.981 44.9235 25.9088 44.419 25.8029C43.7939 25.6718 43.427 25.0235 43.6418 24.4233L43.9194 23.6487C44.0908 23.1724 44.5796 22.8837 45.0792 22.9679C45.3351 23.0112 45.5909 23.0304 45.8528 23.0304C47.0307 23.0304 48.1809 22.7442 49.1295 20.2519H48.8133C48.3812 20.2519 47.9926 19.9849 47.8393 19.5819L43.4499 7.82916L43.4318 7.78466C43.3522 7.58138 43.5018 7.36127 43.7215 7.36127H46.6988C47.0862 7.36127 47.429 7.60785 47.5509 7.97471L49.646 14.2655C49.9043 15.0389 50.1058 15.87 50.2784 16.5857C50.451 15.87 50.6803 15.01 50.8818 14.3232L52.6885 7.8869C52.7754 7.57657 53.059 7.36247 53.3825 7.36247H56.4335H56.4371Z" fill="#FE2C55"/>
<path d="M26.3159 9.64784C26.3171 9.59492 26.3183 9.5432 26.3183 9.49027C26.3183 9.43735 26.3183 9.38442 26.3159 9.3327V9.64784Z" fill="#FE2C55"/>
<path d="M19.8108 9.33152C19.8904 8.64351 20.4854 8.10825 21.2071 8.10825C21.9288 8.10825 22.5226 8.64351 22.6035 9.33152H26.5656C26.48 6.49406 24.1145 4.21832 21.2071 4.21832C18.2998 4.21832 15.9343 6.49286 15.8486 9.33152H19.8108Z" fill="#FE2C55"/>
<path d="M31.1965 18.4838C31.1953 18.5367 31.1941 18.5884 31.1941 18.6413C31.1941 18.6943 31.1941 18.7472 31.1965 18.7989V18.4838Z" fill="#FE2C55"/>
<path d="M37.6833 18.8013C37.6037 19.4893 37.0111 20.0246 36.2918 20.0246C35.5725 20.0246 34.9799 19.4893 34.9003 18.8013H30.949C31.0347 21.6388 33.3941 23.9145 36.293 23.9145C39.1919 23.9145 41.5513 21.64 41.637 18.8013H37.6857H37.6833Z" fill="#FE2C55"/>
<path d="M0 10.9384C0 4.23629 4.48353 1.31464 9.48359 1.31464C15.6048 1.31464 18.7379 5.35372 18.7379 11.0539C18.7379 17.756 14.3123 20.6777 9.28205 20.6777C3.1608 20.6777 0 16.6386 0 10.9384ZM14.5428 11.0816C14.5428 7.12908 12.8471 4.63683 9.4848 4.63683C6.12246 4.63683 4.19629 7.10021 4.19629 10.9096C4.19629 14.7189 5.89194 17.3543 9.28325 17.3543C12.6746 17.3543 14.5428 14.8909 14.5428 11.0816Z" fill="#25F5EF"/>
<path d="M33.5498 10.8242V19.0563C33.5498 19.7311 33.0019 20.2772 32.3248 20.2772H30.8657C30.1886 20.2772 29.6407 19.7311 29.6407 19.0563V11.9705C29.6407 10.4236 29.2388 9.87995 27.8871 9.87995C27.1111 9.87995 26.2494 10.1662 25.1862 10.7965V19.0563C25.1862 19.7311 24.6382 20.2772 23.9612 20.2772H22.5021C21.825 20.2772 21.2771 19.7311 21.2771 19.0563V8.45821C21.2771 7.8989 21.7031 7.43221 22.2607 7.37928L23.9262 7.22051C24.6008 7.15676 25.1849 7.6848 25.1849 8.36079C26.4775 7.5585 27.9149 6.95709 29.5538 6.95709C32.1981 6.95709 33.5486 8.30305 33.5486 10.8242H33.5498Z" fill="#25F5EF"/>
<path d="M37.7124 0.443817L38.6923 0.349997C39.5528 0.268205 40.2963 0.941786 40.2963 1.80301V19.2355C40.2963 19.8105 39.8292 20.276 39.2523 20.276H37.4324C36.8555 20.276 36.3884 19.8105 36.3884 19.2355V1.89683C36.3884 1.14386 36.9617 0.514784 37.7136 0.443817H37.7124Z" fill="#25F5EF"/>
<path d="M48.8734 17.7019L48.9676 18.6786C49.0496 19.5362 48.3738 20.2772 47.5097 20.2772H38.3833C37.8064 20.2772 37.3394 19.8117 37.3394 19.2367V17.4229C37.3394 16.8479 37.8064 16.3824 38.3833 16.3824H47.4155C48.171 16.3824 48.8022 16.9538 48.8734 17.7031V17.7019Z" fill="#25F5EF"/>
<path d="M55.1312 7.38652C55.3605 7.38652 55.5282 7.60303 55.4703 7.82435L55.4003 8.08776L51.6481 19.7888C50.2397 24.1719 48.3715 26.005 44.8366 26.005C44.1993 26.005 43.6176 25.9328 43.1131 25.827C42.488 25.6959 42.1211 25.0476 42.3359 24.4474L42.6135 23.6727C42.7849 23.1964 43.2737 22.9077 43.7733 22.9919C44.0292 23.0352 44.285 23.0545 44.5469 23.0545C45.7248 23.0545 46.875 22.7682 47.8236 20.276H47.5074C47.0753 20.276 46.6867 20.0089 46.5334 19.606L42.144 7.85321L42.1259 7.80871C42.0463 7.60543 42.1959 7.38531 42.4156 7.38531H45.3929C45.7803 7.38531 46.1231 7.63189 46.245 7.99875L48.3401 14.2895C48.5984 15.0629 48.7999 15.8941 48.9725 16.6098C49.1451 15.8941 49.3744 15.0341 49.5759 14.3473L51.3826 7.91095C51.4695 7.60062 51.7531 7.38652 52.0766 7.38652H55.1275H55.1312Z" fill="#25F5EF"/>
<path d="M25.01 9.36397C25.0112 9.31104 25.0124 9.25932 25.0124 9.2064C25.0124 9.15347 25.0124 9.10055 25.01 9.04883V9.36397Z" fill="#25F5EF"/>
<path d="M18.5049 9.04765C18.5845 8.35963 19.1795 7.82438 19.9012 7.82438C20.6229 7.82438 21.2167 8.35963 21.2976 9.04765H25.2597C25.1741 6.21019 22.8086 3.93445 19.9012 3.93445C16.9939 3.93445 14.6284 6.20899 14.5427 9.04765H18.5049Z" fill="#25F5EF"/>
<path d="M29.8904 18.1999C29.8891 18.2528 29.8879 18.3045 29.8879 18.3575C29.8879 18.4104 29.8879 18.4633 29.8904 18.515V18.1999Z" fill="#25F5EF"/>
<path d="M36.3774 18.5175C36.2978 19.2055 35.7052 19.7407 34.9859 19.7407C34.2666 19.7407 33.674 19.2055 33.5944 18.5175H29.6431C29.7288 21.3549 32.0882 23.6307 34.9871 23.6307C37.886 23.6307 40.2454 21.3561 40.3311 18.5175H36.3798H36.3774Z" fill="#25F5EF"/>
<path d="M82.6936 16.3055C80.0276 15.2722 78.052 14.2631 78.052 11.434C78.052 8.28505 81.1621 7.00525 84.026 7.00525C85.3523 7.00525 86.8621 7.32881 88.3104 8.02043C89.0683 8.38248 89.3278 9.3291 88.8643 10.0267C88.4359 10.6715 87.5935 10.9036 86.8959 10.5632C85.9473 10.1001 85.082 9.85955 84.0018 9.85955C82.3484 9.85955 81.6074 10.4742 81.6074 11.3114C81.6074 12.1485 82.1505 12.6152 84.5944 13.5005M84.5944 13.5005L85.1375 13.6978C87.5573 14.583 90.0012 15.5188 90.0012 18.7664C90.0012 22.0141 87.1626 23.6379 83.6072 23.6379C81.4662 23.6379 79.7621 23.158 78.3899 22.4074C77.7816 22.0754 77.5849 21.2984 77.9614 20.7174L78.2776 20.2291C78.6107 19.7143 79.2806 19.5399 79.8285 19.8177C81.1512 20.4901 82.3412 20.7343 83.3851 20.7343C85.2123 20.7343 86.3963 20.1689 86.3963 18.9625C86.3963 17.904 85.7542 17.4866 83.2608 16.5268L82.6936 16.3055" fill="#938AF4"/>
<path opacity="0.3" d="M82.6128 16.3055L84.5933 17.0356L86.3106 14.144L84.5933 13.5017L82.6128 16.3055Z" fill="url(#paint0_linear_4006_12809)"/>
<path d="M82.6925 16.3058C80.0261 15.2726 78.0515 14.264 78.0515 11.4342C78.0515 8.28527 81.1616 7.0058 84.0257 7.0058C85.3908 7.0058 86.9495 7.3485 88.4351 8.08109C89.1238 8.42071 89.3554 9.28669 88.9313 9.92386L88.7295 10.2276C88.3702 10.7673 87.6609 10.952 87.0833 10.6565C86.059 10.1321 85.153 9.85922 84.002 9.85922C82.3476 9.85922 81.6074 10.4738 81.6074 11.3111C81.6074 12.1483 82.151 12.6152 84.594 13.5006" fill="#762CB6"/>
<path opacity="0.3" d="M82.6936 16.3055C80.0277 15.2722 78.052 14.2631 78.052 11.434C78.052 8.28505 81.1621 7.00525 84.026 7.00525C85.391 7.00525 86.9503 7.34805 88.4359 8.08057C89.125 8.41977 89.3568 9.2858 88.9319 9.9233L88.7292 10.2276C88.3695 10.7677 87.6611 10.9529 87.083 10.657C86.0584 10.1326 85.152 9.85955 84.0019 9.85955C82.3485 9.85955 81.6074 10.4742 81.6074 11.3114C81.6074 12.1485 82.1505 12.6152 84.5945 13.5005" fill="url(#paint1_linear_4006_12809)"/>
<path d="M71.1457 7.00579H67.1502C66.3925 7.00579 65.8819 7.77942 66.1825 8.47303L66.6293 9.50317C66.7961 9.88794 67.176 10.1362 67.597 10.1362H71.1447C74.4926 10.1362 76.2953 11.4198 76.2953 15.3208C76.2953 19.582 74.3125 20.5054 70.3726 20.5054H67.7041C67.1224 20.5054 66.6499 20.9753 66.6499 21.5561V22.5862C66.6499 23.1659 67.1214 23.6369 67.7041 23.6369H71.016C75.8835 23.6369 80.262 21.0954 80.262 15.3208C80.262 8.90396 76.4507 7.00476 71.1447 7.00476L71.1457 7.00579Z" fill="#762CB6"/>
<path d="M61.4117 9.81817H61.4611C61.7082 10.8052 62.0057 12.0395 62.3032 13.0266L63.2812 16.5911L64.0163 19.3244L64.9027 22.6232C65.0633 23.2214 65.6069 23.6369 66.2277 23.6369H67.3745C68.299 23.6369 68.9579 22.7442 68.6851 21.8649L64.4199 8.15598C64.2068 7.47161 63.5716 7.00476 62.8519 7.00476H61.4106" fill="#762CB6"/>
<path d="M61.5312 9.56245L61.4648 9.83188C61.2174 10.8194 60.9048 12.0391 60.6079 13.0266L59.6291 16.5917L58.8941 19.3258L58.0071 22.6251C57.8466 23.2229 57.3035 23.6379 56.6819 23.6379H55.5354C54.611 23.6379 53.952 22.7454 54.2248 21.8661L58.52 8.06253C58.7155 7.43345 59.2984 7.00525 59.9586 7.00525H62.0767" fill="#938AF4"/>
<path d="M62.7863 7.00525H62.0779L61.501 9.70198H64.8995L64.4385 8.2189C64.214 7.4972 63.5442 7.00525 62.7863 7.00525Z" fill="#34A853"/>
<path opacity="0.3" d="M62.7863 7.00525H62.0779L61.501 9.70198H64.8995L64.4385 8.2189C64.214 7.4972 63.5442 7.00525 62.7863 7.00525Z" fill="url(#paint2_linear_4006_12809)"/>
<path d="M74.8441 15.8785C74.8888 15.8785 74.9769 15.8688 75.0095 15.834C75.0324 15.8087 75.0541 15.7906 74.9974 15.7906C74.9527 15.7906 74.8646 15.8003 74.832 15.8352C74.8091 15.8604 74.7874 15.8785 74.8441 15.8785Z" fill="#1D1D1B"/>
<path d="M79.0282 22.6973C78.642 22.5469 78.2776 22.3761 77.9348 22.1885C77.3265 21.8565 77.1298 21.0795 77.5064 20.4985L77.8226 20.0102C78.1557 19.4954 78.8255 19.321 79.3734 19.5988C79.593 19.7107 79.8103 19.8105 80.0227 19.8995" fill="#938AF4"/>
<path d="M0.652832 10.5956C0.652832 3.8923 5.13636 0.970642 10.1376 0.970642C16.2589 0.970642 19.3919 5.00972 19.3919 10.7099C19.3919 17.412 14.9663 20.3337 9.93609 20.3337C3.81483 20.3337 0.652832 16.2946 0.652832 10.5944V10.5956ZM15.1956 10.7388C15.1956 6.78629 13.5 4.29404 10.1376 4.29404C6.77529 4.29404 4.84912 6.75742 4.84912 10.5668C4.84912 14.3761 6.54478 17.0115 9.93609 17.0115C13.3274 17.0115 15.1956 14.5481 15.1956 10.7388Z" fill="black"/>
<path d="M34.2038 10.4802V18.7123C34.2038 19.3871 33.6559 19.9332 32.9789 19.9332H31.5197C30.8427 19.9332 30.2948 19.3871 30.2948 18.7123V11.6265C30.2948 10.0796 29.8929 9.53596 28.5412 9.53596C27.7652 9.53596 26.9035 9.82223 25.8402 10.4525V18.7123C25.8402 19.3871 25.2923 19.9332 24.6152 19.9332H23.1561C22.4791 19.9332 21.9312 19.3871 21.9312 18.7123V8.11422C21.9312 7.55491 22.3572 7.08821 22.9148 7.03529L24.5802 6.87652C25.2549 6.81277 25.839 7.34081 25.839 8.01679C27.1316 7.21451 28.5689 6.6131 30.2079 6.6131C32.8521 6.6131 34.2026 7.95906 34.2026 10.4802H34.2038Z" fill="black"/>
<path d="M38.3652 0.099823L39.3452 0.00600288C40.2057 -0.0757891 40.9491 0.597792 40.9491 1.45901V18.8915C40.9491 19.4665 40.482 19.932 39.9052 19.932H38.0852C37.5083 19.932 37.0413 19.4665 37.0413 18.8915V1.55283C37.0413 0.799866 37.6145 0.17079 38.3664 0.099823H38.3652Z" fill="black"/>
<path d="M49.5275 17.3579L49.6216 18.3346C49.7037 19.1923 49.0278 19.9332 48.1637 19.9332H39.0374C38.4605 19.9332 37.9934 19.4677 37.9934 18.8928V17.0789C37.9934 16.5039 38.4605 16.0385 39.0374 16.0385H48.0696C48.8251 16.0385 49.4563 16.6098 49.5275 17.3592V17.3579Z" fill="black"/>
<path d="M55.784 7.04374C56.0133 7.04374 56.1811 7.26025 56.1231 7.48157L56.0531 7.74499L52.301 19.446C50.8925 23.8291 49.0243 25.6622 45.4894 25.6622C44.8522 25.6622 44.2704 25.5901 43.766 25.4842C43.1408 25.3531 42.7739 24.7048 42.9888 24.1046L43.2663 23.33C43.4377 22.8536 43.9265 22.565 44.4261 22.6492C44.682 22.6925 44.9378 22.7117 45.1997 22.7117C46.3776 22.7117 47.5278 22.4254 48.4764 19.9332H48.1602C47.7281 19.9332 47.3395 19.6662 47.1862 19.2632L42.7969 7.51044L42.7788 7.46594C42.6991 7.26266 42.8488 7.04254 43.0684 7.04254H46.0458C46.4332 7.04254 46.7759 7.28912 46.8978 7.65598L48.9929 13.9467C49.2512 14.7202 49.4528 15.5513 49.6253 16.267C49.7979 15.5513 50.0272 14.6913 50.2288 14.0045L52.0355 7.56817C52.1224 7.25785 52.406 7.04374 52.7294 7.04374H55.7804H55.784Z" fill="black"/>
<path d="M25.6631 9.32912C25.6643 9.27619 25.6655 9.22447 25.6655 9.17155C25.6655 9.11862 25.6655 9.0657 25.6631 9.01398V9.32912Z" fill="black"/>
<path d="M19.158 9.01158C19.2376 8.32356 19.8326 7.78831 20.5543 7.78831C21.276 7.78831 21.8698 8.32356 21.9507 9.01158H25.9128C25.8271 6.17412 23.4617 3.89838 20.5543 3.89838C17.647 3.89838 15.2815 6.17291 15.1958 9.01158H19.158Z" fill="black"/>
<path d="M30.5434 18.165C30.5422 18.218 30.541 18.2697 30.541 18.3226C30.541 18.3755 30.541 18.4285 30.5434 18.4802V18.165Z" fill="black"/>
<path d="M37.0305 18.4814C36.9508 19.1694 36.3583 19.7047 35.639 19.7047C34.9197 19.7047 34.3271 19.1694 34.2474 18.4814H30.2961C30.3818 21.3188 32.7413 23.5946 35.6402 23.5946C38.5391 23.5946 40.8985 21.32 40.9842 18.4814H37.0329H37.0305Z" fill="black"/>
</g>
<defs>
<linearGradient id="paint0_linear_4006_12809" x1="85.4876" y1="15.8965" x2="84.0531" y2="14.9515" gradientUnits="userSpaceOnUse">
<stop stop-color="white" stop-opacity="0"/>
<stop offset="0.34" stop-color="#E5E5E5" stop-opacity="0.11"/>
<stop offset="0.68" stop-color="#9A9899" stop-opacity="0.46"/>
<stop offset="1" stop-color="#231F20"/>
</linearGradient>
<linearGradient id="paint1_linear_4006_12809" x1="88.4902" y1="11.6566" x2="79.079" y2="11.6566" gradientUnits="userSpaceOnUse">
<stop stop-color="white" stop-opacity="0"/>
<stop offset="0.34" stop-color="#E5E5E5" stop-opacity="0.11"/>
<stop offset="0.68" stop-color="#9A9899" stop-opacity="0.46"/>
<stop offset="1" stop-color="#231F20"/>
</linearGradient>
<linearGradient id="paint2_linear_4006_12809" x1="65.0625" y1="8.99712" x2="61.9051" y2="8.27202" gradientUnits="userSpaceOnUse">
<stop stop-color="white" stop-opacity="0"/>
<stop offset="0.34" stop-color="#E5E5E5" stop-opacity="0.11"/>
<stop offset="0.68" stop-color="#9A9899" stop-opacity="0.46"/>
<stop offset="1" stop-color="#231F20"/>
</linearGradient>
<clipPath id="clip0_4006_12809">
<rect width="90" height="26.005" fill="white"/>
</clipPath>
</defs>
</svg>
