<svg width="20" height="20" viewBox="0 0 20 20" fill="none" xmlns="http://www.w3.org/2000/svg">
<path d="M10 1.66669C8.35185 1.66669 6.74068 2.15543 5.37027 3.07111C3.99986 3.98679 2.93176 5.28827 2.30103 6.81099C1.6703 8.33371 1.50527 10.0093 1.82681 11.6258C2.14836 13.2423 2.94203 14.7271 4.10747 15.8926C5.27291 17.058 6.75776 17.8517 8.37427 18.1732C9.99078 18.4948 11.6663 18.3297 13.1891 17.699C14.7118 17.0683 16.0133 16.0002 16.9289 14.6298C17.8446 13.2594 18.3334 11.6482 18.3334 10C18.3312 7.79056 17.4525 5.67223 15.8901 4.1099C14.3278 2.54758 12.2095 1.66889 10 1.66669ZM14.9492 8.09419V8.63252C14.9492 8.67372 14.941 8.71451 14.9249 8.75247C14.9089 8.79043 14.8855 8.8248 14.856 8.85355C14.8264 8.88229 14.7915 8.90482 14.7531 8.91982C14.7147 8.93481 14.6737 8.94197 14.6325 8.94085C13.7527 8.87869 12.9109 8.55741 12.2134 8.01752V11.9575C12.2132 12.3936 12.1261 12.8252 11.9573 13.2273C11.7884 13.6293 11.5412 13.9937 11.23 14.2992C10.9163 14.6126 10.5431 14.8603 10.1325 15.0277C9.72178 15.1952 9.28182 15.2789 8.83836 15.2742C7.94658 15.2729 7.09065 14.923 6.45336 14.2992C6.04785 13.8904 5.75577 13.383 5.60585 12.827C5.45594 12.2711 5.45335 11.6856 5.59836 11.1284C5.73086 10.5934 5.99836 10.1017 6.37586 9.70085C6.65738 9.35676 7.01225 9.07993 7.41452 8.89062C7.81678 8.70131 8.25628 8.6043 8.70086 8.60669H9.38419V10.0259C9.38449 10.0671 9.376 10.1079 9.35929 10.1456C9.34258 10.1832 9.31803 10.2169 9.28728 10.2444C9.25652 10.2718 9.22027 10.2924 9.18094 10.3047C9.14161 10.317 9.10011 10.3208 9.05919 10.3159C8.66243 10.1967 8.2349 10.2362 7.86672 10.4261C7.49854 10.616 7.21847 10.9414 7.08556 11.3338C6.95264 11.7262 6.97727 12.1548 7.15423 12.5294C7.3312 12.904 7.64669 13.1952 8.03419 13.3417C8.25919 13.4709 8.51086 13.5467 8.76919 13.5642C8.96919 13.5725 9.16919 13.5475 9.35919 13.4875C9.67638 13.3805 9.95227 13.1772 10.1484 12.9059C10.3445 12.6346 10.4511 12.3089 10.4534 11.9742V4.79502C10.4534 4.7156 10.4848 4.63942 10.5409 4.58318C10.597 4.52695 10.6731 4.49524 10.7525 4.49502H11.9317C12.0083 4.49512 12.082 4.52452 12.1376 4.5772C12.1932 4.62989 12.2266 4.70186 12.2309 4.77835C12.2738 5.14604 12.3906 5.50127 12.5742 5.82274C12.7578 6.14421 13.0044 6.42531 13.2992 6.64919C13.6976 6.94826 14.1708 7.13165 14.6667 7.17919C14.741 7.18554 14.8104 7.21859 14.8622 7.27221C14.914 7.32583 14.9446 7.3964 14.9484 7.47085L14.9492 8.09419Z" fill="#1C1D21"/>
</svg>
