<svg width="20" height="20" viewBox="0 0 20 20" fill="none" xmlns="http://www.w3.org/2000/svg">
<path d="M9.99935 1.66666C8.35118 1.66666 6.74001 2.1554 5.3696 3.07108C3.99919 3.98675 2.93109 5.28824 2.30036 6.81096C1.66963 8.33368 1.5046 10.0092 1.82614 11.6257C2.14769 13.2423 2.94136 14.7271 4.1068 15.8925C5.27223 17.058 6.75709 17.8517 8.3736 18.1732C9.99011 18.4947 11.6657 18.3297 13.1884 17.699C14.7111 17.0683 16.0126 16.0002 16.9283 14.6297C17.8439 13.2593 18.3327 11.6482 18.3327 9.99999C18.3305 7.79053 17.4518 5.6722 15.8895 4.10987C14.3271 2.54754 12.2088 1.66886 9.99935 1.66666ZM14.9485 8.09416V8.63249C14.9485 8.67369 14.9403 8.71448 14.9243 8.75244C14.9083 8.7904 14.8848 8.82477 14.8553 8.85351C14.8258 8.88226 14.7908 8.90479 14.7524 8.91979C14.714 8.93478 14.673 8.94194 14.6319 8.94082C13.752 8.87866 12.9102 8.55738 12.2127 8.01749V11.9575C12.2125 12.3935 12.1254 12.8252 11.9566 13.2273C11.7878 13.6293 11.5405 13.9937 11.2294 14.2992C10.9156 14.6126 10.5425 14.8603 10.1318 15.0277C9.72111 15.1951 9.28115 15.2789 8.83769 15.2742C7.94591 15.2729 7.08998 14.923 6.45269 14.2992C6.04718 13.8903 5.7551 13.383 5.60518 12.827C5.45527 12.271 5.45268 11.6856 5.59769 11.1283C5.73019 10.5933 5.99769 10.1017 6.37519 9.70082C6.65671 9.35673 7.01158 9.0799 7.41385 8.89059C7.81611 8.70128 8.25561 8.60427 8.70019 8.60666H9.38352V10.0258C9.38382 10.067 9.37533 10.1078 9.35862 10.1455C9.34191 10.1832 9.31736 10.2169 9.28661 10.2443C9.25585 10.2718 9.2196 10.2923 9.18027 10.3047C9.14094 10.317 9.09944 10.3208 9.05852 10.3158C8.66176 10.1966 8.23423 10.2362 7.86605 10.4261C7.49787 10.616 7.2178 10.9414 7.08489 11.3338C6.95197 11.7262 6.97659 12.1548 7.15356 12.5294C7.33053 12.9039 7.64602 13.1952 8.03352 13.3417C8.25852 13.4708 8.51019 13.5467 8.76852 13.5642C8.96852 13.5725 9.16852 13.5475 9.35852 13.4875C9.67571 13.3805 9.9516 13.1772 10.1477 12.9059C10.3439 12.6346 10.4505 12.3089 10.4527 11.9742V4.79499C10.4527 4.71557 10.4842 4.63939 10.5403 4.58315C10.5963 4.52692 10.6724 4.49521 10.7519 4.49499H11.931C12.0076 4.49508 12.0813 4.52449 12.1369 4.57717C12.1926 4.62986 12.2259 4.70183 12.2302 4.77832C12.2732 5.14601 12.3899 5.50124 12.5735 5.82271C12.7571 6.14418 13.0037 6.42528 13.2985 6.64916C13.6969 6.94823 14.1701 7.13162 14.666 7.17916C14.7403 7.18551 14.8098 7.21856 14.8615 7.27218C14.9133 7.3258 14.9439 7.39637 14.9477 7.47082L14.9485 8.09416Z" fill="white"/>
</svg>
